{
.appVersion = "3340";
classes = (
{
automatic = 1;

glyphs = (
{
color = 9;
glyphname = A;
lastChange = "2019-09-04 19:35:22 +0000";
layers = (
{
anchors = (
{
name = bottom;
position = "{596, 0}";
},
{
name = ogonek;
position = "{1108, 0}";
},
{
name = top;
position = "{596, 1266}";
}
);
layerId = "C9A88445-F9B1-43BF-9834-532EB19954E9";
paths = (
{
closed = 1;
nodes = (
"92 -6 OFFCURVE",
"112 2 OFFCURVE",
"122 26 CURVE SMOOTH",
"265 358 LINE",
"931 358 LINE",
"1072 26 LINE SMOOTH",
"1082 2 OFFCURVE",
"1102 -6 OFFCURVE",
"1126 4 CURVE SMOOTH",
"1152 16 OFFCURVE",
"1160 34 OFFCURVE",
"1148 60 CURVE SMOOTH",
"648 1234 LINE SMOOTH",
"638 1256 OFFCURVE",
"624 1266 OFFCURVE",
"600 1266 CURVE SMOOTH",
"594 1266 LINE SMOOTH",
"570 1266 OFFCURVE",
"554 1256 OFFCURVE",
"546 1234 CURVE SMOOTH",
"44 60 LINE SMOOTH",
"34 34 OFFCURVE",
"42 16 OFFCURVE",
"66 4 CURVE SMOOTH"
);
},
{
closed = 1;
nodes = (
"600 1134 LINE",
"895 442 LINE",
"301 442 LINE"
);
}
);
width = 1194;
},
{
anchors = (
{
name = bottom;
position = "{666, 0}";
},
{
name = ogonek;
position = "{1124, 0}";
},
{
name = top;
position = "{668, 1356}";
}
);
layerId = "9D2B49D7-8C02-48EB-8D57-D561CCF616AE";
paths = (
{
closed = 1;
nodes = (
"192 -12 OFFCURVE",
"232 4 OFFCURVE",
"252 54 CURVE SMOOTH",
"355 316 LINE",
"978 316 LINE",
"1086 54 LINE SMOOTH",
"1106 4 OFFCURVE",
"1144 -12 OFFCURVE",
"1196 8 CURVE SMOOTH",
"1246 28 OFFCURVE",
"1262 68 OFFCURVE",
"1242 118 CURVE SMOOTH",
"758 1290 LINE SMOOTH",
"742 1334 OFFCURVE",
"712 1354 OFFCURVE",
"670 1356 CURVE SMOOTH",
"666 1356 LINE SMOOTH",
"622 1356 OFFCURVE",
"592 1334 OFFCURVE",
"572 1290 CURVE SMOOTH",
"96 118 LINE SMOOTH",
"76 68 OFFCURVE",
"92 28 OFFCURVE",
"144 8 CURVE SMOOTH"
);
},
{
closed = 1;
nodes = (
"660 1090 LINE",
"909 484 LINE",
"421 484 LINE"
);
}
);
width = 1332;
}
);
leftKerningGroup = A;
rightKerningGroup = A;
unicode = 0041;
},
{
color = 9;
glyphname = AE;
lastChange = "2019-09-04 19:35:22 +0000";
layers = (
{
anchors = (
{
name = bottom;
position = "{997, 0}";
},
{
name = top;
position = "{1015, 1266}";
}
);
layerId = "C9A88445-F9B1-43BF-9834-532EB19954E9";
paths = (
{
closed = 1;
nodes = (
"1521 0 LINE SMOOTH",
"1549 0 OFFCURVE",
"1563 14 OFFCURVE",
"1563 42 CURVE SMOOTH",
"1563 70 OFFCURVE",
"1549 84 OFFCURVE",
"1521 84 CURVE SMOOTH",
"885 84 LINE",
"885 600 LINE",
"1285 600 LINE SMOOTH",
"1313 600 OFFCURVE",
"1327 614 OFFCURVE",
"1327 642 CURVE SMOOTH",
"1327 670 OFFCURVE",
"1313 684 OFFCURVE",
"1285 684 CURVE SMOOTH",
"885 684 LINE",
"885 1182 LINE",
"1521 1182 LINE SMOOTH",
"1549 1182 OFFCURVE",
"1563 1196 OFFCURVE",
"1563 1224 CURVE SMOOTH",
"1563 1252 OFFCURVE",
"1549 1266 OFFCURVE",
"1521 1266 CURVE SMOOTH",
"757 1266 LINE SMOOTH",
"735 1266 OFFCURVE",
"719 1258 OFFCURVE",
"709 1236 CURVE SMOOTH",
"47 64 LINE SMOOTH",
"33 40 OFFCURVE",
"39 20 OFFCURVE",
"63 6 CURVE SMOOTH",
"87 -8 OFFCURVE",
"107 -2 OFFCURVE",
"121 22 CURVE SMOOTH",
"311 360 LINE",
"801 358 LINE",
"801 42 LINE SMOOTH",
"801 14 OFFCURVE",
"815 0 OFFCURVE",
"843 0 CURVE SMOOTH"
);
},
{
closed = 1;
nodes = (
"773 1182 LINE",
"801 1182 LINE",
"801 442 LINE",
"357 442 LINE"
);
}
);
width = 1633;
},
{
anchors = (
{
name = bottom;
position = "{1080, 0}";
},
{
name = top;
position = "{1074, 1356}";
}
);
layerId = "9D2B49D7-8C02-48EB-8D57-D561CCF616AE";
paths = (
{
closed = 1;
nodes = (
"1524 0 LINE SMOOTH",
"1578 0 OFFCURVE",
"1608 30 OFFCURVE",
"1608 84 CURVE SMOOTH",
"1608 138 OFFCURVE",
"1578 168 OFFCURVE",
"1524 168 CURVE SMOOTH",
"1026 168 LINE",
"1026 600 LINE",
"1288 600 LINE SMOOTH",
"1342 600 OFFCURVE",
"1372 630 OFFCURVE",
"1372 684 CURVE SMOOTH",
"1372 738 OFFCURVE",
"1342 768 OFFCURVE",
"1288 768 CURVE SMOOTH",
"1026 768 LINE",
"1026 1188 LINE",
"1524 1188 LINE SMOOTH",
"1578 1188 OFFCURVE",
"1608 1218 OFFCURVE",
"1608 1272 CURVE SMOOTH",
"1608 1324 OFFCURVE",
"1578 1356 OFFCURVE",
"1524 1356 CURVE SMOOTH",
"868 1356 LINE SMOOTH",
"820 1356 OFFCURVE",
"790 1336 OFFCURVE",
"766 1298 CURVE SMOOTH",
"102 128 LINE SMOOTH",
"76 82 OFFCURVE",
"88 42 OFFCURVE",
"134 14 CURVE SMOOTH",
"180 -14 OFFCURVE",
"220 -2 OFFCURVE",
"248 48 CURVE SMOOTH",
"402 316 LINE",
"858 316 LINE",
"858 84 LINE SMOOTH",
"858 30 OFFCURVE",
"886 0 OFFCURVE",
"942 0 CURVE SMOOTH"
);
},
{
closed = 1;
nodes = (
"864 1149 LINE",
"858 1149 LINE",
"858 484 LINE",
"498 484 LINE"
);
}
);
width = 1720;
}
);
leftKerningGroup = A;
leftMetricsKey = A;
rightKerningGroup = E;
rightMetricsKey = E;
unicode = 00C6;
},
{
color = 9;
glyphname = B;
lastChange = "2019-09-04 19:35:22 +0000";
layers = (
{
anchors = (
{
name = bottom;
position = "{600, 0}";
},
{
name = top;
position = "{600, 1266}";
}
);
background = {
paths = (
{
closed = 1;
nodes = (
"770 0 LINE SMOOTH",
"992 0 OFFCURVE",
"1106 114 OFFCURVE",
"1106 334 CURVE SMOOTH",
"1106 396 LINE SMOOTH",
"1106 616 OFFCURVE",
"992 728 OFFCURVE",
"770 728 CURVE SMOOTH",
"264 728 LINE SMOOTH",
"236 728 OFFCURVE",
"222 714 OFFCURVE",
"222 686 CURVE SMOOTH",
"222 658 OFFCURVE",
"236 644 OFFCURVE",
"264 644 CURVE SMOOTH",
"770 644 LINE SMOOTH",
"946 644 OFFCURVE",
"1022 570 OFFCURVE",
"1022 396 CURVE SMOOTH",
"1022 334 LINE SMOOTH",
"1022 160 OFFCURVE",
"946 84 OFFCURVE",
"770 84 CURVE SMOOTH",
"264 84 LINE",
"264 1182 LINE",
"744 1182 LINE SMOOTH",
"886 1182 OFFCURVE",
"948 1122 OFFCURVE",
"948 984 CURVE SMOOTH",
"948 930 LINE SMOOTH",
"948 804 OFFCURVE",
"898 738 OFFCURVE",
"786 730 CURVE SMOOTH",
"758 728 OFFCURVE",
"744 714 OFFCURVE",
"744 688 CURVE SMOOTH",
"744 660 OFFCURVE",
"760 664 OFFCURVE",
"788 666 CURVE SMOOTH",
"948 678 OFFCURVE",
"1032 758 OFFCURVE",
"1032 930 CURVE SMOOTH",
"1032 984 LINE SMOOTH",
"1032 1170 OFFCURVE",
"934 1266 OFFCURVE",
"744 1266 CURVE SMOOTH",
"222 1266 LINE SMOOTH",
"194 1266 OFFCURVE",
"180 1252 OFFCURVE",
"180 1224 CURVE SMOOTH",
"180 42 LINE SMOOTH",
"180 14 OFFCURVE",
"194 0 OFFCURVE",
"222 0 CURVE SMOOTH"
);
}
);
};
layerId = "C9A88445-F9B1-43BF-9834-532EB19954E9";
paths = (
{
closed = 1;
nodes = (
"770 0 LINE SMOOTH",
"992 0 OFFCURVE",
"1106 114 OFFCURVE",
"1106 334 CURVE SMOOTH",
"1106 396 LINE SMOOTH",
"1106 557 OFFCURVE",
"1045 660 OFFCURVE",
"926 704 CURVE",
"996 744 OFFCURVE",
"1032 817 OFFCURVE",
"1032 930 CURVE SMOOTH",
"1032 984 LINE SMOOTH",
"1032 1170 OFFCURVE",
"934 1266 OFFCURVE",
"744 1266 CURVE SMOOTH",
"222 1266 LINE SMOOTH",
"194 1266 OFFCURVE",
"180 1252 OFFCURVE",
"180 1224 CURVE SMOOTH",
"180 42 LINE SMOOTH",
"180 14 OFFCURVE",
"194 0 OFFCURVE",
"222 0 CURVE SMOOTH"
);
},
{
closed = 1;
nodes = (
"264 644 LINE",
"770 644 LINE SMOOTH",
"946 644 OFFCURVE",
"1022 570 OFFCURVE",
"1022 396 CURVE SMOOTH",
"1022 334 LINE SMOOTH",
"1022 160 OFFCURVE",
"946 84 OFFCURVE",
"770 84 CURVE SMOOTH",
"264 84 LINE"
);
},
{
closed = 1;
nodes = (
"264 1182 LINE",
"744 1182 LINE SMOOTH",
"886 1182 OFFCURVE",
"948 1122 OFFCURVE",
"948 984 CURVE SMOOTH",
"948 930 LINE SMOOTH",
"948 786 OFFCURVE",
"882 728 OFFCURVE",
"752 728 CURVE SMOOTH",
"264 728 LINE"
);
}
);
width = 1206;
},
{
anchors = (
{
name = bottom;
position = "{682, 0}";
},
{
name = top;
position = "{676, 1356}";
}
);
background = {
paths = (
{
closed = 1;
nodes = (
"840 0 LINE SMOOTH",
"1084 0 OFFCURVE",
"1218 130 OFFCURVE",
"1218 376 CURVE SMOOTH",
"1218 444 LINE SMOOTH",
"1218 686 OFFCURVE",
"1088 818 OFFCURVE",
"840 818 CURVE SMOOTH",
"376 818 LINE SMOOTH",
"322 818 OFFCURVE",
"292 788 OFFCURVE",
"292 734 CURVE SMOOTH",
"292 680 OFFCURVE",
"322 650 OFFCURVE",
"376 650 CURVE SMOOTH",
"840 650 LINE SMOOTH",
"994 650 OFFCURVE",
"1050 592 OFFCURVE",
"1050 444 CURVE SMOOTH",
"1050 376 LINE SMOOTH",
"1050 228 OFFCURVE",
"990 168 OFFCURVE",
"840 168 CURVE SMOOTH",
"376 168 LINE",
"376 1188 LINE",
"814 1188 LINE SMOOTH",
"934 1188 OFFCURVE",
"976 1148 OFFCURVE",
"976 1032 CURVE SMOOTH",
"976 978 LINE SMOOTH",
"976 886 OFFCURVE",
"942 814 OFFCURVE",
"856 816 CURVE SMOOTH",
"828 818 OFFCURVE",
"814 784 OFFCURVE",
"814 738 CURVE SMOOTH",
"814 718 OFFCURVE",
"846 700 OFFCURVE",
"902 706 CURVE SMOOTH",
"1058 720 OFFCURVE",
"1144 830 OFFCURVE",
"1144 978 CURVE SMOOTH",
"1144 1032 LINE SMOOTH",
"1144 1240 OFFCURVE",
"1026 1356 OFFCURVE",
"814 1356 CURVE SMOOTH",
"292 1356 LINE SMOOTH",
"238 1356 OFFCURVE",
"208 1326 OFFCURVE",
"208 1272 CURVE SMOOTH",
"208 84 LINE SMOOTH",
"208 30 OFFCURVE",
"238 0 OFFCURVE",
"292 0 CURVE SMOOTH"
);
}
);
};
layerId = "9D2B49D7-8C02-48EB-8D57-D561CCF616AE";
paths = (
{
closed = 1;
nodes = (
"840 0 LINE SMOOTH",
"1084 0 OFFCURVE",
"1218 130 OFFCURVE",
"1218 376 CURVE SMOOTH",
"1218 444 LINE SMOOTH",
"1218 600 OFFCURVE",
"1164 710 OFFCURVE",
"1059 769 CURVE",
"1115 818 OFFCURVE",
"1144 892 OFFCURVE",
"1144 978 CURVE SMOOTH",
"1144 1032 LINE SMOOTH",
"1144 1240 OFFCURVE",
"1026 1356 OFFCURVE",
"814 1356 CURVE SMOOTH",
"292 1356 LINE SMOOTH",
"238 1356 OFFCURVE",
"208 1326 OFFCURVE",
"208 1272 CURVE SMOOTH",
"208 84 LINE SMOOTH",
"208 30 OFFCURVE",
"238 0 OFFCURVE",
"292 0 CURVE SMOOTH"
);
},
{
closed = 1;
nodes = (
"376 650 LINE",
"840 650 LINE SMOOTH",
"994 650 OFFCURVE",
"1050 592 OFFCURVE",
"1050 444 CURVE SMOOTH",
"1050 376 LINE SMOOTH",
"1050 228 OFFCURVE",
"990 168 OFFCURVE",
"840 168 CURVE SMOOTH",
"376 168 LINE"
);
},
{
closed = 1;
nodes = (
"376 1188 LINE",
"814 1188 LINE SMOOTH",
"934 1188 OFFCURVE",
"976 1148 OFFCURVE",
"976 1032 CURVE SMOOTH",
"976 978 LINE SMOOTH",
"976 884 OFFCURVE",
"947 818 OFFCURVE",
"850 818 CURVE SMOOTH",
"376 818 LINE"
);
}
);
width = 1346;
}
);
leftKerningGroup = H;
leftMetricsKey = H;
rightKerningGroup = B;
unicode = 0042;
},
{
color = 9;
glyphname = C;
lastChange = "2019-09-04 19:35:22 +0000";
layers = (
{
anchors = (
{
name = bottom;
position = "{688, 0}";
},
{
name = top;
position = "{666, 1266}";
}
);
layerId = "C9A88445-F9B1-43BF-9834-532EB19954E9";
paths = (
{
closed = 1;
nodes = (
"806 0 LINE SMOOTH",
"1050 0 OFFCURVE",
"1160 96 OFFCURVE",
"1170 322 CURVE SMOOTH",
"1172 350 OFFCURVE",
"1158 366 OFFCURVE",
"1130 366 CURVE SMOOTH",
"1102 366 OFFCURVE",
"1088 352 OFFCURVE",
"1086 324 CURVE SMOOTH",
"1078 144 OFFCURVE",
"1002 84 OFFCURVE",
"806 84 CURVE SMOOTH",
"566 84 LINE SMOOTH",
"330 84 OFFCURVE",
"244 170 OFFCURVE",
"244 406 CURVE SMOOTH",
"244 860 LINE SMOOTH",
"244 1098 OFFCURVE",
"328 1182 OFFCURVE",
"564 1182 CURVE SMOOTH",
"806 1182 LINE SMOOTH",
"1002 1182 OFFCURVE",
"1078 1122 OFFCURVE",
"1086 942 CURVE SMOOTH",
"1088 914 OFFCURVE",
"1102 900 OFFCURVE",
"1130 900 CURVE SMOOTH",
"1158 900 OFFCURVE",
"1172 916 OFFCURVE",
"1170 944 CURVE SMOOTH",
"1160 1170 OFFCURVE",
"1050 1266 OFFCURVE",
"806 1266 CURVE SMOOTH",
"564 1266 LINE SMOOTH",
"282 1266 OFFCURVE",
"160 1146 OFFCURVE",
"160 860 CURVE SMOOTH",
"160 406 LINE SMOOTH",
"160 122 OFFCURVE",
"282 0 OFFCURVE",
"566 0 CURVE SMOOTH"
);
}
);
width = 1310;
},
{
anchors = (
{
name = bottom;
position = "{728, 0}";
},
{
name = top;
position = "{744, 1356}";
}
);
layerId = "9D2B49D7-8C02-48EB-8D57-D561CCF616AE";
paths = (
{
closed = 1;
nodes = (
"848 0 LINE SMOOTH",
"1098 0 OFFCURVE",
"1228 98 OFFCURVE",
"1250 322 CURVE SMOOTH",
"1258 378 OFFCURVE",
"1226 408 OFFCURVE",
"1170 408 CURVE SMOOTH",
"1116 408 OFFCURVE",
"1090 380 OFFCURVE",
"1082 324 CURVE SMOOTH",
"1068 202 OFFCURVE",
"1004 168 OFFCURVE",
"848 168 CURVE SMOOTH",
"608 168 LINE SMOOTH",
"394 168 OFFCURVE",
"328 234 OFFCURVE",
"328 448 CURVE SMOOTH",
"328 908 LINE SMOOTH",
"328 1124 OFFCURVE",
"394 1190 OFFCURVE",
"606 1188 CURVE SMOOTH",
"848 1188 LINE SMOOTH",
"1004 1188 OFFCURVE",
"1068 1154 OFFCURVE",
"1082 1032 CURVE SMOOTH",
"1090 976 OFFCURVE",
"1116 948 OFFCURVE",
"1170 948 CURVE SMOOTH",
"1226 948 OFFCURVE",
"1258 978 OFFCURVE",
"1250 1034 CURVE SMOOTH",
"1228 1256 OFFCURVE",
"1098 1356 OFFCURVE",
"848 1356 CURVE SMOOTH",
"606 1356 LINE SMOOTH",
"302 1358 OFFCURVE",
"160 1216 OFFCURVE",
"160 908 CURVE SMOOTH",
"160 448 LINE SMOOTH",
"160 142 OFFCURVE",
"302 0 OFFCURVE",
"608 0 CURVE SMOOTH"
);
}
);
width = 1392;
}
);
leftKerningGroup = O;
leftMetricsKey = O;
rightKerningGroup = C;
unicode = 0043;
},
{
color = 9;
glyphname = D;
lastChange = "2019-09-04 19:35:22 +0000";
layers = (
{
anchors = (
{
name = bottom;
position = "{656, 0}";
},
{
name = center;
position = "{302, 642}";
},
{
name = top;
position = "{592, 1266}";
}
);
layerId = "C9A88445-F9B1-43BF-9834-532EB19954E9";
paths = (
{
closed = 1;
nodes = (
"704 0 LINE SMOOTH",
"1030 0 OFFCURVE",
"1170 140 OFFCURVE",
"1170 466 CURVE SMOOTH",
"1170 800 LINE SMOOTH",
"1170 1126 OFFCURVE",
"1030 1266 OFFCURVE",
"704 1266 CURVE SMOOTH",
"222 1266 LINE SMOOTH",
"194 1266 OFFCURVE",
"180 1252 OFFCURVE",
"180 1224 CURVE SMOOTH",
"180 42 LINE SMOOTH",
"180 14 OFFCURVE",
"194 0 OFFCURVE",
"222 0 CURVE SMOOTH"
);
},
{
closed = 1;
nodes = (
"264 1182 LINE",
"704 1182 LINE SMOOTH",
"982 1182 OFFCURVE",
"1086 1078 OFFCURVE",
"1086 800 CURVE SMOOTH",
"1086 466 LINE SMOOTH",
"1086 188 OFFCURVE",
"982 84 OFFCURVE",
"704 84 CURVE SMOOTH",
"264 84 LINE"
);
}
);
width = 1330;
},
{
anchors = (
{
name = bottom;
position = "{682, 0}";
},
{
name = center;
position = "{384, 676}";
},
{
name = top;
position = "{706, 1356}";
}
);
layerId = "9D2B49D7-8C02-48EB-8D57-D561CCF616AE";
paths = (
{
closed = 1;
nodes = (
"774 0 LINE SMOOTH",
"1124 0 OFFCURVE",
"1282 160 OFFCURVE",
"1282 508 CURVE SMOOTH",
"1282 848 LINE SMOOTH",
"1282 1196 OFFCURVE",
"1122 1356 OFFCURVE",
"774 1356 CURVE SMOOTH",
"292 1356 LINE SMOOTH",
"238 1356 OFFCURVE",
"208 1326 OFFCURVE",
"208 1272 CURVE SMOOTH",
"208 84 LINE SMOOTH",
"208 30 OFFCURVE",
"238 0 OFFCURVE",
"292 0 CURVE SMOOTH"
);
},
{
closed = 1;
nodes = (
"376 1188 LINE",
"774 1188 LINE SMOOTH",
"1030 1188 OFFCURVE",
"1114 1102 OFFCURVE",
"1114 848 CURVE SMOOTH",
"1114 508 LINE SMOOTH",
"1114 252 OFFCURVE",
"1030 168 OFFCURVE",
"774 168 CURVE SMOOTH",
"376 168 LINE"
);
}
);
width = 1442;
}
);
leftKerningGroup = H;
leftMetricsKey = H;
rightKerningGroup = O;
rightMetricsKey = O;
unicode = 0044;
},
{
color = 9;
glyphname = E;
lastChange = "2019-09-04 19:35:22 +0000";
layers = (
{
anchors = (
{
name = bottom;
position = "{598, 0}";
},
{
name = ogonek;
position = "{976, 0}";
},
{
name = top;
position = "{638, 1266}";
},
{
name = topleft;
position = "{178, 1266}";
}
);
layerId = "C9A88445-F9B1-43BF-9834-532EB19954E9";
paths = (
{
closed = 1;
nodes = (
"982 0 LINE SMOOTH",
"1010 0 OFFCURVE",
"1024 14 OFFCURVE",
"1024 42 CURVE SMOOTH",
"1024 70 OFFCURVE",
"1010 84 OFFCURVE",
"982 84 CURVE SMOOTH",
"264 84 LINE",
"264 600 LINE",
"746 600 LINE SMOOTH",
"774 600 OFFCURVE",
"788 614 OFFCURVE",
"788 642 CURVE SMOOTH",
"788 670 OFFCURVE",
"774 684 OFFCURVE",
"746 684 CURVE SMOOTH",
"264 684 LINE",
"264 1182 LINE",
"982 1182 LINE SMOOTH",
"1010 1182 OFFCURVE",
"1024 1196 OFFCURVE",
"1024 1224 CURVE SMOOTH",
"1024 1252 OFFCURVE",
"1010 1266 OFFCURVE",
"982 1266 CURVE SMOOTH",
"222 1266 LINE SMOOTH",
"194 1266 OFFCURVE",
"180 1252 OFFCURVE",
"180 1224 CURVE SMOOTH",
"180 42 LINE SMOOTH",
"180 14 OFFCURVE",
"194 0 OFFCURVE",
"222 0 CURVE SMOOTH"
);
}
);
width = 1094;
},
{
anchors = (
{
name = bottom;
position = "{696, 0}";
},
{
name = ogonek;
position = "{1012, 82}";
},
{
name = top;
position = "{680, 1356}";
},
{
name = topleft;
position = "{220, 1356}";
}
);
layerId = "9D2B49D7-8C02-48EB-8D57-D561CCF616AE";
paths = (
{
closed = 1;
nodes = (
"1010 0 LINE SMOOTH",
"1064 0 OFFCURVE",
"1094 30 OFFCURVE",
"1094 84 CURVE SMOOTH",
"1094 138 OFFCURVE",
"1064 168 OFFCURVE",
"1010 168 CURVE SMOOTH",
"376 168 LINE",
"376 600 LINE",
"774 600 LINE SMOOTH",
"828 600 OFFCURVE",
"858 630 OFFCURVE",
"858 684 CURVE SMOOTH",
"858 738 OFFCURVE",
"828 768 OFFCURVE",
"774 768 CURVE SMOOTH",
"376 768 LINE",
"376 1188 LINE",
"1010 1188 LINE SMOOTH",
"1064 1188 OFFCURVE",
"1094 1218 OFFCURVE",
"1094 1272 CURVE SMOOTH",
"1094 1324 OFFCURVE",
"1064 1356 OFFCURVE",
"1010 1356 CURVE SMOOTH",
"292 1356 LINE SMOOTH",
"238 1356 OFFCURVE",
"208 1324 OFFCURVE",
"208 1272 CURVE SMOOTH",
"208 84 LINE SMOOTH",
"208 30 OFFCURVE",
"238 0 OFFCURVE",
"292 0 CURVE SMOOTH"
);
}
);
width = 1206;
}
);
leftKerningGroup = H;
leftMetricsKey = H;
rightKerningGroup = E;
unicode = 0045;
},
{
color = 9;
glyphname = Schwa;
lastChange = "2019-09-04 19:35:22 +0000";
layers = (
{
layerId = "C9A88445-F9B1-43BF-9834-532EB19954E9";
paths = (
{
closed = 1;
nodes = (
"806 2 LINE SMOOTH",
"1090 2 OFFCURVE",
"1212 124 OFFCURVE",
"1212 408 CURVE SMOOTH",
"1212 860 LINE SMOOTH",
"1212 1144 OFFCURVE",
"1090 1266 OFFCURVE",
"806 1266 CURVE SMOOTH",
"566 1266 LINE SMOOTH",
"282 1266 OFFCURVE",
"160 1144 OFFCURVE",
"160 860 CURVE SMOOTH",
"160 836 OFFCURVE",
"178 818 OFFCURVE",
"202 818 CURVE SMOOTH",
"226 818 OFFCURVE",
"244 836 OFFCURVE",
"244 860 CURVE SMOOTH",
"244 1096 OFFCURVE",
"330 1182 OFFCURVE",
"566 1182 CURVE SMOOTH",
"806 1182 LINE SMOOTH",
"1042 1182 OFFCURVE",
"1128 1096 OFFCURVE",
"1128 860 CURVE SMOOTH",
"1128 576 LINE",
"160 576 LINE",
"160 408 LINE SMOOTH",
"160 124 OFFCURVE",
"282 2 OFFCURVE",
"566 2 CURVE SMOOTH"
);
},
{
closed = 1;
nodes = (
"330 86 OFFCURVE",
"244 172 OFFCURVE",
"244 408 CURVE SMOOTH",
"244 492 LINE",
"1128 492 LINE",
"1128 408 LINE SMOOTH",
"1128 172 OFFCURVE",
"1042 86 OFFCURVE",
"806 86 CURVE SMOOTH",
"566 86 LINE SMOOTH"
);
}
);
width = 1372;
},
{
layerId = "9D2B49D7-8C02-48EB-8D57-D561CCF616AE";
paths = (
{
closed = 1;
nodes = (
"848 0 LINE SMOOTH",
"1154 0 OFFCURVE",
"1296 140 OFFCURVE",
"1296 448 CURVE SMOOTH",
"1296 900 LINE SMOOTH",
"1296 1206 OFFCURVE",
"1154 1348 OFFCURVE",
"848 1348 CURVE SMOOTH",
"608 1348 LINE SMOOTH",
"302 1348 OFFCURVE",
"160 1206 OFFCURVE",
"160 900 CURVE SMOOTH",
"160 852 OFFCURVE",
"198 816 OFFCURVE",
"244 816 CURVE SMOOTH",
"290 816 OFFCURVE",
"328 852 OFFCURVE",
"328 900 CURVE SMOOTH",
"328 1112 OFFCURVE",
"394 1180 OFFCURVE",
"608 1180 CURVE SMOOTH",
"848 1180 LINE SMOOTH",
"1062 1180 OFFCURVE",
"1128 1112 OFFCURVE",
"1128 900 CURVE SMOOTH",
"1128 658 LINE",
"160 658 LINE",
"160 448 LINE SMOOTH",
"160 140 OFFCURVE",
"302 0 OFFCURVE",
"608 0 CURVE SMOOTH"
);
},
{
closed = 1;
nodes = (
"394 168 OFFCURVE",
"328 234 OFFCURVE",
"328 448 CURVE SMOOTH",
"328 490 LINE",
"1128 490 LINE",
"1128 448 LINE SMOOTH",
"1128 234 OFFCURVE",
"1062 168 OFFCURVE",
"848 168 CURVE SMOOTH",
"608 168 LINE SMOOTH"
);
}
);
width = 1456;
}
);
leftKerningGroup = O;
leftMetricsKey = O;
rightKerningGroup = O;
rightMetricsKey = O;
unicode = 018F;
},
{
color = 9;
glyphname = F;
lastChange = "2019-09-04 19:35:22 +0000";
layers = (
{
anchors = (
{
name = bottom;
position = "{222, 0}";
},
{
name = top;
position = "{610, 1266}";
}
);
layerId = "C9A88445-F9B1-43BF-9834-532EB19954E9";
paths = (
{
closed = 1;
nodes = (
"250 0 OFFCURVE",
"264 14 OFFCURVE",
"264 42 CURVE SMOOTH",
"264 600 LINE",
"738 600 LINE SMOOTH",
"766 600 OFFCURVE",
"780 614 OFFCURVE",
"780 642 CURVE SMOOTH",
"780 670 OFFCURVE",
"766 684 OFFCURVE",
"738 684 CURVE SMOOTH",
"264 684 LINE",
"264 1182 LINE",
"938 1182 LINE SMOOTH",
"966 1182 OFFCURVE",
"980 1196 OFFCURVE",
"980 1224 CURVE SMOOTH",
"980 1252 OFFCURVE",
"966 1266 OFFCURVE",
"938 1266 CURVE SMOOTH",
"222 1266 LINE SMOOTH",
"194 1266 OFFCURVE",
"180 1252 OFFCURVE",
"180 1224 CURVE SMOOTH",
"180 42 LINE SMOOTH",
"180 14 OFFCURVE",
"194 0 OFFCURVE",
"222 0 CURVE SMOOTH"
);
}
);
width = 980;
},
{
anchors = (
{
name = bottom;
position = "{824, 0}";
},
{
name = top;
position = "{668, 1356}";
}
);
layerId = "9D2B49D7-8C02-48EB-8D57-D561CCF616AE";
paths = (
{
closed = 1;
nodes = (
"346 0 OFFCURVE",
"376 30 OFFCURVE",
"376 84 CURVE SMOOTH",
"376 600 LINE",
"778 600 LINE SMOOTH",
"830 600 OFFCURVE",
"862 630 OFFCURVE",
"862 684 CURVE SMOOTH",
"862 738 OFFCURVE",
"830 768 OFFCURVE",
"778 768 CURVE SMOOTH",
"376 768 LINE",
"376 1188 LINE",
"1028 1188 LINE SMOOTH",
"1080 1188 OFFCURVE",
"1112 1218 OFFCURVE",
"1112 1272 CURVE SMOOTH",
"1112 1324 OFFCURVE",
"1080 1356 OFFCURVE",
"1028 1356 CURVE SMOOTH",
"292 1356 LINE SMOOTH",
"238 1356 OFFCURVE",
"208 1324 OFFCURVE",
"208 1272 CURVE SMOOTH",
"208 84 LINE SMOOTH",
"208 30 OFFCURVE",
"238 0 OFFCURVE",
"292 0 CURVE SMOOTH"
);
}
);
width = 1112;
}
);
leftKerningGroup = H;
leftMetricsKey = H;
rightKerningGroup = F;
unicode = 0046;
},
{
color = 9;
glyphname = G;
lastChange = "2019-09-04 19:35:22 +0000";
layers = (
{
anchors = (
{
name = bottom;
position = "{666, 0}";
},
{
name = top;
position = "{666, 1266}";
}
);
layerId = "C9A88445-F9B1-43BF-9834-532EB19954E9";
paths = (
{
closed = 1;
nodes = (
"806 0 LINE SMOOTH",
"1064 0 OFFCURVE",
"1172 108 OFFCURVE",
"1172 366 CURVE SMOOTH",
"1172 544 LINE SMOOTH",
"1172 572 OFFCURVE",
"1158 586 OFFCURVE",
"1130 586 CURVE SMOOTH",
"848 588 LINE SMOOTH",
"820 588 OFFCURVE",
"806 574 OFFCURVE",
"806 546 CURVE SMOOTH",
"806 518 OFFCURVE",
"820 504 OFFCURVE",
"848 504 CURVE SMOOTH",
"1088 502 LINE",
"1088 366 LINE SMOOTH",
"1088 154 OFFCURVE",
"1018 84 OFFCURVE",
"806 84 CURVE SMOOTH",
"566 84 LINE SMOOTH",
"330 84 OFFCURVE",
"244 170 OFFCURVE",
"244 406 CURVE SMOOTH",
"244 860 LINE SMOOTH",
"244 1098 OFFCURVE",
"328 1182 OFFCURVE",
"564 1182 CURVE SMOOTH",
"806 1182 LINE SMOOTH",
"1002 1182 OFFCURVE",
"1078 1122 OFFCURVE",
"1086 942 CURVE SMOOTH",
"1088 914 OFFCURVE",
"1102 900 OFFCURVE",
"1130 900 CURVE SMOOTH",
"1158 900 OFFCURVE",
"1172 916 OFFCURVE",
"1170 944 CURVE SMOOTH",
"1160 1170 OFFCURVE",
"1050 1266 OFFCURVE",
"806 1266 CURVE SMOOTH",
"564 1266 LINE SMOOTH",
"282 1266 OFFCURVE",
"160 1146 OFFCURVE",
"160 860 CURVE SMOOTH",
"160 406 LINE SMOOTH",
"160 122 OFFCURVE",
"282 0 OFFCURVE",
"566 0 CURVE SMOOTH"
);
}
);
width = 1312;
},
{
anchors = (
{
name = bottom;
position = "{744, 0}";
},
{
name = top;
position = "{730, 1356}";
}
);
layerId = "9D2B49D7-8C02-48EB-8D57-D561CCF616AE";
paths = (
{
closed = 1;
nodes = (
"848 0 LINE SMOOTH",
"1128 0 OFFCURVE",
"1256 124 OFFCURVE",
"1256 408 CURVE SMOOTH",
"1256 586 LINE SMOOTH",
"1256 640 OFFCURVE",
"1226 670 OFFCURVE",
"1172 670 CURVE SMOOTH",
"932 672 LINE SMOOTH",
"878 672 OFFCURVE",
"848 642 OFFCURVE",
"848 588 CURVE SMOOTH",
"848 534 OFFCURVE",
"876 504 OFFCURVE",
"932 504 CURVE SMOOTH",
"1088 502 LINE",
"1088 408 LINE SMOOTH",
"1088 218 OFFCURVE",
"1034 168 OFFCURVE",
"848 168 CURVE SMOOTH",
"608 168 LINE SMOOTH",
"394 168 OFFCURVE",
"328 234 OFFCURVE",
"328 448 CURVE SMOOTH",
"328 908 LINE SMOOTH",
"328 1124 OFFCURVE",
"394 1190 OFFCURVE",
"606 1188 CURVE SMOOTH",
"848 1188 LINE SMOOTH",
"1004 1188 OFFCURVE",
"1068 1154 OFFCURVE",
"1082 1032 CURVE SMOOTH",
"1090 976 OFFCURVE",
"1116 948 OFFCURVE",
"1170 948 CURVE SMOOTH",
"1226 948 OFFCURVE",
"1258 978 OFFCURVE",
"1250 1034 CURVE SMOOTH",
"1228 1256 OFFCURVE",
"1098 1356 OFFCURVE",
"848 1356 CURVE SMOOTH",
"606 1356 LINE SMOOTH",
"302 1358 OFFCURVE",
"160 1216 OFFCURVE",
"160 908 CURVE SMOOTH",
"160 448 LINE SMOOTH",
"160 142 OFFCURVE",
"302 0 OFFCURVE",
"608 0 CURVE SMOOTH"
);
}
);
width = 1397;
}
);
leftKerningGroup = O;
leftMetricsKey = O;
rightKerningGroup = C;
rightMetricsKey = C;
unicode = 0047;
},
{
color = 9;
glyphname = H;
lastChange = "2019-09-04 19:35:22 +0000";
layers = (
{
anchors = (
{
name = bottom;
position = "{688, 0}";
},
{
name = center;
position = "{688, 922}";
},
{
name = top;
position = "{688, 1266}";
},
{
name = topleft;
position = "{180, 1266}";
}
);
layerId = "C9A88445-F9B1-43BF-9834-532EB19954E9";
paths = (
{
closed = 1;
nodes = (
"250 0 OFFCURVE",
"264 14 OFFCURVE",
"264 42 CURVE SMOOTH",
"264 600 LINE",
"1110 600 LINE",
"1110 42 LINE SMOOTH",
"1110 14 OFFCURVE",
"1124 0 OFFCURVE",
"1152 0 CURVE SMOOTH",
"1180 0 OFFCURVE",
"1194 14 OFFCURVE",
"1194 42 CURVE SMOOTH",
"1194 1224 LINE SMOOTH",
"1194 1252 OFFCURVE",
"1180 1266 OFFCURVE",
"1152 1266 CURVE SMOOTH",
"1124 1266 OFFCURVE",
"1110 1252 OFFCURVE",
"1110 1224 CURVE SMOOTH",
"1110 684 LINE",
"264 684 LINE",
"264 1224 LINE SMOOTH",
"264 1252 OFFCURVE",
"250 1266 OFFCURVE",
"222 1266 CURVE SMOOTH",
"194 1266 OFFCURVE",
"180 1252 OFFCURVE",
"180 1224 CURVE SMOOTH",
"180 42 LINE SMOOTH",
"180 14 OFFCURVE",
"194 0 OFFCURVE",
"222 0 CURVE SMOOTH"
);
}
);
width = 1374;
},
{
anchors = (
{
name = bottom;
position = "{784, 0}";
},
{
name = center;
position = "{784, 1026}";
},
{
name = top;
position = "{784, 1356}";
},
{
name = topleft;
position = "{208, 1356}";
}
);
layerId = "9D2B49D7-8C02-48EB-8D57-D561CCF616AE";
paths = (
{
closed = 1;
nodes = (
"336 0 OFFCURVE",
"376 40 OFFCURVE",
"376 84 CURVE SMOOTH",
"376 602 LINE",
"1192 602 LINE",
"1192 84 LINE SMOOTH",
"1192 40 OFFCURVE",
"1230 0 OFFCURVE",
"1276 0 CURVE SMOOTH",
"1320 0 OFFCURVE",
"1360 40 OFFCURVE",
"1360 84 CURVE SMOOTH",
"1360 1272 LINE SMOOTH",
"1360 1316 OFFCURVE",
"1320 1356 OFFCURVE",
"1276 1356 CURVE SMOOTH",
"1230 1356 OFFCURVE",
"1192 1316 OFFCURVE",
"1192 1272 CURVE SMOOTH",
"1192 770 LINE",
"376 770 LINE",
"376 1272 LINE SMOOTH",
"376 1316 OFFCURVE",
"336 1356 OFFCURVE",
"292 1356 CURVE SMOOTH",
"248 1356 OFFCURVE",
"208 1316 OFFCURVE",
"208 1272 CURVE SMOOTH",
"208 84 LINE SMOOTH",
"208 40 OFFCURVE",
"248 0 OFFCURVE",
"292 0 CURVE SMOOTH"
);
}
);
width = 1568;
}
);
leftKerningGroup = H;
rightKerningGroup = H;
unicode = 0048;
},
{
color = 9;
glyphname = I;
lastChange = "2019-09-04 19:35:22 +0000";
layers = (
{
anchors = (
{
name = bottom;
position = "{222, 0}";
},
{
name = ogonek;
position = "{222, 0}";
},
{
name = top;
position = "{222, 1266}";
},
{
name = topleft;
position = "{180, 1266}";
}
);
layerId = "C9A88445-F9B1-43BF-9834-532EB19954E9";
paths = (
{
closed = 1;
nodes = (
"246 0 OFFCURVE",
"264 18 OFFCURVE",
"264 42 CURVE SMOOTH",
"264 1226 LINE SMOOTH",
"264 1250 OFFCURVE",
"246 1268 OFFCURVE",
"222 1268 CURVE SMOOTH",
"198 1268 OFFCURVE",
"180 1250 OFFCURVE",
"180 1226 CURVE SMOOTH",
"180 42 LINE SMOOTH",
"180 18 OFFCURVE",
"198 0 OFFCURVE",
"222 0 CURVE SMOOTH"
);
}
);
width = 444;
},
{
anchors = (
{
name = bottom;
position = "{292, 0}";
},
{
name = ogonek;
position = "{236, 14}";
},
{
name = top;
position = "{292, 1356}";
},
{
name = topleft;
position = "{208, 1356}";
}
);
layerId = "9D2B49D7-8C02-48EB-8D57-D561CCF616AE";
paths = (
{
closed = 1;
nodes = (
"350 0 OFFCURVE",
"376 26 OFFCURVE",
"376 84 CURVE SMOOTH",
"376 1270 LINE SMOOTH",
"376 1328 OFFCURVE",
"350 1354 OFFCURVE",
"292 1354 CURVE SMOOTH",
"234 1354 OFFCURVE",
"208 1328 OFFCURVE",
"208 1270 CURVE SMOOTH",
"208 84 LINE SMOOTH",
"208 26 OFFCURVE",
"234 0 OFFCURVE",
"292 0 CURVE SMOOTH"
);
}
);
width = 584;
}
);
leftKerningGroup = H;
leftMetricsKey = H;
rightKerningGroup = H;
rightMetricsKey = H;
unicode = 0049;
},
{
color = 9;
glyphname = Iacute_J.loclNLD;
lastChange = "2019-09-04 19:35:22 +0000";
layers = (
{
layerId = "C9A88445-F9B1-43BF-9834-532EB19954E9";
paths = (
{
closed = 1;
nodes = (
"599 0 LINE SMOOTH",
"857 0 OFFCURVE",
"965 108 OFFCURVE",
"965 366 CURVE SMOOTH",
"965 1224 LINE SMOOTH",
"965 1252 OFFCURVE",
"951 1266 OFFCURVE",
"923 1266 CURVE SMOOTH",
"895 1266 OFFCURVE",
"881 1252 OFFCURVE",
"881 1224 CURVE SMOOTH",
"881 366 LINE SMOOTH",
"881 154 OFFCURVE",
"811 84 OFFCURVE",
"599 84 CURVE SMOOTH",
"545 84 LINE SMOOTH",
"349 84 OFFCURVE",
"273 144 OFFCURVE",
"265 324 CURVE SMOOTH",
"263 352 OFFCURVE",
"249 366 OFFCURVE",
"221 366 CURVE SMOOTH",
"193 366 OFFCURVE",
"179 350 OFFCURVE",
"181 322 CURVE SMOOTH",
"191 96 OFFCURVE",
"301 0 OFFCURVE",
"545 0 CURVE SMOOTH"
);
},
{
closed = 1;
nodes = (
"249 498 OFFCURVE",
"267 516 OFFCURVE",
"267 540 CURVE SMOOTH",
"267 1226 LINE SMOOTH",
"267 1250 OFFCURVE",
"249 1268 OFFCURVE",
"225 1268 CURVE SMOOTH",
"201 1268 OFFCURVE",
"183 1250 OFFCURVE",
"183 1226 CURVE SMOOTH",
"183 540 LINE SMOOTH",
"183 516 OFFCURVE",
"201 498 OFFCURVE",
"225 498 CURVE SMOOTH"
);
},
{
closed = 1;
nodes = (
"217 1372 OFFCURVE",
"239 1374 OFFCURVE",
"257 1396 CURVE SMOOTH",
"437 1608 LINE SMOOTH",
"453 1630 OFFCURVE",
"451 1650 OFFCURVE",
"431 1668 CURVE SMOOTH",
"411 1686 OFFCURVE",
"389 1684 OFFCURVE",
"371 1662 CURVE SMOOTH",
"191 1450 LINE SMOOTH",
"175 1428 OFFCURVE",
"177 1408 OFFCURVE",
"197 1390 CURVE SMOOTH"
);
},
{
closed = 1;
nodes = (
"919 1372 OFFCURVE",
"941 1374 OFFCURVE",
"959 1396 CURVE SMOOTH",
"1139 1608 LINE SMOOTH",
"1155 1630 OFFCURVE",
"1153 1650 OFFCURVE",
"1133 1668 CURVE SMOOTH",
"1113 1686 OFFCURVE",
"1091 1684 OFFCURVE",
"1073 1662 CURVE SMOOTH",
"893 1450 LINE SMOOTH",
"877 1428 OFFCURVE",
"879 1408 OFFCURVE",
"899 1390 CURVE SMOOTH"
);
}
);
width = 1189;
},
{
layerId = "9D2B49D7-8C02-48EB-8D57-D561CCF616AE";
paths = (
{
closed = 1;
nodes = (
"782 0 LINE SMOOTH",
"1064 0 OFFCURVE",
"1190 124 OFFCURVE",
"1190 408 CURVE SMOOTH",
"1190 1272 LINE SMOOTH",
"1190 1324 OFFCURVE",
"1160 1356 OFFCURVE",
"1106 1356 CURVE SMOOTH",
"1050 1356 OFFCURVE",
"1022 1324 OFFCURVE",
"1022 1272 CURVE SMOOTH",
"1022 408 LINE SMOOTH",
"1022 218 OFFCURVE",
"970 168 OFFCURVE",
"782 168 CURVE SMOOTH",
"616 168 LINE SMOOTH",
"460 168 OFFCURVE",
"398 202 OFFCURVE",
"378 324 CURVE SMOOTH",
"374 380 OFFCURVE",
"346 408 OFFCURVE",
"292 408 CURVE SMOOTH",
"240 408 OFFCURVE",
"206 378 OFFCURVE",
"210 322 CURVE SMOOTH",
"238 98 OFFCURVE",
"364 0 OFFCURVE",
"616 0 CURVE SMOOTH"
);
},
{
closed = 1;
nodes = (
"348 496 OFFCURVE",
"376 522 OFFCURVE",
"376 580 CURVE SMOOTH",
"376 1270 LINE SMOOTH",
"376 1328 OFFCURVE",
"348 1354 OFFCURVE",
"292 1354 CURVE SMOOTH",
"234 1354 OFFCURVE",
"208 1328 OFFCURVE",
"208 1270 CURVE SMOOTH",
"208 580 LINE SMOOTH",
"208 522 OFFCURVE",
"234 496 OFFCURVE",
"292 496 CURVE SMOOTH"
);
},
{
closed = 1;
nodes = (
"292 1414 OFFCURVE",
"328 1416 OFFCURVE",
"356 1452 CURVE SMOOTH",
"504 1628 LINE SMOOTH",
"534 1664 OFFCURVE",
"532 1700 OFFCURVE",
"494 1730 CURVE SMOOTH",
"458 1758 OFFCURVE",
"422 1756 OFFCURVE",
"392 1720 CURVE SMOOTH",
"246 1546 LINE SMOOTH",
"216 1510 OFFCURVE",
"218 1472 OFFCURVE",
"254 1444 CURVE SMOOTH"
);
},
{
closed = 1;
nodes = (
"1130 1414 OFFCURVE",
"1166 1416 OFFCURVE",
"1196 1452 CURVE SMOOTH",
"1342 1628 LINE SMOOTH",
"1372 1664 OFFCURVE",
"1370 1700 OFFCURVE",
"1334 1730 CURVE SMOOTH",
"1296 1758 OFFCURVE",
"1260 1756 OFFCURVE",
"1232 1720 CURVE SMOOTH",
"1086 1546 LINE SMOOTH",
"1056 1510 OFFCURVE",
"1058 1472 OFFCURVE",
"1094 1444 CURVE SMOOTH"
);
}
);
width = 1326;
}
);
leftKerningGroup = H;
leftMetricsKey = H;
rightKerningGroup = U;
},
{
color = 9;
glyphname = J;
lastChange = "2019-09-04 19:35:22 +0000";
layers = (
{
anchors = (
{
name = bottom;
position = "{438, 0}";
},
{
name = top;
position = "{782, 1266}";
}
);
layerId = "C9A88445-F9B1-43BF-9834-532EB19954E9";
paths = (
{
closed = 1;
nodes = (
"462 0 LINE SMOOTH",
"720 0 OFFCURVE",
"828 108 OFFCURVE",
"828 366 CURVE SMOOTH",
"828 1224 LINE SMOOTH",
"828 1252 OFFCURVE",
"814 1266 OFFCURVE",
"786 1266 CURVE SMOOTH",
"758 1266 OFFCURVE",
"744 1252 OFFCURVE",
"744 1224 CURVE SMOOTH",
"744 366 LINE SMOOTH",
"744 154 OFFCURVE",
"674 84 OFFCURVE",
"462 84 CURVE SMOOTH",
"408 84 LINE SMOOTH",
"212 84 OFFCURVE",
"136 144 OFFCURVE",
"128 324 CURVE SMOOTH",
"126 352 OFFCURVE",
"112 366 OFFCURVE",
"84 366 CURVE SMOOTH",
"56 366 OFFCURVE",
"42 350 OFFCURVE",
"44 322 CURVE SMOOTH",
"54 96 OFFCURVE",
"164 0 OFFCURVE",
"408 0 CURVE SMOOTH"
);
}
);
width = 998;
},
{
anchors = (
{
name = bottom;
position = "{566, 0}";
},
{
name = top;
position = "{962, 1356}";
}
);
layerId = "9D2B49D7-8C02-48EB-8D57-D561CCF616AE";
paths = (
{
closed = 1;
nodes = (
"638 0 LINE SMOOTH",
"918 0 OFFCURVE",
"1046 126 OFFCURVE",
"1046 408 CURVE SMOOTH",
"1046 1272 LINE SMOOTH",
"1046 1326 OFFCURVE",
"1016 1356 OFFCURVE",
"962 1356 CURVE SMOOTH",
"906 1356 OFFCURVE",
"878 1326 OFFCURVE",
"878 1272 CURVE SMOOTH",
"878 408 LINE SMOOTH",
"878 220 OFFCURVE",
"824 168 OFFCURVE",
"638 168 CURVE SMOOTH",
"472 168 LINE SMOOTH",
"314 168 OFFCURVE",
"252 202 OFFCURVE",
"236 324 CURVE SMOOTH",
"230 380 OFFCURVE",
"204 408 OFFCURVE",
"150 408 CURVE SMOOTH",
"94 408 OFFCURVE",
"62 376 OFFCURVE",
"68 320 CURVE SMOOTH",
"92 100 OFFCURVE",
"222 0 OFFCURVE",
"472 0 CURVE SMOOTH"
);
}
);
width = 1244;
}
);
leftKerningGroup = J;
rightKerningGroup = U;
rightMetricsKey = U;
unicode = 004A;
},
{
color = 9;
glyphname = K;
lastChange = "2019-09-04 19:35:22 +0000";
layers = (
{
anchors = (
{
name = bottom;
position = "{546, 0}";
},
{
name = top;
position = "{526, 1266}";
}
);
layerId = "C9A88445-F9B1-43BF-9834-532EB19954E9";
paths = (
{
closed = 1;
nodes = (
"250 0 OFFCURVE",
"264 14 OFFCURVE",
"264 42 CURVE SMOOTH",
"264 494 LINE",
"432 666 LINE",
"962 8 LINE SMOOTH",
"978 -12 OFFCURVE",
"998 -16 OFFCURVE",
"1020 2 CURVE SMOOTH",
"1042 20 OFFCURVE",
"1044 40 OFFCURVE",
"1026 62 CURVE SMOOTH",
"490 726 LINE",
"946 1192 LINE SMOOTH",
"964 1212 OFFCURVE",
"964 1234 OFFCURVE",
"944 1252 CURVE SMOOTH",
"924 1272 OFFCURVE",
"904 1270 OFFCURVE",
"886 1252 CURVE SMOOTH",
"264 615 LINE",
"264 1224 LINE SMOOTH",
"264 1252 OFFCURVE",
"250 1266 OFFCURVE",
"222 1266 CURVE SMOOTH",
"194 1266 OFFCURVE",
"180 1252 OFFCURVE",
"180 1224 CURVE SMOOTH",
"180 42 LINE SMOOTH",
"180 14 OFFCURVE",
"194 0 OFFCURVE",
"222 0 CURVE SMOOTH"
);
}
);
width = 1078;
},
{
anchors = (
{
name = bottom;
position = "{586, 0}";
},
{
name = top;
position = "{594, 1356}";
}
);
layerId = "9D2B49D7-8C02-48EB-8D57-D561CCF616AE";
paths = (
{
closed = 1;
nodes = (
"346 0 OFFCURVE",
"376 30 OFFCURVE",
"376 84 CURVE SMOOTH",
"376 556 LINE",
"463 646 LINE",
"952 40 LINE SMOOTH",
"986 -2 OFFCURVE",
"1028 -6 OFFCURVE",
"1070 28 CURVE SMOOTH",
"1112 62 OFFCURVE",
"1116 102 OFFCURVE",
"1082 146 CURVE SMOOTH",
"581 769 LINE",
"1006 1208 LINE SMOOTH",
"1044 1246 OFFCURVE",
"1044 1288 OFFCURVE",
"1004 1326 CURVE SMOOTH",
"966 1364 OFFCURVE",
"924 1364 OFFCURVE",
"886 1324 CURVE SMOOTH",
"376 797 LINE",
"376 1272 LINE SMOOTH",
"376 1326 OFFCURVE",
"346 1356 OFFCURVE",
"292 1356 CURVE SMOOTH",
"238 1356 OFFCURVE",
"208 1326 OFFCURVE",
"208 1272 CURVE SMOOTH",
"208 84 LINE SMOOTH",
"208 30 OFFCURVE",
"238 0 OFFCURVE",
"292 0 CURVE SMOOTH"
);
}
);
width = 1174;
}
);
leftKerningGroup = H;
leftMetricsKey = H;
rightKerningGroup = K;
unicode = 004B;
},
{
color = 9;
glyphname = L;
lastChange = "2019-09-04 19:35:22 +0000";
layers = (
{
anchors = (
{
name = bottom;
position = "{548, 0}";
},
{
name = center;
position = "{272, 634}";
},
{
name = top;
position = "{222, 1266}";
},
{
name = topright;
position = "{424, 832}";
}
);
layerId = "C9A88445-F9B1-43BF-9834-532EB19954E9";
paths = (
{
closed = 1;
nodes = (
"890 0 LINE SMOOTH",
"918 0 OFFCURVE",
"932 14 OFFCURVE",
"932 42 CURVE SMOOTH",
"932 70 OFFCURVE",
"918 84 OFFCURVE",
"890 84 CURVE SMOOTH",
"264 84 LINE",
"264 1224 LINE SMOOTH",
"264 1252 OFFCURVE",
"250 1266 OFFCURVE",
"222 1266 CURVE SMOOTH",
"194 1266 OFFCURVE",
"180 1252 OFFCURVE",
"180 1224 CURVE SMOOTH",
"180 42 LINE SMOOTH",
"180 14 OFFCURVE",
"194 0 OFFCURVE",
"222 0 CURVE SMOOTH"
);
}
);
width = 972;
},
{
anchors = (
{
name = bottom;
position = "{644, 0}";
},
{
name = center;
position = "{316, 628}";
},
{
name = top;
position = "{292, 1356}";
},
{
name = topright;
position = "{480, 908}";
}
);
layerId = "9D2B49D7-8C02-48EB-8D57-D561CCF616AE";
paths = (
{
closed = 1;
nodes = (
"930 0 LINE SMOOTH",
"986 0 OFFCURVE",
"1014 28 OFFCURVE",
"1014 84 CURVE SMOOTH",
"1014 140 OFFCURVE",
"986 168 OFFCURVE",
"930 168 CURVE SMOOTH",
"376 168 LINE",
"376 1272 LINE SMOOTH",
"376 1328 OFFCURVE",
"348 1356 OFFCURVE",
"292 1356 CURVE SMOOTH",
"236 1356 OFFCURVE",
"208 1328 OFFCURVE",
"208 1272 CURVE SMOOTH",
"208 84 LINE SMOOTH",
"208 28 OFFCURVE",
"236 0 OFFCURVE",
"292 0 CURVE SMOOTH"
);
}
);
width = 1082;
}
);
leftKerningGroup = H;
leftMetricsKey = H;
rightKerningGroup = L;
unicode = 004C;
},
{
color = 9;
glyphname = M;
lastChange = "2019-09-04 19:35:22 +0000";
layers = (
{
anchors = (
{
name = bottom;
position = "{768, 0}";
},
{
name = top;
position = "{768, 1266}";
}
);
layerId = "C9A88445-F9B1-43BF-9834-532EB19954E9";
paths = (
{
closed = 1;
nodes = (
"250 0 OFFCURVE",
"264 14 OFFCURVE",
"264 42 CURVE SMOOTH",
"264 1122 LINE",
"242 1132 LINE",
"718 400 LINE SMOOTH",
"730 380 OFFCURVE",
"746 372 OFFCURVE",
"768 372 CURVE SMOOTH",
"790 372 OFFCURVE",
"806 380 OFFCURVE",
"818 400 CURVE SMOOTH",
"1294 1132 LINE",
"1270 1140 LINE",
"1270 42 LINE SMOOTH",
"1270 14 OFFCURVE",
"1284 0 OFFCURVE",
"1312 0 CURVE SMOOTH",
"1340 0 OFFCURVE",
"1354 14 OFFCURVE",
"1354 42 CURVE SMOOTH",
"1354 1224 LINE SMOOTH",
"1354 1252 OFFCURVE",
"1340 1266 OFFCURVE",
"1314 1266 CURVE SMOOTH",
"1292 1266 OFFCURVE",
"1276 1258 OFFCURVE",
"1264 1238 CURVE SMOOTH",
"758 458 LINE",
"778 460 LINE",
"272 1238 LINE SMOOTH",
"260 1258 OFFCURVE",
"244 1266 OFFCURVE",
"222 1266 CURVE SMOOTH",
"194 1266 OFFCURVE",
"180 1252 OFFCURVE",
"180 1224 CURVE SMOOTH",
"180 42 LINE SMOOTH",
"180 14 OFFCURVE",
"194 0 OFFCURVE",
"222 0 CURVE SMOOTH"
);
}
);
width = 1534;
},
{
anchors = (
{
name = bottom;
position = "{844, 0}";
},
{
name = top;
position = "{844, 1356}";
}
);
layerId = "9D2B49D7-8C02-48EB-8D57-D561CCF616AE";
paths = (
{
closed = 1;
nodes = (
"346 0 OFFCURVE",
"376 30 OFFCURVE",
"376 84 CURVE SMOOTH",
"376 1072 LINE",
"326 1086 LINE",
"746 468 LINE SMOOTH",
"772 430 OFFCURVE",
"796 414 OFFCURVE",
"828 414 CURVE SMOOTH",
"874 414 OFFCURVE",
"904 430 OFFCURVE",
"930 468 CURVE SMOOTH",
"1350 1086 LINE",
"1298 1104 LINE",
"1298 84 LINE SMOOTH",
"1298 30 OFFCURVE",
"1328 0 OFFCURVE",
"1382 0 CURVE SMOOTH",
"1436 0 OFFCURVE",
"1466 30 OFFCURVE",
"1466 84 CURVE SMOOTH",
"1466 1272 LINE SMOOTH",
"1466 1326 OFFCURVE",
"1444 1356 OFFCURVE",
"1398 1356 CURVE SMOOTH",
"1352 1356 OFFCURVE",
"1320 1340 OFFCURVE",
"1296 1302 CURVE SMOOTH",
"820 586 LINE",
"856 592 LINE",
"384 1302 LINE SMOOTH",
"358 1340 OFFCURVE",
"330 1356 OFFCURVE",
"292 1356 CURVE SMOOTH",
"238 1356 OFFCURVE",
"208 1326 OFFCURVE",
"208 1272 CURVE SMOOTH",
"208 84 LINE SMOOTH",
"208 30 OFFCURVE",
"238 0 OFFCURVE",
"292 0 CURVE SMOOTH"
);
}
);
width = 1674;
}
);
leftKerningGroup = H;
leftMetricsKey = H;
rightKerningGroup = H;
rightMetricsKey = H;
unicode = 004D;
},
{
color = 9;
glyphname = N;
lastChange = "2019-09-04 19:35:22 +0000";
layers = (
{
anchors = (
{
name = bottom;
position = "{706, 0}";
},
{
name = top;
position = "{706, 1266}";
}
);
layerId = "C9A88445-F9B1-43BF-9834-532EB19954E9";
paths = (
{
closed = 1;
nodes = (
"250 0 OFFCURVE",
"264 14 OFFCURVE",
"264 42 CURVE SMOOTH",
"264 1130 LINE",
"246 1130 LINE",
"1108 24 LINE SMOOTH",
"1122 8 OFFCURVE",
"1134 0 OFFCURVE",
"1152 0 CURVE SMOOTH",
"1180 0 OFFCURVE",
"1194 14 OFFCURVE",
"1194 42 CURVE SMOOTH",
"1194 1224 LINE SMOOTH",
"1194 1252 OFFCURVE",
"1180 1266 OFFCURVE",
"1152 1266 CURVE SMOOTH",
"1124 1266 OFFCURVE",
"1110 1252 OFFCURVE",
"1110 1224 CURVE SMOOTH",
"1110 136 LINE",
"1128 136 LINE",
"266 1242 LINE SMOOTH",
"252 1258 OFFCURVE",
"240 1266 OFFCURVE",
"222 1266 CURVE SMOOTH",
"194 1266 OFFCURVE",
"180 1252 OFFCURVE",
"180 1224 CURVE SMOOTH",
"180 42 LINE SMOOTH",
"180 14 OFFCURVE",
"194 0 OFFCURVE",
"222 0 CURVE SMOOTH"
);
}
);
width = 1374;
},
{
anchors = (
{
name = bottom;
position = "{750, 0}";
},
{
name = top;
position = "{750, 1356}";
}
);
layerId = "9D2B49D7-8C02-48EB-8D57-D561CCF616AE";
paths = (
{
closed = 1;
nodes = (
"346 0 OFFCURVE",
"376 30 OFFCURVE",
"376 84 CURVE SMOOTH",
"376 1086 LINE",
"334 1086 LINE",
"1138 50 LINE SMOOTH",
"1166 14 OFFCURVE",
"1190 0 OFFCURVE",
"1222 0 CURVE SMOOTH",
"1276 0 OFFCURVE",
"1306 30 OFFCURVE",
"1306 84 CURVE SMOOTH",
"1306 1272 LINE SMOOTH",
"1306 1326 OFFCURVE",
"1276 1356 OFFCURVE",
"1222 1356 CURVE SMOOTH",
"1168 1356 OFFCURVE",
"1138 1326 OFFCURVE",
"1138 1272 CURVE SMOOTH",
"1138 270 LINE",
"1180 270 LINE",
"376 1306 LINE SMOOTH",
"348 1340 OFFCURVE",
"324 1356 OFFCURVE",
"292 1356 CURVE SMOOTH",
"238 1356 OFFCURVE",
"208 1326 OFFCURVE",
"208 1272 CURVE SMOOTH",
"208 84 LINE SMOOTH",
"208 30 OFFCURVE",
"238 0 OFFCURVE",
"292 0 CURVE SMOOTH"
);
}
);
width = 1514;
}
);
leftKerningGroup = H;
leftMetricsKey = H;
rightKerningGroup = H;
rightMetricsKey = H;
unicode = 004E;
},
{
color = 9;
glyphname = Eng;
lastChange = "2019-09-04 19:35:22 +0000";
layers = (
{
anchors = (
{
name = bottom;
position = "{706, 0}";
},
{
name = top;
position = "{706, 1266}";
}
);
layerId = "C9A88445-F9B1-43BF-9834-532EB19954E9";
paths = (
{
closed = 1;
nodes = (
"948 -400 LINE SMOOTH",
"1118 -400 OFFCURVE",
"1194 -324 OFFCURVE",
"1194 -154 CURVE SMOOTH",
"1194 1224 LINE SMOOTH",
"1194 1252 OFFCURVE",
"1180 1266 OFFCURVE",
"1152 1266 CURVE SMOOTH",
"1124 1266 OFFCURVE",
"1110 1252 OFFCURVE",
"1110 1224 CURVE SMOOTH",
"1110 159 LINE",
"266 1242 LINE",
"252 1258 OFFCURVE",
"240 1266 OFFCURVE",
"222 1266 CURVE SMOOTH",
"194 1266 OFFCURVE",
"180 1252 OFFCURVE",
"180 1224 CURVE SMOOTH",
"180 42 LINE SMOOTH",
"180 14 OFFCURVE",
"194 0 OFFCURVE",
"222 0 CURVE SMOOTH",
"250 0 OFFCURVE",
"264 14 OFFCURVE",
"264 42 CURVE SMOOTH",
"264 1107 LINE",
"1110 22 LINE",
"1110 -154 LINE SMOOTH",
"1110 -278 OFFCURVE",
"1072 -316 OFFCURVE",
"948 -316 CURVE SMOOTH",
"730 -316 LINE SMOOTH",
"622 -316 OFFCURVE",
"577 -288 OFFCURVE",
"570 -196 CURVE SMOOTH",
"568 -168 OFFCURVE",
"554 -154 OFFCURVE",
"526 -154 CURVE SMOOTH",
"500 -154 OFFCURVE",
"484 -170 OFFCURVE",
"486 -198 CURVE SMOOTH",
"496 -338 OFFCURVE",
"574 -400 OFFCURVE",
"730 -400 CURVE SMOOTH"
);
}
);
width = 1374;
},
{
anchors = (
{
name = bottom;
position = "{750, 0}";
},
{
name = top;
position = "{750, 1356}";
}
);
layerId = "9D2B49D7-8C02-48EB-8D57-D561CCF616AE";
paths = (
{
closed = 1;
nodes = (
"1018 -400 LINE SMOOTH",
"1214 -400 OFFCURVE",
"1306 -308 OFFCURVE",
"1306 -112 CURVE SMOOTH",
"1306 1272 LINE SMOOTH",
"1306 1326 OFFCURVE",
"1276 1356 OFFCURVE",
"1222 1356 CURVE SMOOTH",
"1168 1356 OFFCURVE",
"1138 1326 OFFCURVE",
"1138 1272 CURVE SMOOTH",
"1138 324 LINE",
"376 1306 LINE SMOOTH",
"349 1341 OFFCURVE",
"324 1356 OFFCURVE",
"292 1356 CURVE SMOOTH",
"238 1356 OFFCURVE",
"208 1326 OFFCURVE",
"208 1272 CURVE SMOOTH",
"208 84 LINE SMOOTH",
"208 30 OFFCURVE",
"238 0 OFFCURVE",
"292 0 CURVE SMOOTH",
"346 0 OFFCURVE",
"376 30 OFFCURVE",
"376 84 CURVE SMOOTH",
"376 1032 LINE",
"1138 50 LINE",
"1138 -112 LINE SMOOTH",
"1138 -210 OFFCURVE",
"1116 -232 OFFCURVE",
"1018 -232 CURVE SMOOTH",
"780 -232 LINE SMOOTH",
"714 -232 OFFCURVE",
"686 -224 OFFCURVE",
"668 -194 CURVE SMOOTH",
"639 -145 OFFCURVE",
"632 -112 OFFCURVE",
"582 -112 CURVE SMOOTH",
"522 -112 OFFCURVE",
"490 -144 OFFCURVE",
"500 -200 CURVE SMOOTH",
"524 -336 OFFCURVE",
"618 -400 OFFCURVE",
"780 -400 CURVE SMOOTH"
);
}
);
width = 1514;
}
);
leftKerningGroup = H;
leftMetricsKey = N;
rightKerningGroup = H;
rightMetricsKey = N;
unicode = 014A;
},
{
color = 9;
glyphname = O;
lastChange = "2019-09-04 19:35:22 +0000";
layers = (
{
anchors = (
{
name = bottom;
position = "{686, 0}";
},
{
name = center;
position = "{686, 634}";
},
{
name = ogonek;
position = "{1016, 40}";
},
{
name = top;
position = "{686, 1266}";
},
{
name = topleft;
position = "{160, 1266}";
},
{
name = topright;
position = "{1066, 1208}";
}
);
layerId = "C9A88445-F9B1-43BF-9834-532EB19954E9";
paths = (
{
closed = 1;
nodes = (
"806 0 LINE SMOOTH",
"1090 0 OFFCURVE",
"1212 122 OFFCURVE",
"1212 406 CURVE SMOOTH",
"1212 860 LINE SMOOTH",
"1212 1144 OFFCURVE",
"1090 1266 OFFCURVE",
"806 1266 CURVE SMOOTH",
"564 1266 LINE SMOOTH",
"282 1268 OFFCURVE",
"160 1146 OFFCURVE",
"160 860 CURVE SMOOTH",
"160 406 LINE SMOOTH",
"160 122 OFFCURVE",
"282 0 OFFCURVE",
"566 0 CURVE SMOOTH"
);
},
{
closed = 1;
nodes = (
"330 84 OFFCURVE",
"244 170 OFFCURVE",
"244 406 CURVE SMOOTH",
"244 860 LINE SMOOTH",
"244 1098 OFFCURVE",
"328 1184 OFFCURVE",
"564 1182 CURVE SMOOTH",
"806 1182 LINE SMOOTH",
"1042 1182 OFFCURVE",
"1128 1096 OFFCURVE",
"1128 860 CURVE SMOOTH",
"1128 406 LINE SMOOTH",
"1128 170 OFFCURVE",
"1042 84 OFFCURVE",
"806 84 CURVE SMOOTH",
"566 84 LINE SMOOTH"
);
}
);
width = 1372;
},
{
anchors = (
{
name = bottom;
position = "{706, 0}";
},
{
name = center;
position = "{706, 678}";
},
{
name = ogonek;
position = "{944, 40}";
},
{
name = top;
position = "{728, 1356}";
},
{
name = topleft;
position = "{160, 1356}";
},
{
name = topright;
position = "{1150, 1222}";
}
);
layerId = "9D2B49D7-8C02-48EB-8D57-D561CCF616AE";
paths = (
{
closed = 1;
nodes = (
"848 0 LINE SMOOTH",
"1154 0 OFFCURVE",
"1296 142 OFFCURVE",
"1296 448 CURVE SMOOTH",
"1296 908 LINE SMOOTH",
"1296 1214 OFFCURVE",
"1154 1356 OFFCURVE",
"848 1356 CURVE SMOOTH",
"608 1356 LINE SMOOTH",
"304 1358 OFFCURVE",
"160 1218 OFFCURVE",
"160 910 CURVE SMOOTH",
"160 448 LINE SMOOTH",
"160 142 OFFCURVE",
"302 0 OFFCURVE",
"608 0 CURVE SMOOTH"
);
},
{
closed = 1;
nodes = (
"394 168 OFFCURVE",
"328 234 OFFCURVE",
"328 448 CURVE SMOOTH",
"328 910 LINE SMOOTH",
"328 1124 OFFCURVE",
"396 1190 OFFCURVE",
"608 1188 CURVE SMOOTH",
"848 1188 LINE SMOOTH",
"1062 1188 OFFCURVE",
"1128 1120 OFFCURVE",
"1128 908 CURVE SMOOTH",
"1128 448 LINE SMOOTH",
"1128 234 OFFCURVE",
"1062 168 OFFCURVE",
"848 168 CURVE SMOOTH",
"608 168 LINE SMOOTH"
);
}
);
width = 1456;
}
);
leftKerningGroup = O;
rightKerningGroup = O;
unicode = 004F;
},
{
color = 9;
glyphname = OE;
lastChange = "2019-09-04 19:35:22 +0000";
layers = (
{
layerId = "C9A88445-F9B1-43BF-9834-532EB19954E9";
paths = (
{
closed = 1;
nodes = (
"1504 0 LINE SMOOTH",
"1532 0 OFFCURVE",
"1546 14 OFFCURVE",
"1546 42 CURVE SMOOTH",
"1546 70 OFFCURVE",
"1532 84 OFFCURVE",
"1504 84 CURVE SMOOTH",
"926 84 LINE",
"926 600 LINE",
"1268 600 LINE SMOOTH",
"1296 600 OFFCURVE",
"1310 614 OFFCURVE",
"1310 642 CURVE SMOOTH",
"1310 670 OFFCURVE",
"1296 684 OFFCURVE",
"1268 684 CURVE SMOOTH",
"926 684 LINE",
"926 1182 LINE",
"1504 1182 LINE SMOOTH",
"1532 1182 OFFCURVE",
"1546 1196 OFFCURVE",
"1546 1224 CURVE SMOOTH",
"1546 1252 OFFCURVE",
"1532 1266 OFFCURVE",
"1504 1266 CURVE SMOOTH",
"564 1266 LINE SMOOTH",
"282 1266 OFFCURVE",
"160 1146 OFFCURVE",
"160 860 CURVE SMOOTH",
"160 406 LINE SMOOTH",
"160 122 OFFCURVE",
"282 0 OFFCURVE",
"566 0 CURVE SMOOTH"
);
},
{
closed = 1;
nodes = (
"330 84 OFFCURVE",
"244 170 OFFCURVE",
"244 406 CURVE SMOOTH",
"244 860 LINE SMOOTH",
"244 1098 OFFCURVE",
"328 1182 OFFCURVE",
"564 1182 CURVE SMOOTH",
"842 1182 LINE",
"842 84 LINE",
"566 84 LINE SMOOTH"
);
}
);
width = 1616;
},
{
layerId = "9D2B49D7-8C02-48EB-8D57-D561CCF616AE";
paths = (
{
closed = 1;
nodes = (
"1586 0 LINE SMOOTH",
"1638 0 OFFCURVE",
"1670 30 OFFCURVE",
"1670 84 CURVE SMOOTH",
"1670 138 OFFCURVE",
"1638 168 OFFCURVE",
"1586 168 CURVE SMOOTH",
"1008 168 LINE",
"1008 600 LINE",
"1350 600 LINE SMOOTH",
"1402 600 OFFCURVE",
"1434 630 OFFCURVE",
"1434 684 CURVE SMOOTH",
"1434 738 OFFCURVE",
"1402 768 OFFCURVE",
"1350 768 CURVE SMOOTH",
"1008 768 LINE",
"1008 1188 LINE",
"1586 1188 LINE SMOOTH",
"1638 1188 OFFCURVE",
"1670 1218 OFFCURVE",
"1670 1272 CURVE SMOOTH",
"1670 1324 OFFCURVE",
"1638 1356 OFFCURVE",
"1586 1356 CURVE SMOOTH",
"608 1356 LINE SMOOTH",
"304 1356 OFFCURVE",
"160 1218 OFFCURVE",
"160 910 CURVE SMOOTH",
"160 448 LINE SMOOTH",
"160 142 OFFCURVE",
"302 0 OFFCURVE",
"608 0 CURVE SMOOTH"
);
},
{
closed = 1;
nodes = (
"394 168 OFFCURVE",
"328 234 OFFCURVE",
"328 448 CURVE SMOOTH",
"328 910 LINE SMOOTH",
"328 1124 OFFCURVE",
"396 1188 OFFCURVE",
"608 1188 CURVE SMOOTH",
"840 1188 LINE",
"840 168 LINE",
"608 168 LINE SMOOTH"
);
}
);
width = 1782;
}
);
leftKerningGroup = O;
leftMetricsKey = O;
rightKerningGroup = E;
rightMetricsKey = E;
unicode = 0152;
},
{
color = 9;
glyphname = P;
lastChange = "2019-09-04 19:35:22 +0000";
layers = (
{
anchors = (
{
name = bottom;
position = "{220, 0}";
},
{
name = top;
position = "{540, 1266}";
}
);
layerId = "C9A88445-F9B1-43BF-9834-532EB19954E9";
paths = (
{
closed = 1;
nodes = (
"250 0 OFFCURVE",
"264 14 OFFCURVE",
"264 42 CURVE SMOOTH",
"264 534 LINE",
"690 534 LINE SMOOTH",
"912 534 OFFCURVE",
"1026 648 OFFCURVE",
"1026 870 CURVE SMOOTH",
"1026 930 LINE SMOOTH",
"1026 1152 OFFCURVE",
"912 1266 OFFCURVE",
"690 1266 CURVE SMOOTH",
"222 1266 LINE SMOOTH",
"194 1266 OFFCURVE",
"180 1252 OFFCURVE",
"180 1224 CURVE SMOOTH",
"180 42 LINE SMOOTH",
"180 14 OFFCURVE",
"194 0 OFFCURVE",
"222 0 CURVE SMOOTH"
);
},
{
closed = 1;
nodes = (
"264 1182 LINE",
"690 1182 LINE SMOOTH",
"864 1182 OFFCURVE",
"942 1104 OFFCURVE",
"942 930 CURVE SMOOTH",
"942 870 LINE SMOOTH",
"942 696 OFFCURVE",
"864 618 OFFCURVE",
"690 618 CURVE SMOOTH",
"264 618 LINE"
);
}
);
width = 1086;
},
{
anchors = (
{
name = bottom;
position = "{758, 0}";
},
{
name = top;
position = "{630, 1356}";
}
);
layerId = "9D2B49D7-8C02-48EB-8D57-D561CCF616AE";
paths = (
{
closed = 1;
nodes = (
"346 0 OFFCURVE",
"376 30 OFFCURVE",
"376 84 CURVE SMOOTH",
"376 540 LINE",
"760 540 LINE SMOOTH",
"1004 540 OFFCURVE",
"1138 674 OFFCURVE",
"1138 918 CURVE SMOOTH",
"1138 978 LINE SMOOTH",
"1138 1222 OFFCURVE",
"1004 1356 OFFCURVE",
"760 1356 CURVE SMOOTH",
"292 1356 LINE SMOOTH",
"238 1356 OFFCURVE",
"208 1326 OFFCURVE",
"208 1272 CURVE SMOOTH",
"208 84 LINE SMOOTH",
"208 30 OFFCURVE",
"238 0 OFFCURVE",
"292 0 CURVE SMOOTH"
);
},
{
closed = 1;
nodes = (
"376 1188 LINE",
"760 1188 LINE SMOOTH",
"912 1188 OFFCURVE",
"970 1128 OFFCURVE",
"970 978 CURVE SMOOTH",
"970 918 LINE SMOOTH",
"970 766 OFFCURVE",
"912 708 OFFCURVE",
"760 708 CURVE SMOOTH",
"376 708 LINE"
);
}
);
width = 1226;
}
);
leftKerningGroup = H;
leftMetricsKey = H;
rightKerningGroup = P;
unicode = 0050;
},
{
color = 9;
glyphname = Thorn;
lastChange = "2019-09-04 19:35:22 +0000";
layers = (
{
layerId = "C9A88445-F9B1-43BF-9834-532EB19954E9";
paths = (
{
closed = 1;
nodes = (
"250 0 OFFCURVE",
"264 14 OFFCURVE",
"264 42 CURVE SMOOTH",
"264 356 LINE",
"594 356 LINE SMOOTH",
"816 356 OFFCURVE",
"930 470 OFFCURVE",
"930 692 CURVE SMOOTH",
"930 752 LINE SMOOTH",
"930 974 OFFCURVE",
"816 1088 OFFCURVE",
"594 1088 CURVE SMOOTH",
"264 1088 LINE",
"264 1224 LINE SMOOTH",
"264 1252 OFFCURVE",
"250 1266 OFFCURVE",
"222 1266 CURVE SMOOTH",
"194 1266 OFFCURVE",
"180 1252 OFFCURVE",
"180 1224 CURVE SMOOTH",
"180 42 LINE SMOOTH",
"180 14 OFFCURVE",
"194 0 OFFCURVE",
"222 0 CURVE SMOOTH"
);
},
{
closed = 1;
nodes = (
"264 1004 LINE",
"594 1004 LINE SMOOTH",
"768 1004 OFFCURVE",
"846 926 OFFCURVE",
"846 752 CURVE SMOOTH",
"846 692 LINE SMOOTH",
"846 518 OFFCURVE",
"768 440 OFFCURVE",
"594 440 CURVE SMOOTH",
"264 440 LINE"
);
}
);
width = 990;
},
{
layerId = "9D2B49D7-8C02-48EB-8D57-D561CCF616AE";
paths = (
{
closed = 1;
nodes = (
"346 0 OFFCURVE",
"376 30 OFFCURVE",
"376 84 CURVE SMOOTH",
"376 334 LINE",
"664 334 LINE SMOOTH",
"908 334 OFFCURVE",
"1042 468 OFFCURVE",
"1042 712 CURVE SMOOTH",
"1042 772 LINE SMOOTH",
"1042 1016 OFFCURVE",
"908 1150 OFFCURVE",
"664 1150 CURVE SMOOTH",
"376 1150 LINE",
"376 1272 LINE SMOOTH",
"376 1324 OFFCURVE",
"346 1356 OFFCURVE",
"292 1356 CURVE SMOOTH",
"238 1356 OFFCURVE",
"208 1324 OFFCURVE",
"208 1272 CURVE SMOOTH",
"208 84 LINE SMOOTH",
"208 30 OFFCURVE",
"238 0 OFFCURVE",
"292 0 CURVE SMOOTH"
);
},
{
closed = 1;
nodes = (
"376 982 LINE",
"664 982 LINE SMOOTH",
"816 982 OFFCURVE",
"874 924 OFFCURVE",
"874 772 CURVE SMOOTH",
"874 712 LINE SMOOTH",
"874 560 OFFCURVE",
"816 502 OFFCURVE",
"664 502 CURVE SMOOTH",
"376 502 LINE"
);
}
);
width = 1130;
}
);
leftKerningGroup = H;
leftMetricsKey = H;
rightKerningGroup = P;
rightMetricsKey = P;
unicode = 00DE;
},
{
color = 9;
glyphname = Q;
lastChange = "2019-09-04 19:35:22 +0000";
layers = (
{
anchors = (
{
name = bottom;
position = "{686, 0}";
},
{
name = top;
position = "{686, 1266}";
}
);
components = (
{
name = O;
}
);
layerId = "C9A88445-F9B1-43BF-9834-532EB19954E9";
paths = (
{
closed = 1;
nodes = (
"1196 4 CURVE SMOOTH",
"954 250 LINE SMOOTH",
"934 270 OFFCURVE",
"914 270 OFFCURVE",
"894 250 CURVE SMOOTH",
"874 230 OFFCURVE",
"874 210 OFFCURVE",
"894 190 CURVE SMOOTH",
"1136 -56 LINE SMOOTH",
"1156 -76 OFFCURVE",
"1176 -76 OFFCURVE",
"1196 -56 CURVE SMOOTH",
"1216 -36 OFFCURVE",
"1216 -16 OFFCURVE"
);
}
);
width = 1372;
},
{
anchors = (
{
name = bottom;
position = "{728, 0}";
},
{
name = top;
position = "{728, 1356}";
}
);
components = (
{
name = O;
}
);
layerId = "9D2B49D7-8C02-48EB-8D57-D561CCF616AE";
paths = (
{
closed = 1;
nodes = (
"1286 -44 CURVE SMOOTH",
"940 320 LINE SMOOTH",
"906 352 OFFCURVE",
"872 354 OFFCURVE",
"838 322 CURVE SMOOTH",
"806 292 OFFCURVE",
"806 254 OFFCURVE",
"836 224 CURVE SMOOTH",
"1180 -140 LINE SMOOTH",
"1214 -172 OFFCURVE",
"1248 -172 OFFCURVE",
"1280 -142 CURVE SMOOTH",
"1314 -112 OFFCURVE",
"1314 -74 OFFCURVE"
);
}
);
width = 1466;
}
);
leftKerningGroup = O;
leftMetricsKey = O;
rightKerningGroup = O;
rightMetricsKey = O;
unicode = 0051;
},
{
color = 9;
glyphname = R;
lastChange = "2019-09-04 19:35:22 +0000";
layers = (
{
anchors = (
{
name = bottom;
position = "{582, 0}";
},
{
name = top;
position = "{582, 1266}";
}
);
layerId = "C9A88445-F9B1-43BF-9834-532EB19954E9";
paths = (
{
closed = 1;
nodes = (
"1076 12 OFFCURVE",
"1080 32 OFFCURVE",
"1064 56 CURVE SMOOTH",
"758 538 LINE",
"935 560 OFFCURVE",
"1026 672 OFFCURVE",
"1026 870 CURVE SMOOTH",
"1026 930 LINE SMOOTH",
"1026 1152 OFFCURVE",
"912 1266 OFFCURVE",
"690 1266 CURVE SMOOTH",
"222 1266 LINE SMOOTH",
"194 1266 OFFCURVE",
"180 1252 OFFCURVE",
"180 1224 CURVE SMOOTH",
"180 42 LINE SMOOTH",
"180 14 OFFCURVE",
"194 0 OFFCURVE",
"222 0 CURVE SMOOTH",
"250 0 OFFCURVE",
"264 14 OFFCURVE",
"264 42 CURVE SMOOTH",
"264 534 LINE",
"660 534 LINE",
"994 10 LINE SMOOTH",
"1008 -12 OFFCURVE",
"1028 -16 OFFCURVE",
"1052 -2 CURVE SMOOTH"
);
},
{
closed = 1;
nodes = (
"264 1182 LINE",
"690 1182 LINE SMOOTH",
"864 1182 OFFCURVE",
"942 1104 OFFCURVE",
"942 930 CURVE SMOOTH",
"942 870 LINE SMOOTH",
"942 696 OFFCURVE",
"864 618 OFFCURVE",
"690 618 CURVE SMOOTH",
"264 618 LINE"
);
}
);
width = 1164;
},
{
anchors = (
{
name = bottom;
position = "{626, 0}";
},
{
name = top;
position = "{626, 1356}";
}
);
layerId = "9D2B49D7-8C02-48EB-8D57-D561CCF616AE";
paths = (
{
closed = 1;
nodes = (
"1124 24 OFFCURVE",
"1136 66 OFFCURVE",
"1112 110 CURVE SMOOTH",
"850 547 LINE",
"1037 577 OFFCURVE",
"1138 706 OFFCURVE",
"1138 918 CURVE SMOOTH",
"1138 978 LINE SMOOTH",
"1138 1222 OFFCURVE",
"1004 1356 OFFCURVE",
"760 1356 CURVE SMOOTH",
"292 1356 LINE SMOOTH",
"238 1356 OFFCURVE",
"208 1326 OFFCURVE",
"208 1272 CURVE SMOOTH",
"208 84 LINE SMOOTH",
"208 30 OFFCURVE",
"238 0 OFFCURVE",
"292 0 CURVE SMOOTH",
"346 0 OFFCURVE",
"376 30 OFFCURVE",
"376 84 CURVE SMOOTH",
"376 540 LINE",
"656 540 LINE",
"966 24 LINE SMOOTH",
"994 -20 OFFCURVE",
"1036 -32 OFFCURVE",
"1080 -4 CURVE SMOOTH"
);
},
{
closed = 1;
nodes = (
"376 1188 LINE",
"760 1188 LINE SMOOTH",
"912 1188 OFFCURVE",
"970 1128 OFFCURVE",
"970 978 CURVE SMOOTH",
"970 918 LINE SMOOTH",
"970 766 OFFCURVE",
"912 708 OFFCURVE",
"760 708 CURVE SMOOTH",
"376 708 LINE"
);
}
);
width = 1250;
}
);
leftKerningGroup = H;
leftMetricsKey = H;
rightKerningGroup = R;
unicode = 0052;
},
{
color = 9;
glyphname = S;
lastChange = "2019-09-04 19:35:22 +0000";
layers = (
{
anchors = (
{
name = bottom;
position = "{652, 0}";
},
{
name = top;
position = "{652, 1266}";
}
);
layerId = "C9A88445-F9B1-43BF-9834-532EB19954E9";
paths = (
{
closed = 1;
nodes = (
"796 2 LINE SMOOTH",
"1038 2 OFFCURVE",
"1144 108 OFFCURVE",
"1144 348 CURVE SMOOTH",
"1144 588 OFFCURVE",
"1038 694 OFFCURVE",
"796 694 CURVE SMOOTH",
"514 694 LINE SMOOTH",
"332 694 OFFCURVE",
"268 758 OFFCURVE",
"268 938 CURVE SMOOTH",
"268 1118 OFFCURVE",
"332 1182 OFFCURVE",
"512 1182 CURVE SMOOTH",
"806 1182 LINE SMOOTH",
"986 1182 OFFCURVE",
"1050 1118 OFFCURVE",
"1050 940 CURVE SMOOTH",
"1050 916 OFFCURVE",
"1068 898 OFFCURVE",
"1092 898 CURVE SMOOTH",
"1116 898 OFFCURVE",
"1134 916 OFFCURVE",
"1134 940 CURVE SMOOTH",
"1134 1166 OFFCURVE",
"1034 1266 OFFCURVE",
"806 1266 CURVE SMOOTH",
"512 1266 LINE SMOOTH",
"284 1266 OFFCURVE",
"184 1166 OFFCURVE",
"184 938 CURVE SMOOTH",
"184 710 OFFCURVE",
"284 610 OFFCURVE",
"514 610 CURVE SMOOTH",
"796 610 LINE SMOOTH",
"992 610 OFFCURVE",
"1060 542 OFFCURVE",
"1060 348 CURVE SMOOTH",
"1060 154 OFFCURVE",
"992 86 OFFCURVE",
"796 86 CURVE SMOOTH",
"508 86 LINE SMOOTH",
"312 86 OFFCURVE",
"244 154 OFFCURVE",
"244 348 CURVE SMOOTH",
"244 372 OFFCURVE",
"226 390 OFFCURVE",
"202 390 CURVE SMOOTH",
"178 390 OFFCURVE",
"160 372 OFFCURVE",
"160 348 CURVE SMOOTH",
"160 108 OFFCURVE",
"266 2 OFFCURVE",
"508 2 CURVE SMOOTH"
);
}
);
width = 1304;
},
{
anchors = (
{
name = bottom;
position = "{707, 0}";
},
{
name = top;
position = "{707, 1356}";
}
);
layerId = "9D2B49D7-8C02-48EB-8D57-D561CCF616AE";
paths = (
{
closed = 1;
nodes = (
"835 0 LINE SMOOTH",
"1099 0 OFFCURVE",
"1225 122 OFFCURVE",
"1225 388 CURVE SMOOTH",
"1225 654 OFFCURVE",
"1097 780 OFFCURVE",
"835 780 CURVE SMOOTH",
"587 780 LINE SMOOTH",
"427 780 OFFCURVE",
"383 828 OFFCURVE",
"383 986 CURVE SMOOTH",
"383 1142 OFFCURVE",
"425 1188 OFFCURVE",
"585 1188 CURVE SMOOTH",
"823 1188 LINE SMOOTH",
"943 1188 OFFCURVE",
"997 1164 OFFCURVE",
"1019 1086 CURVE SMOOTH",
"1027 1032 OFFCURVE",
"1051 1004 OFFCURVE",
"1105 1004 CURVE SMOOTH",
"1163 1004 OFFCURVE",
"1195 1034 OFFCURVE",
"1187 1092 CURVE SMOOTH",
"1155 1270 OFFCURVE",
"1035 1356 OFFCURVE",
"823 1356 CURVE SMOOTH",
"585 1356 LINE SMOOTH",
"333 1356 OFFCURVE",
"215 1236 OFFCURVE",
"215 986 CURVE SMOOTH",
"215 734 OFFCURVE",
"335 612 OFFCURVE",
"587 612 CURVE SMOOTH",
"835 612 LINE SMOOTH",
"1003 612 OFFCURVE",
"1057 560 OFFCURVE",
"1057 388 CURVE SMOOTH",
"1057 218 OFFCURVE",
"1007 168 OFFCURVE",
"835 168 CURVE SMOOTH",
"547 168 LINE SMOOTH",
"411 168 OFFCURVE",
"351 196 OFFCURVE",
"331 288 CURVE SMOOTH",
"321 344 OFFCURVE",
"299 370 OFFCURVE",
"243 370 CURVE SMOOTH",
"187 370 OFFCURVE",
"155 340 OFFCURVE",
"161 282 CURVE SMOOTH",
"193 90 OFFCURVE",
"319 0 OFFCURVE",
"547 0 CURVE SMOOTH"
);
}
);
width = 1385;
}
);
leftKerningGroup = S;
leftMetricsKey = O;
rightKerningGroup = S;
rightMetricsKey = O;
unicode = 0053;
},
{
color = 9;
glyphname = Germandbls;
lastChange = "2019-09-04 19:35:22 +0000";
layers = (
{
layerId = "C9A88445-F9B1-43BF-9834-532EB19954E9";
paths = (
{
closed = 1;
nodes = (
"250 0 OFFCURVE",
"264 14 OFFCURVE",
"264 42 CURVE SMOOTH",
"264 960 LINE SMOOTH",
"264 1140 OFFCURVE",
"328 1204 OFFCURVE",
"508 1204 CURVE SMOOTH",
"524 1204 LINE SMOOTH",
"698 1204 OFFCURVE",
"762 1144 OFFCURVE",
"766 978 CURVE",
"600 796 LINE",
"600 724 LINE",
"790 596 OFFCURVE",
"862 480 OFFCURVE",
"862 320 CURVE SMOOTH",
"862 146 OFFCURVE",
"800 84 OFFCURVE",
"626 84 CURVE SMOOTH",
"486 84 LINE SMOOTH",
"458 84 OFFCURVE",
"444 70 OFFCURVE",
"444 42 CURVE SMOOTH",
"444 14 OFFCURVE",
"458 0 OFFCURVE",
"486 0 CURVE SMOOTH",
"626 0 LINE SMOOTH",
"848 0 OFFCURVE",
"946 98 OFFCURVE",
"946 320 CURVE SMOOTH",
"946 496 OFFCURVE",
"868 632 OFFCURVE",
"686 766 CURVE",
"830 924 LINE SMOOTH",
"844 940 OFFCURVE",
"850 954 OFFCURVE",
"850 976 CURVE SMOOTH",
"846 1192 OFFCURVE",
"744 1288 OFFCURVE",
"524 1288 CURVE SMOOTH",
"508 1288 LINE SMOOTH",
"280 1288 OFFCURVE",
"180 1188 OFFCURVE",
"180 960 CURVE SMOOTH",
"180 42 LINE SMOOTH",
"180 14 OFFCURVE",
"194 0 OFFCURVE",
"222 0 CURVE SMOOTH"
);
}
);
width = 1106;
},
{
layerId = "9D2B49D7-8C02-48EB-8D57-D561CCF616AE";
paths = (
{
closed = 1;
nodes = (
"336 -40 OFFCURVE",
"376 0 OFFCURVE",
"376 44 CURVE SMOOTH",
"376 960 LINE SMOOTH",
"376 1118 OFFCURVE",
"420 1162 OFFCURVE",
"578 1162 CURVE SMOOTH",
"594 1162 LINE SMOOTH",
"738 1162 OFFCURVE",
"788 1124 OFFCURVE",
"794 994 CURVE",
"644 822 LINE",
"644 690 LINE",
"824 568 OFFCURVE",
"890 468 OFFCURVE",
"890 322 CURVE SMOOTH",
"890 172 OFFCURVE",
"848 128 OFFCURVE",
"696 128 CURVE SMOOTH",
"556 128 LINE SMOOTH",
"512 128 OFFCURVE",
"472 90 OFFCURVE",
"472 44 CURVE SMOOTH",
"472 0 OFFCURVE",
"512 -40 OFFCURVE",
"556 -40 CURVE SMOOTH",
"696 -40 LINE SMOOTH",
"940 -40 OFFCURVE",
"1058 78 OFFCURVE",
"1058 322 CURVE SMOOTH",
"1058 502 OFFCURVE",
"986 638 OFFCURVE",
"820 772 CURVE",
"922 884 LINE SMOOTH",
"950 918 OFFCURVE",
"962 946 OFFCURVE",
"962 990 CURVE SMOOTH",
"952 1220 OFFCURVE",
"834 1330 OFFCURVE",
"594 1330 CURVE SMOOTH",
"578 1330 LINE SMOOTH",
"328 1330 OFFCURVE",
"208 1210 OFFCURVE",
"208 960 CURVE SMOOTH",
"208 44 LINE SMOOTH",
"208 0 OFFCURVE",
"248 -40 OFFCURVE",
"292 -40 CURVE SMOOTH"
);
}
);
width = 1218;
}
);
leftKerningGroup = H;
leftMetricsKey = n;
rightKerningGroup = Germandbls;
rightMetricsKey = o;
unicode = 1E9E;
},
{
color = 9;
glyphname = T;
lastChange = "2019-09-04 19:35:22 +0000";
layers = (
{
anchors = (
{
name = bottom;
position = "{512, 0}";
},
{
name = center;
position = "{552, 634}";
},
{
name = top;
position = "{552, 1266}";
}
);
layerId = "C9A88445-F9B1-43BF-9834-532EB19954E9";
paths = (
{
closed = 1;
nodes = (
"576 -2 OFFCURVE",
"594 16 OFFCURVE",
"594 40 CURVE SMOOTH",
"594 1184 LINE",
"1032 1184 LINE SMOOTH",
"1056 1184 OFFCURVE",
"1074 1202 OFFCURVE",
"1074 1226 CURVE SMOOTH",
"1074 1250 OFFCURVE",
"1056 1268 OFFCURVE",
"1032 1268 CURVE SMOOTH",
"72 1268 LINE SMOOTH",
"48 1268 OFFCURVE",
"30 1250 OFFCURVE",
"30 1226 CURVE SMOOTH",
"30 1202 OFFCURVE",
"48 1184 OFFCURVE",
"72 1184 CURVE SMOOTH",
"510 1184 LINE",
"510 40 LINE SMOOTH",
"510 16 OFFCURVE",
"528 -2 OFFCURVE",
"552 -2 CURVE SMOOTH"
);
}
);
width = 1104;
},
{
anchors = (
{
name = bottom;
position = "{548, 0}";
},
{
name = center;
position = "{614, 678}";
},
{
name = top;
position = "{614, 1356}";
}
);
layerId = "9D2B49D7-8C02-48EB-8D57-D561CCF616AE";
paths = (
{
closed = 1;
nodes = (
"668 0 OFFCURVE",
"698 30 OFFCURVE",
"698 84 CURVE SMOOTH",
"698 1186 LINE",
"1086 1186 LINE SMOOTH",
"1142 1186 OFFCURVE",
"1170 1214 OFFCURVE",
"1170 1270 CURVE SMOOTH",
"1170 1326 OFFCURVE",
"1142 1354 OFFCURVE",
"1086 1354 CURVE SMOOTH",
"142 1354 LINE SMOOTH",
"86 1354 OFFCURVE",
"58 1326 OFFCURVE",
"58 1270 CURVE SMOOTH",
"58 1214 OFFCURVE",
"86 1186 OFFCURVE",
"142 1186 CURVE SMOOTH",
"530 1186 LINE",
"530 84 LINE SMOOTH",
"530 28 OFFCURVE",
"558 0 OFFCURVE",
"614 0 CURVE SMOOTH"
);
}
);
width = 1228;
}
);
leftKerningGroup = T;
rightKerningGroup = T;
unicode = 0054;
},
{
color = 9;
glyphname = U;
lastChange = "2019-09-04 19:35:22 +0000";
layers = (
{
anchors = (
{
name = bottom;
position = "{696, 0}";
},
{
name = ogonek;
position = "{1122, 118}";
},
{
name = top;
position = "{696, 1266}";
},
{
name = topright;
position = "{1180, 1266}";
}
);
layerId = "C9A88445-F9B1-43BF-9834-532EB19954E9";
paths = (
{
closed = 1;
nodes = (
"816 0 LINE SMOOTH",
"1100 0 OFFCURVE",
"1222 122 OFFCURVE",
"1222 406 CURVE SMOOTH",
"1222 1224 LINE SMOOTH",
"1222 1248 OFFCURVE",
"1204 1266 OFFCURVE",
"1180 1266 CURVE SMOOTH",
"1156 1266 OFFCURVE",
"1138 1248 OFFCURVE",
"1138 1224 CURVE SMOOTH",
"1138 406 LINE SMOOTH",
"1138 170 OFFCURVE",
"1052 84 OFFCURVE",
"816 84 CURVE SMOOTH",
"576 84 LINE SMOOTH",
"340 84 OFFCURVE",
"254 170 OFFCURVE",
"254 406 CURVE SMOOTH",
"254 1224 LINE SMOOTH",
"254 1248 OFFCURVE",
"236 1266 OFFCURVE",
"212 1266 CURVE SMOOTH",
"188 1266 OFFCURVE",
"170 1248 OFFCURVE",
"170 1224 CURVE SMOOTH",
"170 406 LINE SMOOTH",
"170 122 OFFCURVE",
"292 0 OFFCURVE",
"576 0 CURVE SMOOTH"
);
}
);
width = 1392;
},
{
anchors = (
{
name = bottom;
position = "{766, 0}";
},
{
name = ogonek;
position = "{1176, 118}";
},
{
name = top;
position = "{766, 1356}";
},
{
name = topright;
position = "{1250, 1356}";
}
);
layerId = "9D2B49D7-8C02-48EB-8D57-D561CCF616AE";
paths = (
{
closed = 1;
nodes = (
"886 0 LINE SMOOTH",
"1192 0 OFFCURVE",
"1334 142 OFFCURVE",
"1334 448 CURVE SMOOTH",
"1334 1272 LINE SMOOTH",
"1334 1328 OFFCURVE",
"1306 1356 OFFCURVE",
"1250 1356 CURVE SMOOTH",
"1194 1356 OFFCURVE",
"1166 1328 OFFCURVE",
"1166 1272 CURVE SMOOTH",
"1166 448 LINE SMOOTH",
"1166 234 OFFCURVE",
"1100 168 OFFCURVE",
"886 168 CURVE SMOOTH",
"646 168 LINE SMOOTH",
"432 168 OFFCURVE",
"366 234 OFFCURVE",
"366 448 CURVE SMOOTH",
"366 1272 LINE SMOOTH",
"366 1328 OFFCURVE",
"338 1356 OFFCURVE",
"282 1356 CURVE SMOOTH",
"226 1356 OFFCURVE",
"198 1328 OFFCURVE",
"198 1272 CURVE SMOOTH",
"198 448 LINE SMOOTH",
"198 142 OFFCURVE",
"340 0 OFFCURVE",
"646 0 CURVE SMOOTH"
);
}
);
width = 1532;
}
);
leftKerningGroup = U;
leftMetricsKey = "=H-10";
rightKerningGroup = U;
rightMetricsKey = "=H-10";
unicode = 0055;
},
{
color = 9;
glyphname = V;
lastChange = "2019-09-04 19:35:22 +0000";
layers = (
{
anchors = (
{
name = bottom;
position = "{596, 0}";
},
{
name = top;
position = "{596, 1266}";
}
);
layerId = "C9A88445-F9B1-43BF-9834-532EB19954E9";
paths = (
{
closed = 1;
nodes = (
"602 0 LINE SMOOTH",
"620 0 OFFCURVE",
"634 10 OFFCURVE",
"640 26 CURVE SMOOTH",
"1168 1206 LINE SMOOTH",
"1184 1242 OFFCURVE",
"1160 1266 OFFCURVE",
"1130 1266 CURVE SMOOTH",
"1112 1266 OFFCURVE",
"1098 1256 OFFCURVE",
"1092 1240 CURVE SMOOTH",
"581 97 LINE",
"611 97 LINE",
"100 1240 LINE SMOOTH",
"94 1256 OFFCURVE",
"80 1266 OFFCURVE",
"62 1266 CURVE SMOOTH",
"36 1266 OFFCURVE",
"8 1242 OFFCURVE",
"24 1206 CURVE SMOOTH",
"552 26 LINE SMOOTH",
"558 10 OFFCURVE",
"572 0 OFFCURVE",
"590 0 CURVE SMOOTH"
);
}
);
width = 1194;
},
{
anchors = (
{
name = bottom;
position = "{638, 0}";
},
{
name = top;
position = "{644, 1356}";
}
);
layerId = "9D2B49D7-8C02-48EB-8D57-D561CCF616AE";
paths = (
{
closed = 1;
nodes = (
"642 0 LINE SMOOTH",
"684 0 OFFCURVE",
"712 24 OFFCURVE",
"732 66 CURVE SMOOTH",
"1230 1236 LINE SMOOTH",
"1248 1282 OFFCURVE",
"1238 1320 OFFCURVE",
"1192 1344 CURVE SMOOTH",
"1138 1370 OFFCURVE",
"1098 1356 OFFCURVE",
"1076 1302 CURVE SMOOTH",
"621 196 LINE",
"679 196 LINE",
"212 1302 LINE SMOOTH",
"190 1356 OFFCURVE",
"148 1370 OFFCURVE",
"96 1344 CURVE SMOOTH",
"44 1320 OFFCURVE",
"38 1282 OFFCURVE",
"58 1236 CURVE SMOOTH",
"552 66 LINE SMOOTH",
"572 22 OFFCURVE",
"598 0 OFFCURVE",
"634 0 CURVE SMOOTH"
);
}
);
width = 1286;
}
);
leftKerningGroup = V;
rightKerningGroup = V;
unicode = 0056;
},
{
color = 9;
glyphname = W;
lastChange = "2019-09-04 19:35:22 +0000";
layers = (
{
anchors = (
{
name = bottom;
position = "{839, 0}";
},
{
name = top;
position = "{839, 1266}";
}
);
layerId = "C9A88445-F9B1-43BF-9834-532EB19954E9";
paths = (
{
closed = 1;
nodes = (
"475 0 OFFCURVE",
"493 2 OFFCURVE",
"501 30 CURVE SMOOTH",
"851 1152 LINE",
"827 1152 LINE",
"1177 30 LINE SMOOTH",
"1183 10 OFFCURVE",
"1195 0 OFFCURVE",
"1221 0 CURVE SMOOTH",
"1225 0 LINE SMOOTH",
"1249 0 OFFCURVE",
"1263 10 OFFCURVE",
"1269 30 CURVE SMOOTH",
"1657 1210 LINE SMOOTH",
"1665 1234 OFFCURVE",
"1657 1266 OFFCURVE",
"1617 1266 CURVE SMOOTH",
"1597 1266 OFFCURVE",
"1583 1256 OFFCURVE",
"1577 1236 CURVE SMOOTH",
"1211 124 LINE",
"1235 124 LINE",
"889 1236 LINE SMOOTH",
"883 1258 OFFCURVE",
"861 1268 OFFCURVE",
"839 1268 CURVE SMOOTH",
"817 1268 OFFCURVE",
"795 1258 OFFCURVE",
"789 1236 CURVE SMOOTH",
"443 124 LINE",
"467 124 LINE",
"101 1236 LINE SMOOTH",
"95 1256 OFFCURVE",
"81 1266 OFFCURVE",
"61 1266 CURVE SMOOTH",
"29 1266 OFFCURVE",
"13 1234 OFFCURVE",
"21 1210 CURVE SMOOTH",
"409 30 LINE SMOOTH",
"415 10 OFFCURVE",
"429 0 OFFCURVE",
"451 0 CURVE SMOOTH"
);
}
);
width = 1681;
},
{
anchors = (
{
name = bottom;
position = "{897, 0}";
},
{
name = top;
position = "{897, 1356}";
}
);
layerId = "9D2B49D7-8C02-48EB-8D57-D561CCF616AE";
paths = (
{
closed = 1;
nodes = (
"551 0 OFFCURVE",
"573 24 OFFCURVE",
"587 72 CURVE SMOOTH",
"911 1114 LINE",
"867 1114 LINE",
"1189 72 LINE SMOOTH",
"1203 24 OFFCURVE",
"1233 0 OFFCURVE",
"1277 0 CURVE SMOOTH",
"1281 0 LINE SMOOTH",
"1327 0 OFFCURVE",
"1353 24 OFFCURVE",
"1369 72 CURVE SMOOTH",
"1739 1244 LINE SMOOTH",
"1757 1302 OFFCURVE",
"1715 1356 OFFCURVE",
"1657 1356 CURVE SMOOTH",
"1625 1356 OFFCURVE",
"1595 1338 OFFCURVE",
"1581 1294 CURVE SMOOTH",
"1255 256 LINE",
"1299 256 LINE",
"989 1284 LINE SMOOTH",
"975 1332 OFFCURVE",
"933 1356 OFFCURVE",
"893 1356 CURVE SMOOTH",
"855 1356 OFFCURVE",
"815 1332 OFFCURVE",
"801 1284 CURVE SMOOTH",
"491 256 LINE",
"535 256 LINE",
"209 1294 LINE SMOOTH",
"195 1338 OFFCURVE",
"163 1358 OFFCURVE",
"131 1358 CURVE SMOOTH",
"71 1358 OFFCURVE",
"35 1294 OFFCURVE",
"51 1244 CURVE SMOOTH",
"421 72 LINE SMOOTH",
"437 22 OFFCURVE",
"459 0 OFFCURVE",
"499 0 CURVE SMOOTH"
);
}
);
width = 1791;
}
);
leftKerningGroup = V;
leftMetricsKey = V;
rightKerningGroup = V;
rightMetricsKey = V;
unicode = 0057;
},
{
color = 9;
glyphname = X;
lastChange = "2019-09-04 19:35:22 +0000";
layers = (
{
anchors = (
{
name = bottom;
position = "{544, 0}";
},
{
name = top;
position = "{540, 1266}";
}
);
layerId = "C9A88445-F9B1-43BF-9834-532EB19954E9";
paths = (
{
closed = 1;
nodes = (
"108 -6 OFFCURVE",
"128 -2 OFFCURVE",
"144 22 CURVE SMOOTH",
"540 598 LINE",
"956 20 LINE SMOOTH",
"972 -2 OFFCURVE",
"992 -6 OFFCURVE",
"1014 10 CURVE SMOOTH",
"1036 26 OFFCURVE",
"1040 46 OFFCURVE",
"1024 68 CURVE SMOOTH",
"598 662 LINE",
"992 1198 LINE SMOOTH",
"1008 1220 OFFCURVE",
"1006 1240 OFFCURVE",
"984 1256 CURVE SMOOTH",
"962 1272 OFFCURVE",
"940 1270 OFFCURVE",
"924 1248 CURVE SMOOTH",
"544 736 LINE",
"180 1246 LINE SMOOTH",
"164 1268 OFFCURVE",
"142 1272 OFFCURVE",
"120 1256 CURVE SMOOTH",
"98 1240 OFFCURVE",
"94 1220 OFFCURVE",
"110 1198 CURVE SMOOTH",
"488 670 LINE",
"74 68 LINE SMOOTH",
"60 46 OFFCURVE",
"64 26 OFFCURVE",
"86 10 CURVE SMOOTH"
);
}
);
width = 1118;
},
{
anchors = (
{
name = bottom;
position = "{628, 0}";
},
{
name = top;
position = "{630, 1356}";
}
);
layerId = "9D2B49D7-8C02-48EB-8D57-D561CCF616AE";
paths = (
{
closed = 1;
nodes = (
"220 -12 OFFCURVE",
"260 -4 OFFCURVE",
"290 38 CURVE SMOOTH",
"622 530 LINE",
"970 40 LINE SMOOTH",
"1000 -4 OFFCURVE",
"1042 -12 OFFCURVE",
"1086 18 CURVE SMOOTH",
"1132 52 OFFCURVE",
"1138 94 OFFCURVE",
"1108 138 CURVE SMOOTH",
"730 670 LINE",
"1124 1218 LINE SMOOTH",
"1156 1262 OFFCURVE",
"1148 1302 OFFCURVE",
"1104 1334 CURVE SMOOTH",
"1060 1368 OFFCURVE",
"1022 1360 OFFCURVE",
"988 1316 CURVE SMOOTH",
"628 814 LINE",
"270 1316 LINE SMOOTH",
"240 1360 OFFCURVE",
"198 1368 OFFCURVE",
"154 1338 CURVE SMOOTH",
"110 1304 OFFCURVE",
"102 1264 OFFCURVE",
"132 1220 CURVE SMOOTH",
"518 676 LINE",
"152 136 LINE SMOOTH",
"122 90 OFFCURVE",
"128 48 OFFCURVE",
"172 18 CURVE SMOOTH"
);
}
);
width = 1252;
}
);
leftKerningGroup = X;
rightKerningGroup = X;
unicode = 0058;
},
{
color = 9;
glyphname = Y;
lastChange = "2019-09-04 19:35:22 +0000";
layers = (
{
anchors = (
{
name = bottom;
position = "{517, 0}";
},
{
name = top;
position = "{517, 1266}";
},
{
name = topleft;
position = "{47, 1266}";
}
);
layerId = "C9A88445-F9B1-43BF-9834-532EB19954E9";
paths = (
{
closed = 1;
nodes = (
"541 0 OFFCURVE",
"555 14 OFFCURVE",
"555 42 CURVE SMOOTH",
"555 500 LINE",
"999 1200 LINE SMOOTH",
"1015 1224 OFFCURVE",
"1011 1244 OFFCURVE",
"987 1258 CURVE SMOOTH",
"963 1272 OFFCURVE",
"943 1268 OFFCURVE",
"929 1246 CURVE SMOOTH",
"513 590 LINE",
"99 1244 LINE SMOOTH",
"85 1268 OFFCURVE",
"63 1272 OFFCURVE",
"41 1258 CURVE SMOOTH",
"17 1242 OFFCURVE",
"13 1222 OFFCURVE",
"27 1200 CURVE SMOOTH",
"471 500 LINE",
"471 42 LINE SMOOTH",
"471 14 OFFCURVE",
"485 0 OFFCURVE",
"513 0 CURVE SMOOTH"
);
}
);
width = 1030;
},
{
anchors = (
{
name = bottom;
position = "{613, 0}";
},
{
name = top;
position = "{613, 1356}";
},
{
name = topleft;
position = "{91, 1356}";
}
);
layerId = "9D2B49D7-8C02-48EB-8D57-D561CCF616AE";
paths = (
{
closed = 1;
nodes = (
"659 0 OFFCURVE",
"689 30 OFFCURVE",
"689 84 CURVE SMOOTH",
"689 492 LINE",
"1165 1222 LINE SMOOTH",
"1195 1266 OFFCURVE",
"1185 1308 OFFCURVE",
"1139 1336 CURVE SMOOTH",
"1095 1368 OFFCURVE",
"1053 1358 OFFCURVE",
"1025 1314 CURVE SMOOTH",
"605 672 LINE",
"205 1314 LINE SMOOTH",
"177 1358 OFFCURVE",
"135 1368 OFFCURVE",
"89 1340 CURVE SMOOTH",
"45 1310 OFFCURVE",
"35 1270 OFFCURVE",
"63 1222 CURVE SMOOTH",
"521 492 LINE",
"521 84 LINE SMOOTH",
"521 30 OFFCURVE",
"553 0 OFFCURVE",
"605 0 CURVE SMOOTH"
);
}
);
width = 1230;
}
);
leftKerningGroup = Y;
leftMetricsKey = V;
rightKerningGroup = Y;
rightMetricsKey = V;
unicode = 0059;
},
{
color = 9;
glyphname = Z;
lastChange = "2019-09-04 19:35:22 +0000";
layers = (
{
anchors = (
{
name = bottom;
position = "{618, 0}";
},
{
name = top;
position = "{636, 1266}";
}
);
layerId = "C9A88445-F9B1-43BF-9834-532EB19954E9";
paths = (
{
closed = 1;
nodes = (
"826 0 LINE SMOOTH",
"1000 0 OFFCURVE",
"1098 82 OFFCURVE",
"1110 242 CURVE SMOOTH",
"1112 270 OFFCURVE",
"1096 286 OFFCURVE",
"1068 286 CURVE SMOOTH",
"1042 286 OFFCURVE",
"1028 272 OFFCURVE",
"1026 244 CURVE SMOOTH",
"1014 132 OFFCURVE",
"952 84 OFFCURVE",
"826 84 CURVE SMOOTH",
"214 84 LINE",
"214 46 LINE",
"1048 1168 LINE SMOOTH",
"1062 1186 OFFCURVE",
"1066 1200 OFFCURVE",
"1066 1224 CURVE SMOOTH",
"1066 1252 OFFCURVE",
"1052 1266 OFFCURVE",
"1024 1266 CURVE SMOOTH",
"364 1266 LINE SMOOTH",
"190 1266 OFFCURVE",
"92 1184 OFFCURVE",
"80 1024 CURVE SMOOTH",
"78 996 OFFCURVE",
"94 980 OFFCURVE",
"120 980 CURVE SMOOTH",
"148 980 OFFCURVE",
"162 994 OFFCURVE",
"164 1022 CURVE SMOOTH",
"176 1134 OFFCURVE",
"238 1182 OFFCURVE",
"364 1182 CURVE SMOOTH",
"968 1182 LINE",
"968 1202 LINE",
"136 94 LINE SMOOTH",
"122 74 OFFCURVE",
"114 62 OFFCURVE",
"114 42 CURVE SMOOTH",
"114 14 OFFCURVE",
"130 0 OFFCURVE",
"160 0 CURVE SMOOTH"
);
}
);
width = 1190;
},
{
anchors = (
{
name = bottom;
position = "{702, 0}";
},
{
name = top;
position = "{722, 1356}";
}
);
layerId = "9D2B49D7-8C02-48EB-8D57-D561CCF616AE";
paths = (
{
closed = 1;
nodes = (
"946 0 LINE SMOOTH",
"1128 0 OFFCURVE",
"1238 84 OFFCURVE",
"1270 240 CURVE SMOOTH",
"1278 296 OFFCURVE",
"1244 328 OFFCURVE",
"1188 328 CURVE SMOOTH",
"1134 328 OFFCURVE",
"1112 300 OFFCURVE",
"1098 250 CURVE SMOOTH",
"1082 190 OFFCURVE",
"1036 168 OFFCURVE",
"946 168 CURVE SMOOTH",
"354 168 LINE",
"354 160 LINE",
"1148 1196 LINE SMOOTH",
"1172 1228 OFFCURVE",
"1180 1250 OFFCURVE",
"1180 1272 CURVE SMOOTH",
"1180 1324 OFFCURVE",
"1152 1356 OFFCURVE",
"1096 1356 CURVE SMOOTH",
"428 1356 LINE SMOOTH",
"248 1356 OFFCURVE",
"140 1270 OFFCURVE",
"108 1116 CURVE SMOOTH",
"98 1060 OFFCURVE",
"134 1028 OFFCURVE",
"190 1028 CURVE SMOOTH",
"244 1028 OFFCURVE",
"266 1056 OFFCURVE",
"278 1106 CURVE SMOOTH",
"296 1164 OFFCURVE",
"342 1188 OFFCURVE",
"428 1188 CURVE SMOOTH",
"962 1188 LINE",
"962 1208 LINE",
"158 156 LINE SMOOTH",
"136 124 OFFCURVE",
"126 102 OFFCURVE",
"126 84 CURVE SMOOTH",
"126 30 OFFCURVE",
"156 0 OFFCURVE",
"208 0 CURVE SMOOTH"
);
}
);
width = 1378;
}
);
leftKerningGroup = Z;
rightKerningGroup = Z;
unicode = 005A;
},
{
color = 9;
glyphname = I_J.loclNLD;
lastChange = "2019-09-04 19:35:22 +0000";
layers = (
{
layerId = "C9A88445-F9B1-43BF-9834-532EB19954E9";
paths = (
{
closed = 1;
nodes = (
"248 498 OFFCURVE",
"266 516 OFFCURVE",
"266 540 CURVE SMOOTH",
"266 1226 LINE SMOOTH",
"266 1250 OFFCURVE",
"248 1268 OFFCURVE",
"224 1268 CURVE SMOOTH",
"200 1268 OFFCURVE",
"182 1250 OFFCURVE",
"182 1226 CURVE SMOOTH",
"182 540 LINE SMOOTH",
"182 516 OFFCURVE",
"200 498 OFFCURVE",
"224 498 CURVE SMOOTH"
);
},
{
closed = 1;
nodes = (
"598 0 LINE SMOOTH",
"856 0 OFFCURVE",
"964 108 OFFCURVE",
"964 366 CURVE SMOOTH",
"964 1224 LINE SMOOTH",
"964 1252 OFFCURVE",
"950 1266 OFFCURVE",
"922 1266 CURVE SMOOTH",
"894 1266 OFFCURVE",
"880 1252 OFFCURVE",
"880 1224 CURVE SMOOTH",
"880 366 LINE SMOOTH",
"880 154 OFFCURVE",
"810 84 OFFCURVE",
"598 84 CURVE SMOOTH",
"544 84 LINE SMOOTH",
"348 84 OFFCURVE",
"272 144 OFFCURVE",
"264 324 CURVE SMOOTH",
"262 352 OFFCURVE",
"248 366 OFFCURVE",
"220 366 CURVE SMOOTH",
"192 366 OFFCURVE",
"178 350 OFFCURVE",
"180 322 CURVE SMOOTH",
"190 96 OFFCURVE",
"300 0 OFFCURVE",
"544 0 CURVE SMOOTH"
);
}
);
width = 1134;
},
{
layerId = "9D2B49D7-8C02-48EB-8D57-D561CCF616AE";
paths = (
{
closed = 1;
nodes = (
"348 496 OFFCURVE",
"376 522 OFFCURVE",
"376 580 CURVE SMOOTH",
"376 1270 LINE SMOOTH",
"376 1328 OFFCURVE",
"348 1354 OFFCURVE",
"292 1354 CURVE SMOOTH",
"234 1354 OFFCURVE",
"208 1328 OFFCURVE",
"208 1270 CURVE SMOOTH",
"208 580 LINE SMOOTH",
"208 522 OFFCURVE",
"234 496 OFFCURVE",
"292 496 CURVE SMOOTH"
);
},
{
closed = 1;
nodes = (
"782 0 LINE SMOOTH",
"1064 0 OFFCURVE",
"1190 124 OFFCURVE",
"1190 408 CURVE SMOOTH",
"1190 1272 LINE SMOOTH",
"1190 1324 OFFCURVE",
"1160 1356 OFFCURVE",
"1106 1356 CURVE SMOOTH",
"1050 1356 OFFCURVE",
"1022 1324 OFFCURVE",
"1022 1272 CURVE SMOOTH",
"1022 408 LINE SMOOTH",
"1022 218 OFFCURVE",
"970 168 OFFCURVE",
"782 168 CURVE SMOOTH",
"616 168 LINE SMOOTH",
"460 168 OFFCURVE",
"398 202 OFFCURVE",
"378 324 CURVE SMOOTH",
"374 380 OFFCURVE",
"346 408 OFFCURVE",
"292 408 CURVE SMOOTH",
"240 408 OFFCURVE",
"206 378 OFFCURVE",
"210 322 CURVE SMOOTH",
"238 98 OFFCURVE",
"364 0 OFFCURVE",
"616 0 CURVE SMOOTH"
);
}
);
width = 1388;
}
);
leftKerningGroup = H;
leftMetricsKey = H;
rightKerningGroup = U;
rightMetricsKey = J;
},
{
color = 9;
glyphname = a;
lastChange = "2019-09-04 19:35:22 +0000";
layers = (
{
anchors = (
{
name = bottom;
position = "{588, 0}";
},
{
name = ogonek;
position = "{956, 0}";
},
{
name = top;
position = "{588, 922}";
}
);
background = {
paths = (
{
closed = 1;
nodes = (
"1000 42 CURVE SMOOTH",
"1000 572 LINE SMOOTH",
"1000 816 OFFCURVE",
"894 922 OFFCURVE",
"650 922 CURVE SMOOTH",
"534 922 LINE SMOOTH",
"306 922 OFFCURVE",
"188 856 OFFCURVE",
"178 704 CURVE SMOOTH",
"176 676 OFFCURVE",
"192 660 OFFCURVE",
"220 660 CURVE SMOOTH",
"246 660 OFFCURVE",
"258 674 OFFCURVE",
"262 700 CURVE SMOOTH",
"278 800 OFFCURVE",
"352 838 OFFCURVE",
"534 838 CURVE SMOOTH",
"650 838 LINE SMOOTH",
"846 838 OFFCURVE",
"916 768 OFFCURVE",
"916 572 CURVE SMOOTH",
"916 42 LINE SMOOTH",
"916 14 OFFCURVE",
"930 0 OFFCURVE",
"958 0 CURVE SMOOTH",
"986 0 OFFCURVE",
"1000 14 OFFCURVE"
);
},
{
closed = 1;
nodes = (
"562 0 LINE SMOOTH",
"802 0 OFFCURVE",
"940 106 OFFCURVE",
"958 300 CURVE SMOOTH",
"958 328 OFFCURVE",
"958 344 OFFCURVE",
"956 344 CURVE SMOOTH",
"930 344 OFFCURVE",
"916 330 OFFCURVE",
"914 304 CURVE SMOOTH",
"896 158 OFFCURVE",
"780 84 OFFCURVE",
"562 84 CURVE SMOOTH",
"450 84 LINE SMOOTH",
"296 84 OFFCURVE",
"244 136 OFFCURVE",
"244 290 CURVE SMOOTH",
"244 446 OFFCURVE",
"296 498 OFFCURVE",
"450 498 CURVE SMOOTH",
"916 498 LINE SMOOTH",
"944 498 OFFCURVE",
"958 512 OFFCURVE",
"958 540 CURVE SMOOTH",
"958 568 OFFCURVE",
"944 582 OFFCURVE",
"916 582 CURVE SMOOTH",
"450 582 LINE SMOOTH",
"250 582 OFFCURVE",
"160 492 OFFCURVE",
"160 290 CURVE SMOOTH",
"160 88 OFFCURVE",
"248 0 OFFCURVE",
"450 0 CURVE SMOOTH"
);
}
);
};
layerId = "C9A88445-F9B1-43BF-9834-532EB19954E9";
paths = (
{
closed = 1;
nodes = (
"562 0 LINE SMOOTH",
"736 0 OFFCURVE",
"856 56 OFFCURVE",
"916 160 CURVE",
"916 42 LINE SMOOTH",
"916 14 OFFCURVE",
"930 0 OFFCURVE",
"958 0 CURVE SMOOTH",
"986 0 OFFCURVE",
"1000 14 OFFCURVE",
"1000 42 CURVE SMOOTH",
"1000 572 LINE SMOOTH",
"1000 816 OFFCURVE",
"894 922 OFFCURVE",
"650 922 CURVE SMOOTH",
"534 922 LINE SMOOTH",
"306 922 OFFCURVE",
"188 856 OFFCURVE",
"178 704 CURVE SMOOTH",
"176 676 OFFCURVE",
"192 660 OFFCURVE",
"220 660 CURVE SMOOTH",
"246 660 OFFCURVE",
"258 674 OFFCURVE",
"262 700 CURVE SMOOTH",
"278 800 OFFCURVE",
"352 838 OFFCURVE",
"534 838 CURVE SMOOTH",
"650 838 LINE SMOOTH",
"843 838 OFFCURVE",
"914 770 OFFCURVE",
"916 582 CURVE",
"450 582 LINE SMOOTH",
"250 582 OFFCURVE",
"160 492 OFFCURVE",
"160 290 CURVE SMOOTH",
"160 88 OFFCURVE",
"248 0 OFFCURVE",
"450 0 CURVE SMOOTH"
);
},
{
closed = 1;
nodes = (
"296 84 OFFCURVE",
"244 136 OFFCURVE",
"244 290 CURVE SMOOTH",
"244 446 OFFCURVE",
"296 498 OFFCURVE",
"450 498 CURVE SMOOTH",
"916 498 LINE",
"916 320 LINE",
"902 151 OFFCURVE",
"771 84 OFFCURVE",
"562 84 CURVE SMOOTH",
"450 84 LINE SMOOTH"
);
}
);
width = 1162;
},
{
anchors = (
{
name = bottom;
position = "{642, 0}";
},
{
name = ogonek;
position = "{972, 14}";
},
{
name = top;
position = "{642, 1014}";
}
);
background = {
paths = (
{
closed = 1;
nodes = (
"1112 84 CURVE SMOOTH",
"1112 622 LINE SMOOTH",
"1112 888 OFFCURVE",
"986 1014 OFFCURVE",
"720 1014 CURVE SMOOTH",
"604 1014 LINE SMOOTH",
"376 1014 OFFCURVE",
"252 946 OFFCURVE",
"212 796 CURVE SMOOTH",
"198 744 OFFCURVE",
"236 710 OFFCURVE",
"292 710 CURVE SMOOTH",
"342 710 OFFCURVE",
"362 728 OFFCURVE",
"386 784 CURVE SMOOTH",
"412 830 OFFCURVE",
"470 846 OFFCURVE",
"604 846 CURVE SMOOTH",
"720 846 LINE SMOOTH",
"894 846 OFFCURVE",
"944 796 OFFCURVE",
"944 622 CURVE SMOOTH",
"944 84 LINE SMOOTH",
"944 30 OFFCURVE",
"974 0 OFFCURVE",
"1028 0 CURVE SMOOTH",
"1082 0 OFFCURVE",
"1112 30 OFFCURVE"
);
},
{
closed = 1;
nodes = (
"632 0 LINE SMOOTH",
"860 0 OFFCURVE",
"1004 126 OFFCURVE",
"1036 356 CURVE SMOOTH",
"1040 376 OFFCURVE",
"1034 386 OFFCURVE",
"1026 386 CURVE SMOOTH",
"970 386 OFFCURVE",
"950 358 OFFCURVE",
"934 306 CURVE SMOOTH",
"902 214 OFFCURVE",
"806 168 OFFCURVE",
"632 168 CURVE SMOOTH",
"520 168 LINE SMOOTH",
"388 168 OFFCURVE",
"356 200 OFFCURVE",
"356 332 CURVE SMOOTH",
"356 462 OFFCURVE",
"388 496 OFFCURVE",
"520 496 CURVE SMOOTH",
"944 496 LINE SMOOTH",
"998 496 OFFCURVE",
"1028 526 OFFCURVE",
"1028 580 CURVE SMOOTH",
"1028 632 OFFCURVE",
"998 664 OFFCURVE",
"944 664 CURVE SMOOTH",
"520 664 LINE SMOOTH",
"294 664 OFFCURVE",
"188 556 OFFCURVE",
"188 332 CURVE SMOOTH",
"188 108 OFFCURVE",
"296 0 OFFCURVE",
"520 0 CURVE SMOOTH"
);
}
);
};
layerId = "9D2B49D7-8C02-48EB-8D57-D561CCF616AE";
paths = (
{
closed = 1;
nodes = (
"632 0 LINE SMOOTH",
"768 0 OFFCURVE",
"874 45 OFFCURVE",
"944 129 CURVE",
"944 84 LINE SMOOTH",
"944 30 OFFCURVE",
"974 0 OFFCURVE",
"1028 0 CURVE SMOOTH",
"1082 0 OFFCURVE",
"1112 30 OFFCURVE",
"1112 84 CURVE SMOOTH",
"1112 622 LINE SMOOTH",
"1112 888 OFFCURVE",
"986 1014 OFFCURVE",
"720 1014 CURVE SMOOTH",
"604 1014 LINE SMOOTH",
"376 1014 OFFCURVE",
"252 946 OFFCURVE",
"212 796 CURVE SMOOTH",
"198 744 OFFCURVE",
"236 710 OFFCURVE",
"292 710 CURVE SMOOTH",
"342 710 OFFCURVE",
"362 728 OFFCURVE",
"386 784 CURVE SMOOTH",
"412 830 OFFCURVE",
"470 846 OFFCURVE",
"604 846 CURVE SMOOTH",
"720 846 LINE SMOOTH",
"879 846 OFFCURVE",
"935 804 OFFCURVE",
"943 664 CURVE",
"520 664 LINE SMOOTH",
"294 664 OFFCURVE",
"188 556 OFFCURVE",
"188 332 CURVE SMOOTH",
"188 108 OFFCURVE",
"296 0 OFFCURVE",
"520 0 CURVE SMOOTH"
);
},
{
closed = 1;
nodes = (
"388 168 OFFCURVE",
"356 200 OFFCURVE",
"356 332 CURVE SMOOTH",
"356 462 OFFCURVE",
"388 496 OFFCURVE",
"520 496 CURVE SMOOTH",
"944 496 LINE",
"944 334 LINE",
"913 200 OFFCURVE",
"779 168 OFFCURVE",
"632 168 CURVE SMOOTH",
"520 168 LINE SMOOTH"
);
}
);
width = 1300;
}
);
leftKerningGroup = a;
leftMetricsKey = "=n-20";
rightKerningGroup = n;
rightMetricsKey = n;
unicode = 0061;
},
{
color = 9;
glyphname = ae;
lastChange = "2019-09-04 19:35:22 +0000";
layers = (
{
anchors = (
{
name = bottom;
position = "{910, 0}";
},
{
name = top;
position = "{910, 922}";
}
);
layerId = "C9A88445-F9B1-43BF-9834-532EB19954E9";
paths = (
{
closed = 1;
nodes = (
"1338 -2 LINE SMOOTH",
"1574 -2 OFFCURVE",
"1680 80 OFFCURVE",
"1680 270 CURVE SMOOTH",
"1680 294 OFFCURVE",
"1662 312 OFFCURVE",
"1638 312 CURVE SMOOTH",
"1614 312 OFFCURVE",
"1596 294 OFFCURVE",
"1596 270 CURVE SMOOTH",
"1596 132 OFFCURVE",
"1530 82 OFFCURVE",
"1338 82 CURVE SMOOTH",
"1216 82 LINE SMOOTH",
"1028 82 OFFCURVE",
"960 154 OFFCURVE",
"960 352 CURVE SMOOTH",
"960 498 LINE",
"1638 498 LINE SMOOTH",
"1664 498 OFFCURVE",
"1680 512 OFFCURVE",
"1680 540 CURVE SMOOTH",
"1680 804 OFFCURVE",
"1574 922 OFFCURVE",
"1338 922 CURVE SMOOTH",
"1218 922 LINE SMOOTH",
"1066 924 OFFCURVE",
"968 874 OFFCURVE",
"918 764 CURVE",
"866 874 OFFCURVE",
"766 924 OFFCURVE",
"610 924 CURVE SMOOTH",
"534 924 LINE SMOOTH",
"286 924 OFFCURVE",
"178 846 OFFCURVE",
"178 702 CURVE SMOOTH",
"178 678 OFFCURVE",
"196 660 OFFCURVE",
"220 660 CURVE SMOOTH",
"244 660 OFFCURVE",
"262 678 OFFCURVE",
"262 702 CURVE SMOOTH",
"262 784 OFFCURVE",
"330 840 OFFCURVE",
"534 840 CURVE SMOOTH",
"610 840 LINE SMOOTH",
"804 840 OFFCURVE",
"874 772 OFFCURVE",
"876 582 CURVE",
"450 582 LINE SMOOTH",
"248 582 OFFCURVE",
"160 494 OFFCURVE",
"160 292 CURVE SMOOTH",
"160 90 OFFCURVE",
"248 2 OFFCURVE",
"450 2 CURVE SMOOTH",
"522 2 LINE SMOOTH",
"712 2 OFFCURVE",
"842 62 OFFCURVE",
"910 176 CURVE",
"956 54 OFFCURVE",
"1056 -2 OFFCURVE",
"1216 -2 CURVE SMOOTH"
);
},
{
closed = 1;
nodes = (
"296 86 OFFCURVE",
"244 138 OFFCURVE",
"244 292 CURVE SMOOTH",
"244 446 OFFCURVE",
"296 498 OFFCURVE",
"450 498 CURVE SMOOTH",
"876 498 LINE",
"876 344 LINE SMOOTH",
"876 172 OFFCURVE",
"760 86 OFFCURVE",
"522 86 CURVE SMOOTH",
"450 86 LINE SMOOTH"
);
},
{
closed = 1;
nodes = (
"962 772 OFFCURVE",
"1030 840 OFFCURVE",
"1218 838 CURVE SMOOTH",
"1338 838 LINE SMOOTH",
"1514 838 OFFCURVE",
"1586 768 OFFCURVE",
"1596 582 CURVE",
"960 582 LINE"
);
}
);
width = 1840;
},
{
anchors = (
{
name = bottom;
position = "{992, 0}";
},
{
name = top;
position = "{992, 1014}";
}
);
layerId = "9D2B49D7-8C02-48EB-8D57-D561CCF616AE";
paths = (
{
closed = 1;
nodes = (
"1408 -44 LINE SMOOTH",
"1666 -44 OFFCURVE",
"1792 44 OFFCURVE",
"1792 260 CURVE SMOOTH",
"1792 306 OFFCURVE",
"1754 344 OFFCURVE",
"1708 344 CURVE SMOOTH",
"1662 344 OFFCURVE",
"1624 306 OFFCURVE",
"1624 260 CURVE SMOOTH",
"1624 150 OFFCURVE",
"1580 124 OFFCURVE",
"1408 124 CURVE SMOOTH",
"1286 124 LINE SMOOTH",
"1124 124 OFFCURVE",
"1072 174 OFFCURVE",
"1072 352 CURVE SMOOTH",
"1072 436 LINE",
"1706 436 LINE SMOOTH",
"1762 436 OFFCURVE",
"1792 466 OFFCURVE",
"1792 520 CURVE SMOOTH",
"1792 826 OFFCURVE",
"1670 964 OFFCURVE",
"1408 964 CURVE SMOOTH",
"1288 964 LINE SMOOTH",
"1150 966 OFFCURVE",
"1052 916 OFFCURVE",
"988 812 CURVE",
"922 916 OFFCURVE",
"820 966 OFFCURVE",
"680 966 CURVE SMOOTH",
"604 966 LINE SMOOTH",
"354 966 OFFCURVE",
"204 872 OFFCURVE",
"204 732 CURVE SMOOTH",
"204 686 OFFCURVE",
"242 648 OFFCURVE",
"288 648 CURVE SMOOTH",
"334 648 OFFCURVE",
"362 686 OFFCURVE",
"372 732 CURVE SMOOTH",
"381 774 OFFCURVE",
"431 798 OFFCURVE",
"604 798 CURVE SMOOTH",
"680 798 LINE SMOOTH",
"834 798 OFFCURVE",
"890 758 OFFCURVE",
"904 604 CURVE",
"520 604 LINE SMOOTH",
"296 604 OFFCURVE",
"188 496 OFFCURVE",
"188 292 CURVE SMOOTH",
"188 68 OFFCURVE",
"296 -40 OFFCURVE",
"520 -40 CURVE SMOOTH",
"592 -40 LINE SMOOTH",
"760 -40 OFFCURVE",
"890 18 OFFCURVE",
"972 128 CURVE",
"1038 12 OFFCURVE",
"1140 -44 OFFCURVE",
"1286 -44 CURVE SMOOTH"
);
},
{
closed = 1;
nodes = (
"388 128 OFFCURVE",
"356 160 OFFCURVE",
"356 292 CURVE SMOOTH",
"356 404 OFFCURVE",
"388 436 OFFCURVE",
"520 436 CURVE SMOOTH",
"904 436 LINE",
"904 344 LINE SMOOTH",
"904 198 OFFCURVE",
"810 128 OFFCURVE",
"592 128 CURVE SMOOTH",
"520 128 LINE SMOOTH"
);
},
{
closed = 1;
nodes = (
"1086 758 OFFCURVE",
"1140 798 OFFCURVE",
"1288 796 CURVE SMOOTH",
"1408 796 LINE SMOOTH",
"1544 796 OFFCURVE",
"1602 754 OFFCURVE",
"1618 604 CURVE",
"1074 604 LINE"
);
}
);
width = 1952;
}
);
leftKerningGroup = a;
leftMetricsKey = a;
rightKerningGroup = e;
rightMetricsKey = e;
unicode = 00E6;
},
{
color = 9;
glyphname = b;
lastChange = "2019-09-04 19:35:22 +0000";
layers = (
{
anchors = (
{
name = bottom;
position = "{648, 0}";
},
{
name = top;
position = "{648, 922}";
}
);
layerId = "C9A88445-F9B1-43BF-9834-532EB19954E9";
paths = (
{
closed = 1;
nodes = (
"250 0 OFFCURVE",
"264 14 OFFCURVE",
"264 42 CURVE SMOOTH",
"264 152 LINE",
"320 52 OFFCURVE",
"430 0 OFFCURVE",
"618 0 CURVE SMOOTH",
"694 0 LINE SMOOTH",
"938 0 OFFCURVE",
"1044 106 OFFCURVE",
"1044 350 CURVE SMOOTH",
"1044 574 LINE SMOOTH",
"1044 818 OFFCURVE",
"938 924 OFFCURVE",
"694 924 CURVE SMOOTH",
"618 924 LINE SMOOTH",
"430 924 OFFCURVE",
"320 872 OFFCURVE",
"264 772 CURVE",
"264 1338 LINE SMOOTH",
"264 1366 OFFCURVE",
"250 1380 OFFCURVE",
"222 1380 CURVE SMOOTH",
"194 1380 OFFCURVE",
"180 1366 OFFCURVE",
"180 1338 CURVE SMOOTH",
"180 42 LINE SMOOTH",
"180 14 OFFCURVE",
"194 0 OFFCURVE",
"222 0 CURVE SMOOTH"
);
},
{
closed = 1;
nodes = (
"403 84 OFFCURVE",
"266 154 OFFCURVE",
"264 296 CURVE SMOOTH",
"264 622 LINE SMOOTH",
"264 768 OFFCURVE",
"400 840 OFFCURVE",
"618 840 CURVE SMOOTH",
"694 840 LINE SMOOTH",
"890 840 OFFCURVE",
"960 770 OFFCURVE",
"960 574 CURVE SMOOTH",
"960 350 LINE SMOOTH",
"960 154 OFFCURVE",
"890 84 OFFCURVE",
"694 84 CURVE SMOOTH",
"618 84 LINE SMOOTH"
);
}
);
width = 1204;
},
{
anchors = (
{
name = bottom;
position = "{726, 0}";
},
{
name = top;
position = "{726, 1014}";
}
);
layerId = "9D2B49D7-8C02-48EB-8D57-D561CCF616AE";
paths = (
{
closed = 1;
nodes = (
"346 0 OFFCURVE",
"376 30 OFFCURVE",
"376 84 CURVE SMOOTH",
"376 106 LINE",
"445 37 OFFCURVE",
"549 0 OFFCURVE",
"688 0 CURVE SMOOTH",
"764 0 LINE SMOOTH",
"1030 0 OFFCURVE",
"1156 126 OFFCURVE",
"1156 392 CURVE SMOOTH",
"1156 622 LINE SMOOTH",
"1156 888 OFFCURVE",
"1030 1014 OFFCURVE",
"764 1014 CURVE SMOOTH",
"688 1014 LINE SMOOTH",
"549 1014 OFFCURVE",
"445 977 OFFCURVE",
"376 907 CURVE",
"376 1324 LINE SMOOTH",
"376 1378 OFFCURVE",
"346 1408 OFFCURVE",
"292 1408 CURVE SMOOTH",
"238 1408 OFFCURVE",
"208 1378 OFFCURVE",
"208 1324 CURVE SMOOTH",
"208 84 LINE SMOOTH",
"208 30 OFFCURVE",
"238 0 OFFCURVE",
"292 0 CURVE SMOOTH"
);
},
{
closed = 1;
nodes = (
"512 168 OFFCURVE",
"376 212 OFFCURVE",
"376 306 CURVE SMOOTH",
"376 708 LINE SMOOTH",
"376 802 OFFCURVE",
"512 846 OFFCURVE",
"688 846 CURVE SMOOTH",
"764 846 LINE SMOOTH",
"936 846 OFFCURVE",
"988 796 OFFCURVE",
"988 622 CURVE SMOOTH",
"988 392 LINE SMOOTH",
"988 220 OFFCURVE",
"938 168 OFFCURVE",
"764 168 CURVE SMOOTH",
"688 168 LINE SMOOTH"
);
}
);
width = 1316;
}
);
leftKerningGroup = h;
leftMetricsKey = n;
rightKerningGroup = o;
rightMetricsKey = o;
unicode = 0062;
},
{
color = 9;
glyphname = c;
lastChange = "2019-09-04 19:35:22 +0000";
layers = (
{
anchors = (
{
name = bottom;
position = "{596, 0}";
},
{
name = top;
position = "{596, 922}";
}
);
layerId = "C9A88445-F9B1-43BF-9834-532EB19954E9";
paths = (
{
closed = 1;
nodes = (
"674 0 LINE SMOOTH",
"870 0 OFFCURVE",
"966 64 OFFCURVE",
"982 206 CURVE SMOOTH",
"984 234 OFFCURVE",
"968 250 OFFCURVE",
"940 250 CURVE SMOOTH",
"914 250 OFFCURVE",
"902 236 OFFCURVE",
"898 210 CURVE SMOOTH",
"886 118 OFFCURVE",
"824 84 OFFCURVE",
"674 84 CURVE SMOOTH",
"510 84 LINE SMOOTH",
"314 84 OFFCURVE",
"244 154 OFFCURVE",
"244 350 CURVE SMOOTH",
"244 574 LINE SMOOTH",
"244 772 OFFCURVE",
"314 840 OFFCURVE",
"510 838 CURVE SMOOTH",
"674 838 LINE SMOOTH",
"824 838 OFFCURVE",
"886 804 OFFCURVE",
"898 712 CURVE SMOOTH",
"902 686 OFFCURVE",
"914 672 OFFCURVE",
"940 672 CURVE SMOOTH",
"968 672 OFFCURVE",
"984 688 OFFCURVE",
"982 716 CURVE SMOOTH",
"966 858 OFFCURVE",
"870 922 OFFCURVE",
"674 922 CURVE SMOOTH",
"510 922 LINE SMOOTH",
"266 924 OFFCURVE",
"160 818 OFFCURVE",
"160 574 CURVE SMOOTH",
"160 350 LINE SMOOTH",
"160 106 OFFCURVE",
"266 0 OFFCURVE",
"510 0 CURVE SMOOTH"
);
}
);
width = 1122;
},
{
anchors = (
{
name = bottom;
position = "{636, 0}";
},
{
name = top;
position = "{632, 1014}";
}
);
layerId = "9D2B49D7-8C02-48EB-8D57-D561CCF616AE";
paths = (
{
closed = 1;
nodes = (
"716 0 LINE SMOOTH",
"914 0 OFFCURVE",
"1028 66 OFFCURVE",
"1060 204 CURVE SMOOTH",
"1072 260 OFFCURVE",
"1036 292 OFFCURVE",
"980 292 CURVE SMOOTH",
"926 292 OFFCURVE",
"908 266 OFFCURVE",
"888 216 CURVE SMOOTH",
"868 180 OFFCURVE",
"818 168 OFFCURVE",
"716 168 CURVE SMOOTH",
"552 168 LINE SMOOTH",
"380 168 OFFCURVE",
"328 218 OFFCURVE",
"328 392 CURVE SMOOTH",
"328 624 LINE SMOOTH",
"328 798 OFFCURVE",
"380 848 OFFCURVE",
"552 846 CURVE SMOOTH",
"716 846 LINE SMOOTH",
"818 846 OFFCURVE",
"868 834 OFFCURVE",
"888 798 CURVE SMOOTH",
"908 750 OFFCURVE",
"926 722 OFFCURVE",
"978 722 CURVE SMOOTH",
"1036 722 OFFCURVE",
"1072 754 OFFCURVE",
"1060 810 CURVE SMOOTH",
"1028 948 OFFCURVE",
"914 1014 OFFCURVE",
"716 1014 CURVE SMOOTH",
"552 1014 LINE SMOOTH",
"284 1016 OFFCURVE",
"160 890 OFFCURVE",
"160 624 CURVE SMOOTH",
"160 392 LINE SMOOTH",
"160 126 OFFCURVE",
"286 0 OFFCURVE",
"552 0 CURVE SMOOTH"
);
}
);
width = 1202;
}
);
leftKerningGroup = o;
leftMetricsKey = o;
rightKerningGroup = c;
rightMetricsKey = "=o-20";
unicode = 0063;
},
{
color = 9;
glyphname = d;
lastChange = "2019-09-04 19:35:22 +0000";
layers = (
{
anchors = (
{
name = bottom;
position = "{540, 0}";
},
{
name = center;
position = "{908, 1142}";
},
{
name = top;
position = "{646, 922}";
},
{
name = topright;
position = "{1106, 922}";
}
);
layerId = "C9A88445-F9B1-43BF-9834-532EB19954E9";
paths = (
{
closed = 1;
nodes = (
"586 0 LINE SMOOTH",
"774 0 OFFCURVE",
"884 52 OFFCURVE",
"940 152 CURVE",
"940 42 LINE SMOOTH",
"940 14 OFFCURVE",
"954 0 OFFCURVE",
"982 0 CURVE SMOOTH",
"1010 0 OFFCURVE",
"1024 14 OFFCURVE",
"1024 42 CURVE SMOOTH",
"1024 1338 LINE SMOOTH",
"1024 1366 OFFCURVE",
"1010 1380 OFFCURVE",
"982 1380 CURVE SMOOTH",
"954 1380 OFFCURVE",
"940 1366 OFFCURVE",
"940 1338 CURVE SMOOTH",
"940 922 LINE",
"510 922 LINE SMOOTH",
"266 922 OFFCURVE",
"160 816 OFFCURVE",
"160 572 CURVE SMOOTH",
"160 350 LINE SMOOTH",
"160 106 OFFCURVE",
"266 0 OFFCURVE",
"510 0 CURVE SMOOTH"
);
},
{
closed = 1;
nodes = (
"314 84 OFFCURVE",
"244 154 OFFCURVE",
"244 350 CURVE SMOOTH",
"244 572 LINE SMOOTH",
"244 768 OFFCURVE",
"314 838 OFFCURVE",
"510 838 CURVE SMOOTH",
"940 838 LINE",
"940 302 LINE SMOOTH",
"940 156 OFFCURVE",
"804 84 OFFCURVE",
"586 84 CURVE SMOOTH",
"510 84 LINE SMOOTH"
);
}
);
width = 1186;
},
{
anchors = (
{
name = bottom;
position = "{652, 0}";
},
{
name = center;
position = "{936, 1190}";
},
{
name = top;
position = "{706, 1014}";
},
{
name = topright;
position = "{1204, 1014}";
}
);
layerId = "9D2B49D7-8C02-48EB-8D57-D561CCF616AE";
paths = (
{
closed = 1;
nodes = (
"628 0 LINE SMOOTH",
"779 0 OFFCURVE",
"877 34 OFFCURVE",
"940 98 CURVE",
"940 84 LINE SMOOTH",
"940 30 OFFCURVE",
"970 0 OFFCURVE",
"1024 0 CURVE SMOOTH",
"1078 0 OFFCURVE",
"1108 30 OFFCURVE",
"1108 84 CURVE SMOOTH",
"1108 1324 LINE SMOOTH",
"1108 1378 OFFCURVE",
"1078 1408 OFFCURVE",
"1024 1408 CURVE SMOOTH",
"970 1408 OFFCURVE",
"940 1378 OFFCURVE",
"940 1324 CURVE SMOOTH",
"940 1014 LINE",
"552 1014 LINE SMOOTH",
"286 1014 OFFCURVE",
"160 888 OFFCURVE",
"160 622 CURVE SMOOTH",
"160 392 LINE SMOOTH",
"160 126 OFFCURVE",
"286 0 OFFCURVE",
"552 0 CURVE SMOOTH"
);
},
{
closed = 1;
nodes = (
"380 168 OFFCURVE",
"328 218 OFFCURVE",
"328 392 CURVE SMOOTH",
"328 622 LINE SMOOTH",
"328 794 OFFCURVE",
"378 846 OFFCURVE",
"552 846 CURVE SMOOTH",
"940 846 LINE",
"940 306 LINE SMOOTH",
"940 212 OFFCURVE",
"804 168 OFFCURVE",
"628 168 CURVE SMOOTH",
"552 168 LINE SMOOTH"
);
}
);
width = 1296;
}
);
leftKerningGroup = o;
leftMetricsKey = o;
rightKerningGroup = d;
rightMetricsKey = n;
unicode = 0064;
},
{
color = 9;
glyphname = eth;
lastChange = "2019-09-04 19:35:22 +0000";
layers = (
{
layerId = "C9A88445-F9B1-43BF-9834-532EB19954E9";
paths = (
{
closed = 1;
nodes = (
"674 2 LINE SMOOTH",
"918 2 OFFCURVE",
"1024 108 OFFCURVE",
"1024 352 CURVE SMOOTH",
"1024 622 LINE SMOOTH",
"1020 1062 OFFCURVE",
"944 1262 OFFCURVE",
"766 1306 CURVE SMOOTH",
"306 1424 LINE SMOOTH",
"278 1432 OFFCURVE",
"260 1420 OFFCURVE",
"254 1394 CURVE SMOOTH",
"248 1368 OFFCURVE",
"258 1350 OFFCURVE",
"284 1342 CURVE SMOOTH",
"746 1226 LINE SMOOTH",
"852 1198 OFFCURVE",
"910 1080 OFFCURVE",
"930 826 CURVE",
"874 892 OFFCURVE",
"784 924 OFFCURVE",
"674 924 CURVE SMOOTH",
"510 924 LINE SMOOTH",
"266 926 OFFCURVE",
"160 820 OFFCURVE",
"160 574 CURVE SMOOTH",
"160 350 LINE SMOOTH",
"160 108 OFFCURVE",
"266 2 OFFCURVE",
"510 2 CURVE SMOOTH"
);
},
{
closed = 1;
nodes = (
"314 86 OFFCURVE",
"244 156 OFFCURVE",
"244 350 CURVE SMOOTH",
"244 574 LINE SMOOTH",
"244 772 OFFCURVE",
"314 842 OFFCURVE",
"510 840 CURVE SMOOTH",
"674 840 LINE SMOOTH",
"832 840 OFFCURVE",
"940 788 OFFCURVE",
"940 622 CURVE SMOOTH",
"940 352 LINE SMOOTH",
"940 156 OFFCURVE",
"870 86 OFFCURVE",
"674 86 CURVE SMOOTH",
"510 86 LINE SMOOTH"
);
},
{
closed = 1;
nodes = (
"722 1422 LINE SMOOTH",
"742 1442 OFFCURVE",
"742 1462 OFFCURVE",
"724 1482 CURVE SMOOTH",
"706 1502 OFFCURVE",
"684 1502 OFFCURVE",
"664 1484 CURVE SMOOTH",
"358 1198 LINE SMOOTH",
"338 1178 OFFCURVE",
"338 1158 OFFCURVE",
"356 1138 CURVE SMOOTH",
"374 1118 OFFCURVE",
"396 1118 OFFCURVE",
"416 1136 CURVE SMOOTH"
);
}
);
width = 1184;
},
{
layerId = "9D2B49D7-8C02-48EB-8D57-D561CCF616AE";
paths = (
{
closed = 1;
nodes = (
"716 0 LINE SMOOTH",
"982 0 OFFCURVE",
"1108 124 OFFCURVE",
"1108 392 CURVE SMOOTH",
"1108 678 LINE SMOOTH",
"1098 1106 OFFCURVE",
"1016 1302 OFFCURVE",
"820 1348 CURVE SMOOTH",
"350 1466 LINE SMOOTH",
"298 1480 OFFCURVE",
"262 1460 OFFCURVE",
"248 1406 CURVE SMOOTH",
"234 1352 OFFCURVE",
"256 1316 OFFCURVE",
"310 1302 CURVE SMOOTH",
"776 1184 LINE SMOOTH",
"852 1168 OFFCURVE",
"902 1122 OFFCURVE",
"924 926 CURVE",
"866 984 OFFCURVE",
"798 1014 OFFCURVE",
"716 1014 CURVE SMOOTH",
"552 1014 LINE SMOOTH",
"286 1012 OFFCURVE",
"160 890 OFFCURVE",
"160 622 CURVE SMOOTH",
"160 390 LINE SMOOTH",
"160 124 OFFCURVE",
"286 0 OFFCURVE",
"552 0 CURVE SMOOTH"
);
},
{
closed = 1;
nodes = (
"378 168 OFFCURVE",
"328 218 OFFCURVE",
"328 390 CURVE SMOOTH",
"328 622 LINE SMOOTH",
"328 798 OFFCURVE",
"378 844 OFFCURVE",
"552 846 CURVE SMOOTH",
"716 846 LINE SMOOTH",
"904 846 OFFCURVE",
"940 788 OFFCURVE",
"940 602 CURVE SMOOTH",
"940 392 LINE SMOOTH",
"940 218 OFFCURVE",
"890 168 OFFCURVE",
"716 168 CURVE SMOOTH",
"552 168 LINE SMOOTH"
);
},
{
closed = 1;
nodes = (
"814 1394 LINE SMOOTH",
"848 1426 OFFCURVE",
"848 1462 OFFCURVE",
"816 1496 CURVE SMOOTH",
"784 1530 OFFCURVE",
"748 1532 OFFCURVE",
"714 1498 CURVE SMOOTH",
"420 1220 LINE SMOOTH",
"386 1190 OFFCURVE",
"386 1152 OFFCURVE",
"418 1118 CURVE SMOOTH",
"450 1084 OFFCURVE",
"486 1082 OFFCURVE",
"520 1116 CURVE SMOOTH"
);
}
);
width = 1268;
}
);
leftKerningGroup = o;
leftMetricsKey = o;
rightKerningGroup = o;
rightMetricsKey = o;
unicode = 00F0;
},
{
color = 9;
glyphname = e;
lastChange = "2019-09-04 19:35:22 +0000";
layers = (
{
anchors = (
{
name = bottom;
position = "{608, 0}";
},
{
name = ogonek;
position = "{942, 88}";
},
{
name = top;
position = "{608, 922}";
}
);
background = {
paths = (
{
closed = 1;
nodes = (
"674 0 LINE SMOOTH",
"898 0 OFFCURVE",
"1008 76 OFFCURVE",
"1022 246 CURVE SMOOTH",
"1024 274 OFFCURVE",
"1008 290 OFFCURVE",
"982 290 CURVE SMOOTH",
"954 290 OFFCURVE",
"940 276 OFFCURVE",
"938 248 CURVE SMOOTH",
"926 128 OFFCURVE",
"854 84 OFFCURVE",
"674 84 CURVE SMOOTH",
"510 84 LINE SMOOTH",
"314 84 OFFCURVE",
"244 154 OFFCURVE",
"244 348 CURVE SMOOTH",
"244 572 LINE SMOOTH",
"244 770 OFFCURVE",
"314 840 OFFCURVE",
"510 838 CURVE SMOOTH",
"674 838 LINE SMOOTH",
"870 838 OFFCURVE",
"940 768 OFFCURVE",
"940 572 CURVE SMOOTH",
"940 476 LINE",
"978 514 LINE",
"234 514 LINE",
"234 430 LINE",
"982 430 LINE SMOOTH",
"1010 430 OFFCURVE",
"1024 446 OFFCURVE",
"1024 472 CURVE SMOOTH",
"1024 572 LINE SMOOTH",
"1024 816 OFFCURVE",
"918 922 OFFCURVE",
"674 922 CURVE SMOOTH",
"510 922 LINE SMOOTH",
"266 924 OFFCURVE",
"160 818 OFFCURVE",
"160 572 CURVE SMOOTH",
"160 348 LINE SMOOTH",
"160 106 OFFCURVE",
"266 0 OFFCURVE",
"510 0 CURVE SMOOTH"
);
}
);
};
layerId = "C9A88445-F9B1-43BF-9834-532EB19954E9";
paths = (
{
closed = 1;
nodes = (
"982 430 LINE SMOOTH",
"1010 430 OFFCURVE",
"1024 446 OFFCURVE",
"1024 472 CURVE SMOOTH",
"1024 572 LINE SMOOTH",
"1024 816 OFFCURVE",
"918 922 OFFCURVE",
"674 922 CURVE SMOOTH",
"510 922 LINE SMOOTH",
"266 924 OFFCURVE",
"160 818 OFFCURVE",
"160 572 CURVE SMOOTH",
"160 348 LINE SMOOTH",
"160 106 OFFCURVE",
"266 0 OFFCURVE",
"510 0 CURVE SMOOTH",
"674 0 LINE SMOOTH",
"898 0 OFFCURVE",
"1008 76 OFFCURVE",
"1022 246 CURVE SMOOTH",
"1024 274 OFFCURVE",
"1008 290 OFFCURVE",
"982 290 CURVE SMOOTH",
"954 290 OFFCURVE",
"940 276 OFFCURVE",
"938 248 CURVE SMOOTH",
"926 128 OFFCURVE",
"854 84 OFFCURVE",
"674 84 CURVE SMOOTH",
"510 84 LINE SMOOTH",
"314 84 OFFCURVE",
"244 154 OFFCURVE",
"244 348 CURVE SMOOTH",
"244 430 LINE"
);
},
{
closed = 1;
nodes = (
"674 838 LINE SMOOTH",
"870 838 OFFCURVE",
"940 768 OFFCURVE",
"940 572 CURVE SMOOTH",
"940 514 LINE",
"244 514 LINE",
"244 572 LINE SMOOTH",
"244 770 OFFCURVE",
"314 840 OFFCURVE",
"510 838 CURVE SMOOTH"
);
}
);
width = 1184;
},
{
anchors = (
{
name = bottom;
position = "{636, 0}";
},
{
name = ogonek;
position = "{998, 136}";
},
{
name = top;
position = "{636, 1014}";
}
);
background = {
paths = (
{
closed = 1;
nodes = (
"716 0 LINE SMOOTH",
"942 0 OFFCURVE",
"1070 80 OFFCURVE",
"1100 246 CURVE SMOOTH",
"1110 302 OFFCURVE",
"1078 332 OFFCURVE",
"1022 332 CURVE SMOOTH",
"968 332 OFFCURVE",
"946 304 OFFCURVE",
"932 254 CURVE SMOOTH",
"910 190 OFFCURVE",
"852 168 OFFCURVE",
"716 168 CURVE SMOOTH",
"552 168 LINE SMOOTH",
"378 168 OFFCURVE",
"328 218 OFFCURVE",
"328 390 CURVE SMOOTH",
"328 622 LINE SMOOTH",
"328 798 OFFCURVE",
"378 848 OFFCURVE",
"552 846 CURVE SMOOTH",
"716 846 LINE SMOOTH",
"890 846 OFFCURVE",
"940 796 OFFCURVE",
"940 622 CURVE SMOOTH",
"940 530 LINE",
"1016 606 LINE",
"316 606 LINE",
"316 438 LINE",
"1024 438 LINE SMOOTH",
"1078 438 OFFCURVE",
"1108 468 OFFCURVE",
"1108 522 CURVE SMOOTH",
"1108 622 LINE SMOOTH",
"1108 890 OFFCURVE",
"982 1014 OFFCURVE",
"716 1014 CURVE SMOOTH",
"552 1014 LINE SMOOTH",
"286 1016 OFFCURVE",
"160 892 OFFCURVE",
"160 622 CURVE SMOOTH",
"160 390 LINE SMOOTH",
"160 126 OFFCURVE",
"286 0 OFFCURVE",
"552 0 CURVE SMOOTH"
);
}
);
};
layerId = "9D2B49D7-8C02-48EB-8D57-D561CCF616AE";
paths = (
{
closed = 1;
nodes = (
"1024 438 LINE SMOOTH",
"1078 438 OFFCURVE",
"1108 468 OFFCURVE",
"1108 522 CURVE SMOOTH",
"1108 622 LINE SMOOTH",
"1108 890 OFFCURVE",
"982 1014 OFFCURVE",
"716 1014 CURVE SMOOTH",
"552 1014 LINE SMOOTH",
"286 1016 OFFCURVE",
"160 892 OFFCURVE",
"160 622 CURVE SMOOTH",
"160 390 LINE SMOOTH",
"160 126 OFFCURVE",
"286 0 OFFCURVE",
"552 0 CURVE SMOOTH",
"716 0 LINE SMOOTH",
"942 0 OFFCURVE",
"1070 80 OFFCURVE",
"1100 246 CURVE SMOOTH",
"1110 302 OFFCURVE",
"1078 332 OFFCURVE",
"1022 332 CURVE SMOOTH",
"968 332 OFFCURVE",
"946 304 OFFCURVE",
"932 254 CURVE SMOOTH",
"910 190 OFFCURVE",
"852 168 OFFCURVE",
"716 168 CURVE SMOOTH",
"552 168 LINE SMOOTH",
"378 168 OFFCURVE",
"328 218 OFFCURVE",
"328 390 CURVE SMOOTH",
"328 438 LINE"
);
},
{
closed = 1;
nodes = (
"716 846 LINE SMOOTH",
"890 846 OFFCURVE",
"940 796 OFFCURVE",
"940 622 CURVE SMOOTH",
"940 606 LINE",
"328 606 LINE",
"328 622 LINE SMOOTH",
"328 798 OFFCURVE",
"378 848 OFFCURVE",
"552 846 CURVE SMOOTH"
);
}
);
width = 1268;
}
);
leftKerningGroup = o;
leftMetricsKey = o;
rightKerningGroup = o;
rightMetricsKey = o;
unicode = 0065;
},
{
color = 9;
glyphname = f;
lastChange = "2019-09-04 19:35:22 +0000";
layers = (
{
anchors = (
{
name = bottom;
position = "{310, 0}";
},
{
name = top;
position = "{450, 1318}";
}
);
layerId = "C9A88445-F9B1-43BF-9834-532EB19954E9";
paths = (
{
closed = 1;
nodes = (
"260 0 OFFCURVE",
"274 14 OFFCURVE",
"274 42 CURVE SMOOTH",
"274 838 LINE",
"536 838 LINE SMOOTH",
"564 838 OFFCURVE",
"578 852 OFFCURVE",
"578 880 CURVE SMOOTH",
"578 908 OFFCURVE",
"564 922 OFFCURVE",
"536 922 CURVE SMOOTH",
"274 922 LINE",
"274 1036 LINE SMOOTH",
"274 1228 OFFCURVE",
"342 1296 OFFCURVE",
"534 1296 CURVE SMOOTH",
"562 1296 OFFCURVE",
"578 1310 OFFCURVE",
"578 1338 CURVE SMOOTH",
"578 1366 OFFCURVE",
"562 1380 OFFCURVE",
"534 1380 CURVE SMOOTH",
"294 1380 OFFCURVE",
"190 1276 OFFCURVE",
"190 1036 CURVE SMOOTH",
"190 922 LINE",
"102 922 LINE SMOOTH",
"74 922 OFFCURVE",
"60 908 OFFCURVE",
"60 880 CURVE SMOOTH",
"60 852 OFFCURVE",
"74 838 OFFCURVE",
"102 838 CURVE SMOOTH",
"190 838 LINE",
"190 42 LINE SMOOTH",
"190 14 OFFCURVE",
"204 0 OFFCURVE",
"232 0 CURVE SMOOTH"
);
}
);
width = 618;
},
{
anchors = (
{
name = bottom;
position = "{386, 0}";
},
{
name = top;
position = "{490, 1308}";
}
);
layerId = "9D2B49D7-8C02-48EB-8D57-D561CCF616AE";
paths = (
{
closed = 1;
nodes = (
"384 0 OFFCURVE",
"414 30 OFFCURVE",
"414 84 CURVE SMOOTH",
"414 846 LINE",
"620 846 LINE SMOOTH",
"674 846 OFFCURVE",
"704 876 OFFCURVE",
"704 930 CURVE SMOOTH",
"704 986 OFFCURVE",
"674 1014 OFFCURVE",
"620 1014 CURVE SMOOTH",
"414 1014 LINE",
"414 1022 LINE SMOOTH",
"414 1192 OFFCURVE",
"464 1240 OFFCURVE",
"632 1240 CURVE SMOOTH",
"676 1240 OFFCURVE",
"704 1270 OFFCURVE",
"704 1324 CURVE SMOOTH",
"704 1380 OFFCURVE",
"678 1408 OFFCURVE",
"632 1408 CURVE SMOOTH",
"370 1408 OFFCURVE",
"246 1284 OFFCURVE",
"246 1022 CURVE SMOOTH",
"246 1014 LINE",
"172 1014 LINE SMOOTH",
"118 1014 OFFCURVE",
"88 986 OFFCURVE",
"88 930 CURVE SMOOTH",
"88 876 OFFCURVE",
"118 846 OFFCURVE",
"172 846 CURVE SMOOTH",
"246 846 LINE",
"246 84 LINE SMOOTH",
"246 30 OFFCURVE",
"276 0 OFFCURVE",
"330 0 CURVE SMOOTH"
);
}
);
width = 772;
}
);
leftKerningGroup = f;
rightKerningGroup = f;
unicode = 0066;
},
{
color = 9;
glyphname = g;
lastChange = "2019-09-04 19:35:22 +0000";
layers = (
{
anchors = (
{
name = bottom;
position = "{578, -400}";
},
{
name = top;
position = "{602, 922}";
}
);
background = {
paths = (
{
closed = 1;
nodes = (
"778 -400 LINE SMOOTH",
"948 -400 OFFCURVE",
"1024 -324 OFFCURVE",
"1024 -154 CURVE SMOOTH",
"1024 880 LINE SMOOTH",
"1024 908 OFFCURVE",
"1010 922 OFFCURVE",
"982 922 CURVE SMOOTH",
"954 922 OFFCURVE",
"940 908 OFFCURVE",
"940 880 CURVE SMOOTH",
"940 -154 LINE SMOOTH",
"940 -278 OFFCURVE",
"902 -316 OFFCURVE",
"778 -316 CURVE SMOOTH",
"406 -316 LINE SMOOTH",
"298 -316 OFFCURVE",
"254 -288 OFFCURVE",
"246 -196 CURVE SMOOTH",
"244 -168 OFFCURVE",
"230 -154 OFFCURVE",
"202 -154 CURVE SMOOTH",
"176 -154 OFFCURVE",
"160 -170 OFFCURVE",
"162 -198 CURVE SMOOTH",
"174 -338 OFFCURVE",
"250 -400 OFFCURVE",
"406 -400 CURVE SMOOTH"
);
},
{
closed = 1;
nodes = (
"586 0 LINE SMOOTH",
"850 0 OFFCURVE",
"964 104 OFFCURVE",
"984 298 CURVE",
"980 342 LINE",
"940 302 LINE",
"940 156 OFFCURVE",
"804 84 OFFCURVE",
"586 84 CURVE SMOOTH",
"510 84 LINE SMOOTH",
"314 84 OFFCURVE",
"244 154 OFFCURVE",
"244 348 CURVE SMOOTH",
"244 572 LINE SMOOTH",
"244 770 OFFCURVE",
"314 840 OFFCURVE",
"510 838 CURVE SMOOTH",
"674 838 LINE SMOOTH",
"856 838 OFFCURVE",
"940 778 OFFCURVE",
"940 614 CURVE",
"982 572 LINE",
"984 616 LINE",
"972 828 OFFCURVE",
"902 922 OFFCURVE",
"674 922 CURVE SMOOTH",
"510 922 LINE SMOOTH",
"266 924 OFFCURVE",
"160 818 OFFCURVE",
"160 572 CURVE SMOOTH",
"160 348 LINE SMOOTH",
"160 106 OFFCURVE",
"266 0 OFFCURVE",
"510 0 CURVE SMOOTH"
);
}
);
};
layerId = "C9A88445-F9B1-43BF-9834-532EB19954E9";
paths = (
{
closed = 1;
nodes = (
"778 -400 LINE SMOOTH",
"948 -400 OFFCURVE",
"1024 -324 OFFCURVE",
"1024 -154 CURVE SMOOTH",
"1024 880 LINE SMOOTH",
"1024 908 OFFCURVE",
"1010 922 OFFCURVE",
"982 922 CURVE SMOOTH",
"954 922 OFFCURVE",
"940 908 OFFCURVE",
"940 880 CURVE SMOOTH",
"940 807 LINE",
"896 886 OFFCURVE",
"816 922 OFFCURVE",
"674 922 CURVE SMOOTH",
"510 922 LINE SMOOTH",
"266 922 OFFCURVE",
"160 818 OFFCURVE",
"160 572 CURVE SMOOTH",
"160 348 LINE SMOOTH",
"160 106 OFFCURVE",
"266 0 OFFCURVE",
"510 0 CURVE SMOOTH",
"586 0 LINE SMOOTH",
"772 0 OFFCURVE",
"883 51 OFFCURVE",
"940 150 CURVE",
"940 -154 LINE SMOOTH",
"940 -278 OFFCURVE",
"902 -316 OFFCURVE",
"778 -316 CURVE SMOOTH",
"406 -316 LINE SMOOTH",
"298 -316 OFFCURVE",
"254 -288 OFFCURVE",
"246 -196 CURVE SMOOTH",
"244 -168 OFFCURVE",
"230 -154 OFFCURVE",
"202 -154 CURVE SMOOTH",
"176 -154 OFFCURVE",
"160 -170 OFFCURVE",
"162 -198 CURVE SMOOTH",
"174 -338 OFFCURVE",
"250 -400 OFFCURVE",
"406 -400 CURVE SMOOTH"
);
},
{
closed = 1;
nodes = (
"314 84 OFFCURVE",
"244 154 OFFCURVE",
"244 348 CURVE SMOOTH",
"244 572 LINE SMOOTH",
"244 770 OFFCURVE",
"314 838 OFFCURVE",
"510 838 CURVE SMOOTH",
"674 838 LINE SMOOTH",
"856 838 OFFCURVE",
"940 778 OFFCURVE",
"940 614 CURVE SMOOTH",
"940 302 LINE SMOOTH",
"940 156 OFFCURVE",
"804 84 OFFCURVE",
"586 84 CURVE SMOOTH",
"510 84 LINE SMOOTH"
);
}
);
width = 1186;
},
{
anchors = (
{
name = bottom;
position = "{640, -400}";
},
{
name = top;
position = "{624, 1014}";
}
);
background = {
paths = (
{
closed = 1;
nodes = (
"820 -400 LINE SMOOTH",
"1016 -400 OFFCURVE",
"1108 -308 OFFCURVE",
"1108 -112 CURVE SMOOTH",
"1108 930 LINE SMOOTH",
"1108 986 OFFCURVE",
"1078 1014 OFFCURVE",
"1024 1014 CURVE SMOOTH",
"970 1014 OFFCURVE",
"940 986 OFFCURVE",
"940 930 CURVE SMOOTH",
"940 -112 LINE SMOOTH",
"940 -210 OFFCURVE",
"920 -232 OFFCURVE",
"820 -232 CURVE SMOOTH",
"448 -232 LINE SMOOTH",
"382 -232 OFFCURVE",
"352 -224 OFFCURVE",
"336 -194 CURVE SMOOTH",
"318 -140 OFFCURVE",
"300 -112 OFFCURVE",
"250 -112 CURVE SMOOTH",
"190 -112 OFFCURVE",
"158 -146 OFFCURVE",
"168 -202 CURVE SMOOTH",
"194 -336 OFFCURVE",
"286 -400 OFFCURVE",
"448 -400 CURVE SMOOTH"
);
},
{
closed = 1;
nodes = (
"628 0 LINE SMOOTH",
"846 0 OFFCURVE",
"1000 114 OFFCURVE",
"1032 324 CURVE SMOOTH",
"1032 356 OFFCURVE",
"1038 384 OFFCURVE",
"1020 384 CURVE SMOOTH",
"966 384 OFFCURVE",
"940 358 OFFCURVE",
"940 306 CURVE SMOOTH",
"940 210 OFFCURVE",
"804 168 OFFCURVE",
"628 168 CURVE SMOOTH",
"552 168 LINE SMOOTH",
"378 168 OFFCURVE",
"328 220 OFFCURVE",
"328 390 CURVE SMOOTH",
"328 622 LINE SMOOTH",
"328 798 OFFCURVE",
"380 848 OFFCURVE",
"552 846 CURVE SMOOTH",
"716 846 LINE SMOOTH",
"858 846 OFFCURVE",
"940 814 OFFCURVE",
"940 706 CURVE SMOOTH",
"940 650 OFFCURVE",
"968 622 OFFCURVE",
"1022 622 CURVE SMOOTH",
"1029 622 OFFCURVE",
"1034 633 OFFCURVE",
"1034 682 CURVE SMOOTH",
"1014 908 OFFCURVE",
"900 1014 OFFCURVE",
"716 1014 CURVE SMOOTH",
"552 1014 LINE SMOOTH",
"284 1016 OFFCURVE",
"160 890 OFFCURVE",
"160 622 CURVE SMOOTH",
"160 390 LINE SMOOTH",
"160 126 OFFCURVE",
"286 0 OFFCURVE",
"552 0 CURVE SMOOTH"
);
}
);
};
layerId = "9D2B49D7-8C02-48EB-8D57-D561CCF616AE";
paths = (
{
closed = 1;
nodes = (
"820 -400 LINE SMOOTH",
"1016 -400 OFFCURVE",
"1108 -308 OFFCURVE",
"1108 -112 CURVE SMOOTH",
"1108 930 LINE SMOOTH",
"1108 986 OFFCURVE",
"1078 1014 OFFCURVE",
"1024 1014 CURVE SMOOTH",
"971 1014 OFFCURVE",
"940 988 OFFCURVE",
"940 930 CURVE SMOOTH",
"940 929 LINE",
"886 986 OFFCURVE",
"810 1014 OFFCURVE",
"716 1014 CURVE SMOOTH",
"552 1014 LINE SMOOTH",
"284 1014 OFFCURVE",
"160 890 OFFCURVE",
"160 622 CURVE SMOOTH",
"160 390 LINE SMOOTH",
"160 126 OFFCURVE",
"286 0 OFFCURVE",
"552 0 CURVE SMOOTH",
"628 0 LINE SMOOTH",
"760 0 OFFCURVE",
"868 42 OFFCURVE",
"940 121 CURVE",
"940 -112 LINE SMOOTH",
"940 -210 OFFCURVE",
"920 -232 OFFCURVE",
"820 -232 CURVE SMOOTH",
"448 -232 LINE SMOOTH",
"382 -232 OFFCURVE",
"352 -224 OFFCURVE",
"336 -194 CURVE SMOOTH",
"318 -140 OFFCURVE",
"300 -112 OFFCURVE",
"250 -112 CURVE SMOOTH",
"190 -112 OFFCURVE",
"158 -146 OFFCURVE",
"168 -202 CURVE SMOOTH",
"194 -336 OFFCURVE",
"286 -400 OFFCURVE",
"448 -400 CURVE SMOOTH"
);
},
{
closed = 1;
nodes = (
"378 168 OFFCURVE",
"328 220 OFFCURVE",
"328 390 CURVE SMOOTH",
"328 622 LINE SMOOTH",
"328 798 OFFCURVE",
"380 846 OFFCURVE",
"552 846 CURVE SMOOTH",
"716 846 LINE SMOOTH",
"858 846 OFFCURVE",
"940 814 OFFCURVE",
"940 706 CURVE SMOOTH",
"940 306 LINE SMOOTH",
"940 210 OFFCURVE",
"804 168 OFFCURVE",
"628 168 CURVE SMOOTH",
"552 168 LINE SMOOTH"
);
}
);
width = 1296;
}
);
leftKerningGroup = o;
leftMetricsKey = o;
rightKerningGroup = u;
rightMetricsKey = n;
unicode = 0067;
},
{
color = 9;
glyphname = h;
lastChange = "2019-09-04 19:35:22 +0000";
layers = (
{
anchors = (
{
name = bottom;
position = "{632, 0}";
},
{
name = center;
position = "{302, 1142}";
},
{
name = top;
position = "{228, 1346}";
}
);
background = {
anchors = (
{
name = bottom;
position = "{632, 0}";
},
{
name = center;
position = "{302, 1142}";
},
{
name = top;
position = "{228, 1346}";
}
);
paths = (
{
closed = 1;
nodes = (
"1010 0 OFFCURVE",
"1024 14 OFFCURVE",
"1024 42 CURVE SMOOTH",
"1024 574 LINE SMOOTH",
"1024 818 OFFCURVE",
"918 924 OFFCURVE",
"674 924 CURVE SMOOTH",
"618 924 LINE SMOOTH",
"378 924 OFFCURVE",
"240 820 OFFCURVE",
"222 626 CURVE SMOOTH",
"222 598 OFFCURVE",
"222 582 OFFCURVE",
"224 582 CURVE SMOOTH",
"250 582 OFFCURVE",
"264 596 OFFCURVE",
"266 622 CURVE SMOOTH",
"284 768 OFFCURVE",
"400 840 OFFCURVE",
"618 840 CURVE SMOOTH",
"674 840 LINE SMOOTH",
"870 840 OFFCURVE",
"940 770 OFFCURVE",
"940 574 CURVE SMOOTH",
"940 42 LINE SMOOTH",
"940 14 OFFCURVE",
"954 0 OFFCURVE",
"982 0 CURVE SMOOTH"
);
},
{
closed = 1;
nodes = (
"250 0 OFFCURVE",
"264 14 OFFCURVE",
"264 42 CURVE SMOOTH",
"264 1338 LINE SMOOTH",
"264 1366 OFFCURVE",
"250 1380 OFFCURVE",
"222 1380 CURVE SMOOTH",
"194 1380 OFFCURVE",
"180 1366 OFFCURVE",
"180 1338 CURVE SMOOTH",
"180 42 LINE SMOOTH",
"180 14 OFFCURVE",
"194 0 OFFCURVE",
"222 0 CURVE SMOOTH"
);
}
);
};
layerId = "C9A88445-F9B1-43BF-9834-532EB19954E9";
paths = (
{
closed = 1;
nodes = (
"250 0 OFFCURVE",
"264 14 OFFCURVE",
"264 42 CURVE SMOOTH",
"264 606 LINE",
"277 764 OFFCURVE",
"397 838 OFFCURVE",
"618 838 CURVE SMOOTH",
"674 838 LINE SMOOTH",
"870 838 OFFCURVE",
"940 768 OFFCURVE",
"940 572 CURVE SMOOTH",
"940 42 LINE SMOOTH",
"940 14 OFFCURVE",
"954 0 OFFCURVE",
"982 0 CURVE SMOOTH",
"1010 0 OFFCURVE",
"1024 14 OFFCURVE",
"1024 42 CURVE SMOOTH",
"1024 572 LINE SMOOTH",
"1024 816 OFFCURVE",
"918 922 OFFCURVE",
"674 922 CURVE SMOOTH",
"618 922 LINE SMOOTH",
"444 922 OFFCURVE",
"324 868 OFFCURVE",
"264 764 CURVE",
"264 1338 LINE SMOOTH",
"264 1366 OFFCURVE",
"250 1380 OFFCURVE",
"222 1380 CURVE SMOOTH",
"194 1380 OFFCURVE",
"180 1366 OFFCURVE",
"180 1338 CURVE SMOOTH",
"180 42 LINE SMOOTH",
"180 14 OFFCURVE",
"194 0 OFFCURVE",
"222 0 CURVE SMOOTH"
);
}
);
width = 1186;
},
{
anchors = (
{
name = bottom;
position = "{674, 0}";
},
{
name = center;
position = "{400, 1166}";
},
{
name = top;
position = "{292, 1420}";
}
);
background = {
paths = (
{
closed = 1;
nodes = (
"1106 0 OFFCURVE",
"1136 30 OFFCURVE",
"1136 84 CURVE SMOOTH",
"1136 622 LINE SMOOTH",
"1136 888 OFFCURVE",
"1010 1014 OFFCURVE",
"744 1014 CURVE SMOOTH",
"688 1014 LINE SMOOTH",
"412 1014 OFFCURVE",
"238 910 OFFCURVE",
"200 716 CURVE SMOOTH",
"188 662 OFFCURVE",
"228 630 OFFCURVE",
"296 630 CURVE SMOOTH",
"350 630 OFFCURVE",
"372 656 OFFCURVE",
"386 708 CURVE SMOOTH",
"416 800 OFFCURVE",
"511 846 OFFCURVE",
"688 846 CURVE SMOOTH",
"744 846 LINE SMOOTH",
"916 846 OFFCURVE",
"968 796 OFFCURVE",
"968 622 CURVE SMOOTH",
"968 84 LINE SMOOTH",
"968 30 OFFCURVE",
"998 0 OFFCURVE",
"1052 0 CURVE SMOOTH"
);
},
{
closed = 1;
nodes = (
"346 0 OFFCURVE",
"376 30 OFFCURVE",
"376 84 CURVE SMOOTH",
"376 1324 LINE SMOOTH",
"376 1378 OFFCURVE",
"346 1408 OFFCURVE",
"292 1408 CURVE SMOOTH",
"238 1408 OFFCURVE",
"208 1378 OFFCURVE",
"208 1324 CURVE SMOOTH",
"208 84 LINE SMOOTH",
"208 30 OFFCURVE",
"238 0 OFFCURVE",
"292 0 CURVE SMOOTH"
);
}
);
};
layerId = "9D2B49D7-8C02-48EB-8D57-D561CCF616AE";
paths = (
{
closed = 1;
nodes = (
"346 0 OFFCURVE",
"376 30 OFFCURVE",
"376 84 CURVE SMOOTH",
"376 732 LINE",
"394 810 OFFCURVE",
"528 846 OFFCURVE",
"688 846 CURVE SMOOTH",
"744 846 LINE SMOOTH",
"916 846 OFFCURVE",
"968 796 OFFCURVE",
"968 622 CURVE SMOOTH",
"968 84 LINE SMOOTH",
"968 30 OFFCURVE",
"998 0 OFFCURVE",
"1052 0 CURVE SMOOTH",
"1106 0 OFFCURVE",
"1136 30 OFFCURVE",
"1136 84 CURVE SMOOTH",
"1136 622 LINE SMOOTH",
"1136 888 OFFCURVE",
"1010 1014 OFFCURVE",
"744 1014 CURVE SMOOTH",
"688 1014 LINE SMOOTH",
"552 1014 OFFCURVE",
"446 974 OFFCURVE",
"376 897 CURVE",
"376 1324 LINE SMOOTH",
"376 1380 OFFCURVE",
"346 1408 OFFCURVE",
"292 1408 CURVE SMOOTH",
"238 1408 OFFCURVE",
"208 1380 OFFCURVE",
"208 1324 CURVE SMOOTH",
"208 84 LINE SMOOTH",
"208 30 OFFCURVE",
"238 0 OFFCURVE",
"292 0 CURVE SMOOTH"
);
}
);
width = 1324;
}
);
leftKerningGroup = h;
leftMetricsKey = n;
rightKerningGroup = n;
rightMetricsKey = n;
unicode = 0068;
},
{
color = 9;
glyphname = idotless;
lastChange = "2019-09-04 19:35:22 +0000";
layers = (
{
anchors = (
{
name = bottom;
position = "{222, 0}";
},
{
name = ogonek;
position = "{222, 0}";
},
{
name = top;
position = "{222, 922}";
}
);
layerId = "C9A88445-F9B1-43BF-9834-532EB19954E9";
paths = (
{
closed = 1;
nodes = (
"250 0 OFFCURVE",
"264 14 OFFCURVE",
"264 42 CURVE SMOOTH",
"264 880 LINE SMOOTH",
"264 908 OFFCURVE",
"250 922 OFFCURVE",
"222 922 CURVE SMOOTH",
"194 922 OFFCURVE",
"180 908 OFFCURVE",
"180 880 CURVE SMOOTH",
"180 42 LINE SMOOTH",
"180 14 OFFCURVE",
"194 0 OFFCURVE",
"222 0 CURVE SMOOTH"
);
}
);
width = 444;
},
{
anchors = (
{
name = bottom;
position = "{290, 0}";
},
{
name = ogonek;
position = "{236, 14}";
},
{
name = top;
position = "{290, 1014}";
}
);
layerId = "9D2B49D7-8C02-48EB-8D57-D561CCF616AE";
paths = (
{
closed = 1;
nodes = (
"346 0 OFFCURVE",
"376 30 OFFCURVE",
"376 84 CURVE SMOOTH",
"376 930 LINE SMOOTH",
"376 984 OFFCURVE",
"346 1014 OFFCURVE",
"292 1014 CURVE SMOOTH",
"238 1014 OFFCURVE",
"208 984 OFFCURVE",
"208 930 CURVE SMOOTH",
"208 84 LINE SMOOTH",
"208 30 OFFCURVE",
"238 0 OFFCURVE",
"292 0 CURVE SMOOTH"
);
}
);
width = 584;
}
);
leftKerningGroup = n;
leftMetricsKey = n;
rightKerningGroup = u;
rightMetricsKey = u;
unicode = 0131;
},
{
color = 9;
glyphname = jdotless;
lastChange = "2019-09-04 19:35:22 +0000";
layers = (
{
anchors = (
{
name = bottom;
position = "{84, -400}";
},
{
name = top;
position = "{222, 922}";
}
);
layerId = "C9A88445-F9B1-43BF-9834-532EB19954E9";
paths = (
{
closed = 1;
nodes = (
"182 -400 OFFCURVE",
"264 -318 OFFCURVE",
"264 -138 CURVE SMOOTH",
"264 880 LINE SMOOTH",
"264 908 OFFCURVE",
"248 922 OFFCURVE",
"222 922 CURVE SMOOTH",
"194 922 OFFCURVE",
"180 908 OFFCURVE",
"180 880 CURVE SMOOTH",
"180 -138 LINE SMOOTH",
"180 -272 OFFCURVE",
"136 -316 OFFCURVE",
"2 -316 CURVE SMOOTH",
"-22 -316 OFFCURVE",
"-44 -330 OFFCURVE",
"-44 -358 CURVE SMOOTH",
"-44 -386 OFFCURVE",
"-22 -400 OFFCURVE",
"2 -400 CURVE SMOOTH"
);
}
);
width = 444;
},
{
anchors = (
{
name = bottom;
position = "{40, -400}";
},
{
name = top;
position = "{292, 1014}";
}
);
layerId = "9D2B49D7-8C02-48EB-8D57-D561CCF616AE";
paths = (
{
closed = 1;
nodes = (
"278 -400 OFFCURVE",
"376 -302 OFFCURVE",
"376 -96 CURVE SMOOTH",
"376 930 LINE SMOOTH",
"376 984 OFFCURVE",
"346 1014 OFFCURVE",
"292 1014 CURVE SMOOTH",
"238 1014 OFFCURVE",
"208 984 OFFCURVE",
"208 930 CURVE SMOOTH",
"208 -96 LINE SMOOTH",
"208 -204 OFFCURVE",
"180 -232 OFFCURVE",
"72 -232 CURVE SMOOTH",
"18 -232 OFFCURVE",
"-10 -262 OFFCURVE",
"-10 -316 CURVE SMOOTH",
"-10 -370 OFFCURVE",
"14 -400 OFFCURVE",
"72 -400 CURVE SMOOTH"
);
}
);
width = 584;
}
);
leftKerningGroup = jdotless;
rightKerningGroup = jdotless;
rightMetricsKey = idotless;
unicode = 0237;
},
{
color = 9;
glyphname = k;
lastChange = "2019-09-04 19:35:22 +0000";
layers = (
{
anchors = (
{
name = bottom;
position = "{466, 0}";
},
{
name = top;
position = "{222, 1380}";
}
);
layerId = "C9A88445-F9B1-43BF-9834-532EB19954E9";
paths = (
{
closed = 1;
nodes = (
"250 0 OFFCURVE",
"264 14 OFFCURVE",
"264 42 CURVE SMOOTH",
"264 371 LINE",
"402 490 LINE",
"822 16 LINE SMOOTH",
"840 -4 OFFCURVE",
"860 -6 OFFCURVE",
"880 12 CURVE SMOOTH",
"901 31 OFFCURVE",
"902 52 OFFCURVE",
"884 72 CURVE SMOOTH",
"467 545 LINE",
"836 862 LINE SMOOTH",
"856 880 OFFCURVE",
"858 902 OFFCURVE",
"840 922 CURVE SMOOTH",
"822 942 OFFCURVE",
"802 944 OFFCURVE",
"782 926 CURVE SMOOTH",
"264 481 LINE",
"264 1338 LINE SMOOTH",
"264 1366 OFFCURVE",
"250 1380 OFFCURVE",
"222 1380 CURVE SMOOTH",
"194 1380 OFFCURVE",
"180 1366 OFFCURVE",
"180 1338 CURVE SMOOTH",
"180 42 LINE SMOOTH",
"180 14 OFFCURVE",
"194 0 OFFCURVE",
"222 0 CURVE SMOOTH"
);
}
);
width = 938;
},
{
anchors = (
{
name = bottom;
position = "{510, 0}";
},
{
name = top;
position = "{292, 1408}";
}
);
layerId = "9D2B49D7-8C02-48EB-8D57-D561CCF616AE";
paths = (
{
closed = 1;
nodes = (
"346 0 OFFCURVE",
"376 30 OFFCURVE",
"376 84 CURVE SMOOTH",
"376 350 LINE",
"469 430 LINE",
"820 34 LINE SMOOTH",
"856 -6 OFFCURVE",
"898 -10 OFFCURVE",
"940 26 CURVE SMOOTH",
"982 62 OFFCURVE",
"983 101 OFFCURVE",
"946 144 CURVE SMOOTH",
"597 541 LINE",
"962 856 LINE SMOOTH",
"1002 890 OFFCURVE",
"1006 932 OFFCURVE",
"970 974 CURVE SMOOTH",
"935 1015 OFFCURVE",
"895 1019 OFFCURVE",
"852 982 CURVE SMOOTH",
"376 573 LINE",
"376 1324 LINE SMOOTH",
"376 1378 OFFCURVE",
"346 1408 OFFCURVE",
"292 1408 CURVE SMOOTH",
"238 1408 OFFCURVE",
"208 1378 OFFCURVE",
"208 1324 CURVE SMOOTH",
"208 84 LINE SMOOTH",
"208 30 OFFCURVE",
"238 0 OFFCURVE",
"292 0 CURVE SMOOTH"
);
}
);
width = 1016;
}
);
leftKerningGroup = h;
leftMetricsKey = n;
rightKerningGroup = k;
unicode = 006B;
},
{
color = 9;
glyphname = kgreenlandic;
lastChange = "2019-09-04 19:35:22 +0000";
layers = (
{
anchors = (
{
name = bottom;
position = "{486, 0}";
},
{
name = top;
position = "{492, 922}";
}
);
layerId = "C9A88445-F9B1-43BF-9834-532EB19954E9";
paths = (
{
closed = 1;
nodes = (
"250 0 OFFCURVE",
"264 14 OFFCURVE",
"264 42 CURVE SMOOTH",
"264 371 LINE",
"402 490 LINE",
"822 16 LINE SMOOTH",
"840 -4 OFFCURVE",
"860 -6 OFFCURVE",
"880 12 CURVE SMOOTH",
"902 30 OFFCURVE",
"902 52 OFFCURVE",
"884 72 CURVE SMOOTH",
"467 545 LINE",
"836 862 LINE SMOOTH",
"856 880 OFFCURVE",
"858 902 OFFCURVE",
"840 922 CURVE SMOOTH",
"822 942 OFFCURVE",
"802 944 OFFCURVE",
"782 926 CURVE SMOOTH",
"264 481 LINE",
"264 880 LINE SMOOTH",
"264 908 OFFCURVE",
"250 922 OFFCURVE",
"222 922 CURVE SMOOTH",
"194 922 OFFCURVE",
"180 908 OFFCURVE",
"180 880 CURVE SMOOTH",
"180 42 LINE SMOOTH",
"180 14 OFFCURVE",
"194 0 OFFCURVE",
"222 0 CURVE SMOOTH"
);
}
);
width = 938;
},
{
anchors = (
{
name = bottom;
position = "{530, 0}";
},
{
name = top;
position = "{528, 1014}";
}
);
layerId = "9D2B49D7-8C02-48EB-8D57-D561CCF616AE";
paths = (
{
closed = 1;
nodes = (
"346 0 OFFCURVE",
"376 30 OFFCURVE",
"376 84 CURVE SMOOTH",
"376 350 LINE",
"469 430 LINE",
"820 32 LINE SMOOTH",
"856 -6 OFFCURVE",
"900 -10 OFFCURVE",
"938 26 CURVE SMOOTH",
"980 64 OFFCURVE",
"984 102 OFFCURVE",
"946 144 CURVE SMOOTH",
"597 541 LINE",
"962 856 LINE SMOOTH",
"1002 890 OFFCURVE",
"1006 934 OFFCURVE",
"972 972 CURVE SMOOTH",
"934 1014 OFFCURVE",
"894 1020 OFFCURVE",
"852 982 CURVE SMOOTH",
"376 573 LINE",
"376 930 LINE SMOOTH",
"376 984 OFFCURVE",
"346 1014 OFFCURVE",
"292 1014 CURVE SMOOTH",
"238 1014 OFFCURVE",
"208 984 OFFCURVE",
"208 930 CURVE SMOOTH",
"208 84 LINE SMOOTH",
"208 30 OFFCURVE",
"238 0 OFFCURVE",
"292 0 CURVE SMOOTH"
);
}
);
width = 1016;
}
);
leftKerningGroup = n;
leftMetricsKey = n;
rightKerningGroup = k;
rightMetricsKey = k;
unicode = 0138;
},
{
color = 9;
glyphname = l;
lastChange = "2019-09-04 19:35:22 +0000";
layers = (
{
anchors = (
{
name = bottom;
position = "{356, 0}";
},
{
name = center;
position = "{254, 682}";
},
{
name = top;
position = "{222, 1380}";
},
{
name = topright;
position = "{354, 922}";
}
);
layerId = "C9A88445-F9B1-43BF-9834-532EB19954E9";
paths = (
{
closed = 1;
nodes = (
"472 0 OFFCURVE",
"488 14 OFFCURVE",
"488 42 CURVE SMOOTH",
"488 70 OFFCURVE",
"472 84 OFFCURVE",
"444 84 CURVE SMOOTH",
"308 84 OFFCURVE",
"264 126 OFFCURVE",
"264 262 CURVE SMOOTH",
"264 1338 LINE SMOOTH",
"264 1366 OFFCURVE",
"250 1380 OFFCURVE",
"222 1380 CURVE SMOOTH",
"194 1380 OFFCURVE",
"180 1366 OFFCURVE",
"180 1338 CURVE SMOOTH",
"180 262 LINE SMOOTH",
"180 80 OFFCURVE",
"262 0 OFFCURVE",
"446 0 CURVE SMOOTH"
);
}
);
width = 548;
},
{
anchors = (
{
name = bottom;
position = "{434, 0}";
},
{
name = center;
position = "{330, 726}";
},
{
name = top;
position = "{292, 1408}";
},
{
name = topright;
position = "{464, 1014}";
}
);
layerId = "9D2B49D7-8C02-48EB-8D57-D561CCF616AE";
paths = (
{
closed = 1;
nodes = (
"568 0 OFFCURVE",
"598 30 OFFCURVE",
"596 84 CURVE SMOOTH",
"596 138 OFFCURVE",
"568 168 OFFCURVE",
"510 168 CURVE SMOOTH",
"402 168 OFFCURVE",
"376 196 OFFCURVE",
"376 304 CURVE SMOOTH",
"376 1324 LINE SMOOTH",
"376 1378 OFFCURVE",
"346 1408 OFFCURVE",
"292 1408 CURVE SMOOTH",
"238 1408 OFFCURVE",
"208 1378 OFFCURVE",
"208 1324 CURVE SMOOTH",
"208 304 LINE SMOOTH",
"208 100 OFFCURVE",
"306 0 OFFCURVE",
"510 0 CURVE SMOOTH"
);
}
);
width = 686;
}
);
leftKerningGroup = h;
leftMetricsKey = n;
rightKerningGroup = l;
unicode = 006C;
},
{
color = 9;
glyphname = lslash;
lastChange = "2019-09-04 19:35:22 +0000";
layers = (
{
anchors = (
{
name = _center;
position = "{234, 682}";
}
);
components = (
{
name = l;
}
);
layerId = "C9A88445-F9B1-43BF-9834-532EB19954E9";
paths = (
{
closed = 1;
nodes = (
"38 482 OFFCURVE",
"46 484 OFFCURVE",
"54 490 CURVE SMOOTH",
"446 784 LINE SMOOTH",
"458 794 OFFCURVE",
"464 804 OFFCURVE",
"464 818 CURVE SMOOTH",
"464 842 OFFCURVE",
"446 860 OFFCURVE",
"422 860 CURVE SMOOTH",
"412 860 OFFCURVE",
"404 858 OFFCURVE",
"396 852 CURVE SMOOTH",
"4 558 LINE SMOOTH",
"-8 550 OFFCURVE",
"-14 538 OFFCURVE",
"-14 524 CURVE SMOOTH",
"-14 500 OFFCURVE",
"4 482 OFFCURVE",
"28 482 CURVE SMOOTH"
);
}
);
width = 544;
},
{
anchors = (
{
name = _center;
position = "{316, 726}";
}
);
components = (
{
name = l;
}
);
layerId = "9D2B49D7-8C02-48EB-8D57-D561CCF616AE";
paths = (
{
closed = 1;
nodes = (
"78 470 OFFCURVE",
"88 472 OFFCURVE",
"98 482 CURVE SMOOTH",
"608 862 LINE SMOOTH",
"624 872 OFFCURVE",
"632 888 OFFCURVE",
"632 908 CURVE SMOOTH",
"632 938 OFFCURVE",
"606 964 OFFCURVE",
"576 964 CURVE SMOOTH",
"564 964 OFFCURVE",
"552 962 OFFCURVE",
"542 952 CURVE SMOOTH",
"32 572 LINE SMOOTH",
"18 562 OFFCURVE",
"8 546 OFFCURVE",
"8 526 CURVE SMOOTH",
"8 498 OFFCURVE",
"34 470 OFFCURVE",
"64 470 CURVE SMOOTH"
);
}
);
width = 712;
}
);
leftKerningGroup = hbar;
rightKerningGroup = l;
unicode = 0142;
},
{
color = 9;
glyphname = m;
lastChange = "2019-09-04 19:35:22 +0000";
layers = (
{
anchors = (
{
name = bottom;
position = "{832, 0}";
},
{
name = top;
position = "{848, 922}";
}
);
layerId = "C9A88445-F9B1-43BF-9834-532EB19954E9";
paths = (
{
closed = 1;
nodes = (
"1138 924 LINE SMOOTH",
"996 924 OFFCURVE",
"913 878 OFFCURVE",
"860 765 CURVE",
"810 878 OFFCURVE",
"733 924 OFFCURVE",
"602 924 CURVE SMOOTH",
"518 924 LINE SMOOTH",
"392 924 OFFCURVE",
"318 886 OFFCURVE",
"264 792 CURVE",
"264 880 LINE SMOOTH",
"264 908 OFFCURVE",
"250 922 OFFCURVE",
"222 922 CURVE SMOOTH",
"194 922 OFFCURVE",
"180 908 OFFCURVE",
"180 880 CURVE SMOOTH",
"180 40 LINE SMOOTH",
"180 12 OFFCURVE",
"194 -2 OFFCURVE",
"222 -2 CURVE SMOOTH",
"250 -2 OFFCURVE",
"264 12 OFFCURVE",
"264 40 CURVE SMOOTH",
"264 582 LINE SMOOTH",
"264 766 OFFCURVE",
"336 840 OFFCURVE",
"518 840 CURVE SMOOTH",
"602 840 LINE SMOOTH",
"744 840 OFFCURVE",
"800 766 OFFCURVE",
"800 582 CURVE SMOOTH",
"800 40 LINE SMOOTH",
"800 12 OFFCURVE",
"814 -2 OFFCURVE",
"842 -2 CURVE SMOOTH",
"870 -2 OFFCURVE",
"884 12 OFFCURVE",
"884 40 CURVE SMOOTH",
"884 582 LINE SMOOTH",
"884 766 OFFCURVE",
"956 840 OFFCURVE",
"1138 840 CURVE SMOOTH",
"1222 840 LINE SMOOTH",
"1364 840 OFFCURVE",
"1420 766 OFFCURVE",
"1420 582 CURVE SMOOTH",
"1420 40 LINE SMOOTH",
"1420 12 OFFCURVE",
"1434 -2 OFFCURVE",
"1462 -2 CURVE SMOOTH",
"1490 -2 OFFCURVE",
"1504 12 OFFCURVE",
"1504 40 CURVE SMOOTH",
"1504 582 LINE SMOOTH",
"1504 826 OFFCURVE",
"1424 924 OFFCURVE",
"1222 924 CURVE SMOOTH"
);
}
);
width = 1666;
},
{
anchors = (
{
name = bottom;
position = "{944, 0}";
},
{
name = top;
position = "{938, 1014}";
}
);
layerId = "9D2B49D7-8C02-48EB-8D57-D561CCF616AE";
paths = (
{
closed = 1;
nodes = (
"1236 1014 LINE SMOOTH",
"1114 1014 OFFCURVE",
"1044 973 OFFCURVE",
"973 868 CURVE",
"924 971 OFFCURVE",
"835 1014 OFFCURVE",
"670 1014 CURVE SMOOTH",
"644 1014 LINE SMOOTH",
"526 1014 OFFCURVE",
"446 976 OFFCURVE",
"376 884 CURVE",
"376 930 LINE SMOOTH",
"376 986 OFFCURVE",
"346 1014 OFFCURVE",
"292 1014 CURVE SMOOTH",
"236 1014 OFFCURVE",
"208 986 OFFCURVE",
"208 930 CURVE SMOOTH",
"208 84 LINE SMOOTH",
"208 28 OFFCURVE",
"236 0 OFFCURVE",
"292 0 CURVE SMOOTH",
"348 0 OFFCURVE",
"376 28 OFFCURVE",
"376 84 CURVE SMOOTH",
"376 630 LINE SMOOTH",
"376 782 OFFCURVE",
"436 846 OFFCURVE",
"588 846 CURVE SMOOTH",
"670 846 LINE SMOOTH",
"802 846 OFFCURVE",
"856 782 OFFCURVE",
"856 630 CURVE SMOOTH",
"856 84 LINE SMOOTH",
"856 28 OFFCURVE",
"884 0 OFFCURVE",
"940 0 CURVE SMOOTH",
"996 0 OFFCURVE",
"1024 28 OFFCURVE",
"1024 84 CURVE SMOOTH",
"1024 630 LINE SMOOTH",
"1024 782 OFFCURVE",
"1084 846 OFFCURVE",
"1236 846 CURVE SMOOTH",
"1318 846 LINE SMOOTH",
"1450 846 OFFCURVE",
"1504 782 OFFCURVE",
"1504 630 CURVE SMOOTH",
"1504 84 LINE SMOOTH",
"1504 28 OFFCURVE",
"1532 0 OFFCURVE",
"1588 0 CURVE SMOOTH",
"1644 0 OFFCURVE",
"1672 28 OFFCURVE",
"1672 84 CURVE SMOOTH",
"1672 630 LINE SMOOTH",
"1672 904 OFFCURVE",
"1570 1014 OFFCURVE",
"1318 1014 CURVE SMOOTH"
);
}
);
width = 1860;
}
);
leftKerningGroup = n;
leftMetricsKey = n;
rightKerningGroup = n;
rightMetricsKey = n;
unicode = 006D;
},
{
color = 9;
glyphname = n;
lastChange = "2019-09-04 19:35:22 +0000";
layers = (
{
anchors = (
{
name = bottom;
position = "{664, 0}";
},
{
name = top;
position = "{644, 922}";
}
);
background = {
paths = (
{
closed = 1;
nodes = (
"1024 42 CURVE SMOOTH",
"1024 572 LINE SMOOTH",
"1024 816 OFFCURVE",
"918 922 OFFCURVE",
"674 922 CURVE SMOOTH",
"618 922 LINE SMOOTH",
"378 922 OFFCURVE",
"240 818 OFFCURVE",
"222 624 CURVE SMOOTH",
"222 596 OFFCURVE",
"222 580 OFFCURVE",
"224 580 CURVE SMOOTH",
"250 580 OFFCURVE",
"264 594 OFFCURVE",
"266 620 CURVE SMOOTH",
"284 766 OFFCURVE",
"400 838 OFFCURVE",
"618 838 CURVE SMOOTH",
"674 838 LINE SMOOTH",
"870 838 OFFCURVE",
"940 768 OFFCURVE",
"940 572 CURVE SMOOTH",
"940 42 LINE SMOOTH",
"940 14 OFFCURVE",
"954 0 OFFCURVE",
"982 0 CURVE SMOOTH",
"1010 0 OFFCURVE",
"1024 14 OFFCURVE"
);
},
{
closed = 1;
nodes = (
"264 42 CURVE SMOOTH",
"264 880 LINE SMOOTH",
"264 908 OFFCURVE",
"250 922 OFFCURVE",
"222 922 CURVE SMOOTH",
"194 922 OFFCURVE",
"180 908 OFFCURVE",
"180 880 CURVE SMOOTH",
"180 42 LINE SMOOTH",
"180 14 OFFCURVE",
"194 0 OFFCURVE",
"222 0 CURVE SMOOTH",
"250 0 OFFCURVE",
"264 14 OFFCURVE"
);
}
);
};
layerId = "C9A88445-F9B1-43BF-9834-532EB19954E9";
paths = (
{
closed = 1;
nodes = (
"250 0 OFFCURVE",
"264 14 OFFCURVE",
"264 42 CURVE SMOOTH",
"264 606 LINE",
"277 764 OFFCURVE",
"397 838 OFFCURVE",
"618 838 CURVE SMOOTH",
"674 838 LINE SMOOTH",
"870 838 OFFCURVE",
"940 768 OFFCURVE",
"940 572 CURVE SMOOTH",
"940 42 LINE SMOOTH",
"940 14 OFFCURVE",
"954 0 OFFCURVE",
"982 0 CURVE SMOOTH",
"1010 0 OFFCURVE",
"1024 14 OFFCURVE",
"1024 42 CURVE SMOOTH",
"1024 572 LINE SMOOTH",
"1024 816 OFFCURVE",
"918 922 OFFCURVE",
"674 922 CURVE SMOOTH",
"618 922 LINE SMOOTH",
"444 922 OFFCURVE",
"324 868 OFFCURVE",
"264 764 CURVE",
"264 880 LINE SMOOTH",
"264 908 OFFCURVE",
"250 922 OFFCURVE",
"222 922 CURVE SMOOTH",
"194 922 OFFCURVE",
"180 908 OFFCURVE",
"180 880 CURVE SMOOTH",
"180 42 LINE SMOOTH",
"180 14 OFFCURVE",
"194 0 OFFCURVE",
"222 0 CURVE SMOOTH"
);
}
);
width = 1186;
},
{
anchors = (
{
name = bottom;
position = "{706, 0}";
},
{
name = top;
position = "{714, 1014}";
}
);
background = {
paths = (
{
closed = 1;
nodes = (
"1136 84 CURVE SMOOTH",
"1136 622 LINE SMOOTH",
"1136 888 OFFCURVE",
"1010 1014 OFFCURVE",
"744 1014 CURVE SMOOTH",
"688 1014 LINE SMOOTH",
"460 1014 OFFCURVE",
"316 900 OFFCURVE",
"284 690 CURVE SMOOTH",
"282 652 OFFCURVE",
"288 630 OFFCURVE",
"298 630 CURVE SMOOTH",
"350 630 OFFCURVE",
"376 656 OFFCURVE",
"374 708 CURVE SMOOTH",
"368 802 OFFCURVE",
"512 846 OFFCURVE",
"688 846 CURVE SMOOTH",
"744 846 LINE SMOOTH",
"916 846 OFFCURVE",
"968 796 OFFCURVE",
"968 622 CURVE SMOOTH",
"968 84 LINE SMOOTH",
"968 30 OFFCURVE",
"998 0 OFFCURVE",
"1052 0 CURVE SMOOTH",
"1106 0 OFFCURVE",
"1136 30 OFFCURVE"
);
},
{
closed = 1;
nodes = (
"376 84 CURVE SMOOTH",
"376 930 LINE SMOOTH",
"376 986 OFFCURVE",
"346 1014 OFFCURVE",
"292 1014 CURVE SMOOTH",
"238 1014 OFFCURVE",
"208 986 OFFCURVE",
"208 930 CURVE SMOOTH",
"208 84 LINE SMOOTH",
"208 30 OFFCURVE",
"238 0 OFFCURVE",
"292 0 CURVE SMOOTH",
"346 0 OFFCURVE",
"376 30 OFFCURVE"
);
}
);
};
layerId = "9D2B49D7-8C02-48EB-8D57-D561CCF616AE";
paths = (
{
closed = 1;
nodes = (
"346 0 OFFCURVE",
"376 30 OFFCURVE",
"376 84 CURVE SMOOTH",
"376 732 LINE",
"394 810 OFFCURVE",
"528 846 OFFCURVE",
"688 846 CURVE SMOOTH",
"744 846 LINE SMOOTH",
"916 846 OFFCURVE",
"968 796 OFFCURVE",
"968 622 CURVE SMOOTH",
"968 84 LINE SMOOTH",
"968 30 OFFCURVE",
"998 0 OFFCURVE",
"1052 0 CURVE SMOOTH",
"1106 0 OFFCURVE",
"1136 30 OFFCURVE",
"1136 84 CURVE SMOOTH",
"1136 622 LINE SMOOTH",
"1136 888 OFFCURVE",
"1010 1014 OFFCURVE",
"744 1014 CURVE SMOOTH",
"688 1014 LINE SMOOTH",
"552 1014 OFFCURVE",
"446 974 OFFCURVE",
"376 897 CURVE",
"376 930 LINE SMOOTH",
"376 986 OFFCURVE",
"346 1014 OFFCURVE",
"292 1014 CURVE SMOOTH",
"238 1014 OFFCURVE",
"208 986 OFFCURVE",
"208 930 CURVE SMOOTH",
"208 84 LINE SMOOTH",
"208 30 OFFCURVE",
"238 0 OFFCURVE",
"292 0 CURVE SMOOTH"
);
}
);
width = 1324;
}
);
leftKerningGroup = n;
rightKerningGroup = n;
unicode = 006E;
},
{
color = 9;
glyphname = eng;
lastChange = "2019-09-04 19:35:22 +0000";
layers = (
{
anchors = (
{
name = bottom;
position = "{664, 0}";
},
{
name = top;
position = "{644, 922}";
}
);
layerId = "C9A88445-F9B1-43BF-9834-532EB19954E9";
paths = (
{
closed = 1;
nodes = (
"778 -406 LINE SMOOTH",
"948 -406 OFFCURVE",
"1024 -330 OFFCURVE",
"1024 -158 CURVE SMOOTH",
"1024 572 LINE SMOOTH",
"1024 816 OFFCURVE",
"918 922 OFFCURVE",
"674 922 CURVE SMOOTH",
"618 922 LINE SMOOTH",
"444 922 OFFCURVE",
"324 868 OFFCURVE",
"264 764 CURVE",
"264 880 LINE SMOOTH",
"264 908 OFFCURVE",
"250 922 OFFCURVE",
"222 922 CURVE SMOOTH",
"194 922 OFFCURVE",
"180 908 OFFCURVE",
"180 880 CURVE SMOOTH",
"180 42 LINE SMOOTH",
"180 14 OFFCURVE",
"194 0 OFFCURVE",
"222 0 CURVE SMOOTH",
"250 0 OFFCURVE",
"264 14 OFFCURVE",
"264 42 CURVE SMOOTH",
"264 606 LINE",
"277 764 OFFCURVE",
"397 838 OFFCURVE",
"618 838 CURVE SMOOTH",
"674 838 LINE SMOOTH",
"870 838 OFFCURVE",
"940 768 OFFCURVE",
"940 572 CURVE SMOOTH",
"940 -158 LINE SMOOTH",
"940 -284 OFFCURVE",
"900 -322 OFFCURVE",
"778 -322 CURVE SMOOTH",
"586 -322 LINE SMOOTH",
"464 -322 OFFCURVE",
"424 -284 OFFCURVE",
"424 -158 CURVE SMOOTH",
"424 -130 OFFCURVE",
"410 -116 OFFCURVE",
"382 -116 CURVE SMOOTH",
"354 -116 OFFCURVE",
"340 -130 OFFCURVE",
"340 -158 CURVE SMOOTH",
"340 -330 OFFCURVE",
"416 -406 OFFCURVE",
"586 -406 CURVE SMOOTH"
);
}
);
width = 1184;
},
{
anchors = (
{
name = bottom;
position = "{706, 0}";
},
{
name = top;
position = "{714, 1014}";
}
);
layerId = "9D2B49D7-8C02-48EB-8D57-D561CCF616AE";
paths = (
{
closed = 1;
nodes = (
"848 -398 LINE SMOOTH",
"1044 -398 OFFCURVE",
"1136 -304 OFFCURVE",
"1136 -110 CURVE SMOOTH",
"1136 622 LINE SMOOTH",
"1136 888 OFFCURVE",
"1010 1014 OFFCURVE",
"744 1014 CURVE SMOOTH",
"688 1014 LINE SMOOTH",
"552 1014 OFFCURVE",
"446 974 OFFCURVE",
"376 897 CURVE",
"376 930 LINE SMOOTH",
"376 986 OFFCURVE",
"346 1014 OFFCURVE",
"292 1014 CURVE SMOOTH",
"238 1014 OFFCURVE",
"208 986 OFFCURVE",
"208 930 CURVE SMOOTH",
"208 84 LINE SMOOTH",
"208 30 OFFCURVE",
"238 0 OFFCURVE",
"292 0 CURVE SMOOTH",
"346 0 OFFCURVE",
"376 30 OFFCURVE",
"376 84 CURVE SMOOTH",
"376 732 LINE",
"394 810 OFFCURVE",
"528 846 OFFCURVE",
"688 846 CURVE SMOOTH",
"744 846 LINE SMOOTH",
"916 846 OFFCURVE",
"968 796 OFFCURVE",
"968 622 CURVE SMOOTH",
"968 -110 LINE SMOOTH",
"968 -208 OFFCURVE",
"948 -230 OFFCURVE",
"848 -230 CURVE SMOOTH",
"656 -230 LINE SMOOTH",
"567 -230 OFFCURVE",
"539 -219 OFFCURVE",
"529 -190 CURVE SMOOTH",
"516 -153 OFFCURVE",
"485 -128 OFFCURVE",
"438 -128 CURVE SMOOTH",
"386 -128 OFFCURVE",
"368 -158 OFFCURVE",
"376 -216 CURVE SMOOTH",
"393 -336 OFFCURVE",
"501 -398 OFFCURVE",
"656 -398 CURVE SMOOTH"
);
}
);
width = 1324;
}
);
leftKerningGroup = n;
rightKerningGroup = j;
unicode = 014B;
},
{
color = 9;
glyphname = o;
lastChange = "2025-02-11 18:06:19 +0000";
layers = (
{
anchors = (
{
name = bottom;
position = "{592, 0}";
},
{
name = center;
position = "{592, 462}";
},
{
name = ogonek;
position = "{924, 88}";
},
{
name = top;
position = "{592, 922}";
},
{
name = topright;
position = "{904, 868}";
}
);
layerId = "C9A88445-F9B1-43BF-9834-532EB19954E9";
paths = (
{
closed = 1;
nodes = (
"674 0 LINE SMOOTH",
"918 0 OFFCURVE",
"1024 106 OFFCURVE",
"1024 350 CURVE SMOOTH",
"1024 572 LINE SMOOTH",
"1024 816 OFFCURVE",
"918 922 OFFCURVE",
"674 922 CURVE SMOOTH",
"510 922 LINE SMOOTH",
"266 924 OFFCURVE",
"160 818 OFFCURVE",
"160 572 CURVE SMOOTH",
"160 348 LINE SMOOTH",
"160 106 OFFCURVE",
"266 0 OFFCURVE",
"510 0 CURVE SMOOTH"
);
},
{
closed = 1;
nodes = (
"244 348 CURVE SMOOTH",
"244 572 LINE SMOOTH",
"244 770 OFFCURVE",
"314 840 OFFCURVE",
"510 838 CURVE SMOOTH",
"674 838 LINE SMOOTH",
"870 838 OFFCURVE",
"940 768 OFFCURVE",
"940 572 CURVE SMOOTH",
"940 350 LINE SMOOTH",
"940 154 OFFCURVE",
"870 84 OFFCURVE",
"674 84 CURVE SMOOTH",
"510 84 LINE SMOOTH",
"314 84 OFFCURVE",
"244 154 OFFCURVE"
);
}
);
width = 1184;
},
{
anchors = (
{
name = bottom;
position = "{634, 0}";
},
{
name = center;
position = "{634, 506}";
},
{
name = ogonek;
position = "{944, 66}";
},
{
name = top;
position = "{634, 1014}";
},
{
name = topright;
position = "{962, 902}";
}
);
layerId = "9D2B49D7-8C02-48EB-8D57-D561CCF616AE";
paths = (
{
closed = 1;
nodes = (
"716 0 LINE SMOOTH",
"982 0 OFFCURVE",
"1108 126 OFFCURVE",
"1108 392 CURVE SMOOTH",
"1108 622 LINE SMOOTH",
"1108 888 OFFCURVE",
"982 1014 OFFCURVE",
"716 1014 CURVE SMOOTH",
"552 1014 LINE SMOOTH",
"286 1014 OFFCURVE",
"160 890 OFFCURVE",
"160 622 CURVE SMOOTH",
"160 390 LINE SMOOTH",
"160 126 OFFCURVE",
"286 0 OFFCURVE",
"552 0 CURVE SMOOTH"
);
},
{
closed = 1;
nodes = (
"328 390 CURVE SMOOTH",
"328 622 LINE SMOOTH",
"328 798 OFFCURVE",
"378 846 OFFCURVE",
"552 846 CURVE SMOOTH",
"716 846 LINE SMOOTH",
"890 846 OFFCURVE",
"940 796 OFFCURVE",
"940 622 CURVE SMOOTH",
"940 392 LINE SMOOTH",
"940 218 OFFCURVE",
"890 168 OFFCURVE",
"716 168 CURVE SMOOTH",
"552 168 LINE SMOOTH",
"378 168 OFFCURVE",
"328 218 OFFCURVE"
);
}
);
width = 1268;
}
);
leftKerningGroup = o;
rightKerningGroup = o;
unicode = 006F;
},
{
color = 9;
glyphname = oslash;
lastChange = "2019-09-04 19:35:22 +0000";
layers = (
{
anchors = (
{
name = top;
position = "{592, 922}";
}
);
components = (
{
name = o;
}
);
layerId = "C9A88445-F9B1-43BF-9834-532EB19954E9";
paths = (
{
closed = 1;
nodes = (
"264 -134 OFFCURVE",
"278 -130 OFFCURVE",
"290 -110 CURVE SMOOTH",
"382 38 LINE",
"394 56 LINE",
"864 826 LINE",
"874 842 LINE",
"950 966 LINE SMOOTH",
"968 996 OFFCURVE",
"960 1020 OFFCURVE",
"924 1030 CURVE SMOOTH",
"904 1036 OFFCURVE",
"890 1032 OFFCURVE",
"878 1012 CURVE SMOOTH",
"798 878 LINE",
"788 864 LINE",
"312 84 LINE",
"304 72 LINE",
"220 -64 LINE SMOOTH",
"202 -92 OFFCURVE",
"210 -120 OFFCURVE",
"242 -128 CURVE SMOOTH"
);
}
);
width = 1184;
},
{
anchors = (
{
name = top;
position = "{634, 1014}";
}
);
components = (
{
name = o;
}
);
layerId = "9D2B49D7-8C02-48EB-8D57-D561CCF616AE";
paths = (
{
closed = 1;
nodes = (
"276 -150 OFFCURVE",
"312 -142 OFFCURVE",
"338 -98 CURVE SMOOTH",
"436 60 LINE",
"456 100 LINE",
"922 842 LINE",
"952 876 LINE",
"1020 986 LINE SMOOTH",
"1044 1024 OFFCURVE",
"1038 1056 OFFCURVE",
"1002 1084 CURVE SMOOTH",
"960 1112 OFFCURVE",
"924 1102 OFFCURVE",
"898 1062 CURVE SMOOTH",
"824 942 LINE",
"814 914 LINE",
"328 142 LINE",
"298 114 LINE",
"212 -24 LINE SMOOTH",
"188 -64 OFFCURVE",
"196 -94 OFFCURVE",
"234 -122 CURVE SMOOTH"
);
}
);
width = 1268;
}
);
leftKerningGroup = o;
rightKerningGroup = o;
unicode = 00F8;
},
{
color = 9;
glyphname = oe;
lastChange = "2019-09-04 19:35:22 +0000";
layers = (
{
anchors = (
{
name = bottom;
position = "{912, 0}";
},
{
name = top;
position = "{912, 922}";
}
);
layerId = "C9A88445-F9B1-43BF-9834-532EB19954E9";
paths = (
{
closed = 1;
nodes = (
"614 2 LINE SMOOTH",
"770 2 OFFCURVE",
"870 46 OFFCURVE",
"922 142 CURVE",
"972 46 OFFCURVE",
"1070 2 OFFCURVE",
"1220 2 CURVE SMOOTH",
"1342 2 LINE SMOOTH",
"1578 2 OFFCURVE",
"1684 84 OFFCURVE",
"1684 274 CURVE SMOOTH",
"1684 298 OFFCURVE",
"1666 316 OFFCURVE",
"1642 316 CURVE SMOOTH",
"1618 316 OFFCURVE",
"1600 298 OFFCURVE",
"1600 274 CURVE SMOOTH",
"1600 136 OFFCURVE",
"1534 86 OFFCURVE",
"1342 86 CURVE SMOOTH",
"1220 86 LINE SMOOTH",
"1032 86 OFFCURVE",
"964 158 OFFCURVE",
"964 356 CURVE SMOOTH",
"964 482 LINE",
"1642 482 LINE SMOOTH",
"1668 482 OFFCURVE",
"1684 496 OFFCURVE",
"1684 524 CURVE SMOOTH",
"1684 802 OFFCURVE",
"1580 924 OFFCURVE",
"1342 924 CURVE SMOOTH",
"1222 924 LINE SMOOTH",
"1070 924 OFFCURVE",
"972 882 OFFCURVE",
"922 784 CURVE",
"870 880 OFFCURVE",
"770 924 OFFCURVE",
"614 924 CURVE SMOOTH",
"510 924 LINE SMOOTH",
"266 924 OFFCURVE",
"160 820 OFFCURVE",
"160 574 CURVE SMOOTH",
"160 350 LINE SMOOTH",
"160 108 OFFCURVE",
"266 2 OFFCURVE",
"510 2 CURVE SMOOTH"
);
},
{
closed = 1;
nodes = (
"314 86 OFFCURVE",
"244 156 OFFCURVE",
"244 350 CURVE SMOOTH",
"244 574 LINE SMOOTH",
"244 772 OFFCURVE",
"314 840 OFFCURVE",
"510 840 CURVE SMOOTH",
"614 840 LINE SMOOTH",
"810 840 OFFCURVE",
"880 770 OFFCURVE",
"880 574 CURVE SMOOTH",
"880 352 LINE SMOOTH",
"880 156 OFFCURVE",
"810 86 OFFCURVE",
"614 86 CURVE SMOOTH",
"510 86 LINE SMOOTH"
);
},
{
closed = 1;
nodes = (
"964 766 OFFCURVE",
"1024 840 OFFCURVE",
"1222 840 CURVE SMOOTH",
"1342 840 LINE SMOOTH",
"1520 840 OFFCURVE",
"1590 768 OFFCURVE",
"1600 566 CURVE",
"964 566 LINE"
);
}
);
width = 1844;
},
{
anchors = (
{
name = bottom;
position = "{996, 0}";
},
{
name = top;
position = "{996, 1014}";
}
);
layerId = "9D2B49D7-8C02-48EB-8D57-D561CCF616AE";
paths = (
{
closed = 1;
nodes = (
"656 -40 LINE SMOOTH",
"796 -40 OFFCURVE",
"898 -4 OFFCURVE",
"964 122 CURVE",
"1028 -4 OFFCURVE",
"1126 -40 OFFCURVE",
"1262 -40 CURVE SMOOTH",
"1384 -40 LINE SMOOTH",
"1436 -40 OFFCURVE",
"1768 -40 OFFCURVE",
"1768 242 CURVE SMOOTH",
"1768 337 OFFCURVE",
"1730 358 OFFCURVE",
"1684 358 CURVE SMOOTH",
"1620 358 OFFCURVE",
"1611 317 OFFCURVE",
"1600 274 CURVE SMOOTH",
"1563 128 OFFCURVE",
"1565 128 OFFCURVE",
"1384 128 CURVE SMOOTH",
"1262 128 LINE SMOOTH",
"1100 128 OFFCURVE",
"1048 178 OFFCURVE",
"1048 356 CURVE SMOOTH",
"1048 440 LINE",
"1682 440 LINE SMOOTH",
"1731 440 OFFCURVE",
"1768 440 OFFCURVE",
"1768 569 CURVE SMOOTH",
"1768 802 OFFCURVE",
"1648 967 OFFCURVE",
"1384 967 CURVE SMOOTH",
"1264 967 LINE SMOOTH",
"1126 967 OFFCURVE",
"1026 932 OFFCURVE",
"962 806 CURVE",
"898 934 OFFCURVE",
"796 967 OFFCURVE",
"656 967 CURVE SMOOTH",
"552 967 LINE SMOOTH",
"286 967 OFFCURVE",
"160 842 OFFCURVE",
"160 574 CURVE SMOOTH",
"160 350 LINE SMOOTH",
"160 86 OFFCURVE",
"286 -40 OFFCURVE",
"552 -40 CURVE SMOOTH"
);
},
{
closed = 1;
nodes = (
"378 128 OFFCURVE",
"328 178 OFFCURVE",
"328 350 CURVE SMOOTH",
"328 574 LINE SMOOTH",
"328 750 OFFCURVE",
"378 799 OFFCURVE",
"552 799 CURVE SMOOTH",
"656 799 LINE SMOOTH",
"830 799 OFFCURVE",
"880 748 OFFCURVE",
"880 574 CURVE SMOOTH",
"880 352 LINE SMOOTH",
"880 178 OFFCURVE",
"830 128 OFFCURVE",
"656 128 CURVE SMOOTH",
"552 128 LINE SMOOTH"
);
},
{
closed = 1;
nodes = (
"1054 760 OFFCURVE",
"1110 799 OFFCURVE",
"1264 799 CURVE SMOOTH",
"1384 799 LINE SMOOTH",
"1522 799 OFFCURVE",
"1582 754 OFFCURVE",
"1598 608 CURVE",
"1048 608 LINE"
);
}
);
width = 1928;
}
);
leftKerningGroup = o;
leftMetricsKey = o;
rightKerningGroup = e;
rightMetricsKey = e;
unicode = 0153;
},
{
color = 9;
glyphname = p;
lastChange = "2019-09-04 19:35:22 +0000";
layers = (
{
anchors = (
{
name = bottom;
position = "{606, 0}";
},
{
name = bottomleft;
position = "{222, -400}";
},
{
name = center;
position = "{656, 480}";
},
{
name = top;
position = "{646, 922}";
}
);
layerId = "C9A88445-F9B1-43BF-9834-532EB19954E9";
paths = (
{
closed = 1;
nodes = (
"250 -400 OFFCURVE",
"264 -386 OFFCURVE",
"264 -358 CURVE SMOOTH",
"264 0 LINE",
"694 0 LINE SMOOTH",
"938 0 OFFCURVE",
"1044 106 OFFCURVE",
"1044 350 CURVE SMOOTH",
"1044 572 LINE SMOOTH",
"1044 816 OFFCURVE",
"938 922 OFFCURVE",
"694 922 CURVE SMOOTH",
"618 922 LINE SMOOTH",
"430 922 OFFCURVE",
"320 870 OFFCURVE",
"264 770 CURVE",
"264 880 LINE SMOOTH",
"264 908 OFFCURVE",
"250 922 OFFCURVE",
"222 922 CURVE SMOOTH",
"194 922 OFFCURVE",
"180 908 OFFCURVE",
"180 880 CURVE SMOOTH",
"180 -358 LINE SMOOTH",
"180 -386 OFFCURVE",
"194 -400 OFFCURVE",
"222 -400 CURVE SMOOTH"
);
},
{
closed = 1;
nodes = (
"264 608 LINE",
"284 764 OFFCURVE",
"390 838 OFFCURVE",
"618 838 CURVE SMOOTH",
"694 838 LINE SMOOTH",
"890 838 OFFCURVE",
"960 768 OFFCURVE",
"960 572 CURVE SMOOTH",
"960 350 LINE SMOOTH",
"960 154 OFFCURVE",
"890 84 OFFCURVE",
"694 84 CURVE SMOOTH",
"264 84 LINE"
);
}
);
width = 1204;
},
{
anchors = (
{
name = bottom;
position = "{692, 0}";
},
{
name = bottomleft;
position = "{292, -400}";
},
{
name = center;
position = "{704, 468}";
},
{
name = top;
position = "{730, 1014}";
}
);
layerId = "9D2B49D7-8C02-48EB-8D57-D561CCF616AE";
paths = (
{
closed = 1;
nodes = (
"346 -400 OFFCURVE",
"376 -370 OFFCURVE",
"376 -316 CURVE SMOOTH",
"376 0 LINE",
"764 0 LINE SMOOTH",
"1030 0 OFFCURVE",
"1156 126 OFFCURVE",
"1156 392 CURVE SMOOTH",
"1156 622 LINE SMOOTH",
"1156 888 OFFCURVE",
"1030 1014 OFFCURVE",
"764 1014 CURVE SMOOTH",
"688 1014 LINE SMOOTH",
"556 1014 OFFCURVE",
"448 977 OFFCURVE",
"376 905 CURVE",
"376 930 LINE SMOOTH",
"376 984 OFFCURVE",
"346 1014 OFFCURVE",
"292 1014 CURVE SMOOTH",
"238 1014 OFFCURVE",
"208 984 OFFCURVE",
"208 930 CURVE SMOOTH",
"208 -316 LINE SMOOTH",
"208 -370 OFFCURVE",
"238 -400 OFFCURVE",
"292 -400 CURVE SMOOTH"
);
},
{
closed = 1;
nodes = (
"376 721 LINE",
"383 807 OFFCURVE",
"521 846 OFFCURVE",
"688 846 CURVE SMOOTH",
"764 846 LINE SMOOTH",
"938 846 OFFCURVE",
"988 796 OFFCURVE",
"988 622 CURVE SMOOTH",
"988 392 LINE SMOOTH",
"988 218 OFFCURVE",
"938 168 OFFCURVE",
"764 168 CURVE SMOOTH",
"376 168 LINE"
);
}
);
width = 1316;
}
);
leftKerningGroup = n;
leftMetricsKey = n;
rightKerningGroup = o;
rightMetricsKey = o;
unicode = 0070;
},
{
color = 9;
glyphname = thorn;
lastChange = "2019-09-04 19:35:22 +0000";
layers = (
{
layerId = "C9A88445-F9B1-43BF-9834-532EB19954E9";
paths = (
{
closed = 1;
nodes = (
"250 -400 OFFCURVE",
"264 -386 OFFCURVE",
"264 -358 CURVE SMOOTH",
"264 2 LINE",
"694 2 LINE SMOOTH",
"938 2 OFFCURVE",
"1044 108 OFFCURVE",
"1044 352 CURVE SMOOTH",
"1044 574 LINE SMOOTH",
"1044 818 OFFCURVE",
"938 924 OFFCURVE",
"694 924 CURVE SMOOTH",
"618 924 LINE SMOOTH",
"456 924 OFFCURVE",
"338 872 OFFCURVE",
"264 772 CURVE",
"264 1246 LINE SMOOTH",
"264 1274 OFFCURVE",
"250 1288 OFFCURVE",
"222 1288 CURVE SMOOTH",
"194 1288 OFFCURVE",
"180 1274 OFFCURVE",
"180 1246 CURVE SMOOTH",
"180 -358 LINE SMOOTH",
"180 -386 OFFCURVE",
"194 -400 OFFCURVE",
"222 -400 CURVE SMOOTH"
);
},
{
closed = 1;
nodes = (
"264 582 LINE SMOOTH",
"264 754 OFFCURVE",
"380 840 OFFCURVE",
"618 840 CURVE SMOOTH",
"694 840 LINE SMOOTH",
"890 840 OFFCURVE",
"960 770 OFFCURVE",
"960 574 CURVE SMOOTH",
"960 352 LINE SMOOTH",
"960 156 OFFCURVE",
"890 86 OFFCURVE",
"694 86 CURVE SMOOTH",
"264 86 LINE"
);
}
);
width = 1204;
},
{
layerId = "9D2B49D7-8C02-48EB-8D57-D561CCF616AE";
paths = (
{
closed = 1;
nodes = (
"354 -400 OFFCURVE",
"376 -378 OFFCURVE",
"376 -316 CURVE SMOOTH",
"376 2 LINE",
"764 2 LINE SMOOTH",
"1030 2 OFFCURVE",
"1156 128 OFFCURVE",
"1156 394 CURVE SMOOTH",
"1156 616 LINE SMOOTH",
"1156 882 OFFCURVE",
"1030 1008 OFFCURVE",
"764 1008 CURVE SMOOTH",
"688 1008 LINE SMOOTH",
"562 1008 OFFCURVE",
"456 962 OFFCURVE",
"376 872 CURVE",
"376 1288 LINE SMOOTH",
"376 1350 OFFCURVE",
"354 1372 OFFCURVE",
"292 1372 CURVE SMOOTH",
"230 1372 OFFCURVE",
"208 1350 OFFCURVE",
"208 1288 CURVE SMOOTH",
"208 -316 LINE SMOOTH",
"208 -378 OFFCURVE",
"230 -400 OFFCURVE",
"292 -400 CURVE SMOOTH"
);
},
{
closed = 1;
nodes = (
"376 624 LINE SMOOTH",
"376 770 OFFCURVE",
"470 840 OFFCURVE",
"688 840 CURVE SMOOTH",
"764 840 LINE SMOOTH",
"938 840 OFFCURVE",
"988 790 OFFCURVE",
"988 616 CURVE SMOOTH",
"988 394 LINE SMOOTH",
"988 220 OFFCURVE",
"938 170 OFFCURVE",
"764 170 CURVE SMOOTH",
"376 170 LINE"
);
}
);
width = 1316;
}
);
leftKerningGroup = h;
leftMetricsKey = h;
rightKerningGroup = o;
rightMetricsKey = o;
unicode = 00FE;
},
{
color = 9;
glyphname = q;
lastChange = "2019-09-04 19:35:22 +0000";
layers = (
{
anchors = (
{
name = bottom;
position = "{572, 0}";
},
{
name = top;
position = "{572, 922}";
}
);
layerId = "C9A88445-F9B1-43BF-9834-532EB19954E9";
paths = (
{
closed = 1;
nodes = (
"1010 -400 OFFCURVE",
"1024 -386 OFFCURVE",
"1024 -358 CURVE SMOOTH",
"1024 880 LINE SMOOTH",
"1024 908 OFFCURVE",
"1010 922 OFFCURVE",
"982 922 CURVE SMOOTH",
"954 922 OFFCURVE",
"940 908 OFFCURVE",
"940 880 CURVE SMOOTH",
"940 770 LINE",
"884 870 OFFCURVE",
"774 922 OFFCURVE",
"586 922 CURVE SMOOTH",
"510 922 LINE SMOOTH",
"266 922 OFFCURVE",
"160 816 OFFCURVE",
"160 572 CURVE SMOOTH",
"160 350 LINE SMOOTH",
"160 106 OFFCURVE",
"266 0 OFFCURVE",
"510 0 CURVE SMOOTH",
"940 0 LINE",
"940 -358 LINE SMOOTH",
"940 -386 OFFCURVE",
"954 -400 OFFCURVE",
"982 -400 CURVE SMOOTH"
);
},
{
closed = 1;
nodes = (
"314 84 OFFCURVE",
"244 154 OFFCURVE",
"244 350 CURVE SMOOTH",
"244 572 LINE SMOOTH",
"244 768 OFFCURVE",
"314 838 OFFCURVE",
"510 838 CURVE SMOOTH",
"586 838 LINE SMOOTH",
"804 838 OFFCURVE",
"940 766 OFFCURVE",
"940 620 CURVE SMOOTH",
"940 84 LINE",
"510 84 LINE SMOOTH"
);
}
);
width = 1186;
},
{
anchors = (
{
name = bottom;
position = "{670, 0}";
},
{
name = top;
position = "{670, 1014}";
}
);
layerId = "9D2B49D7-8C02-48EB-8D57-D561CCF616AE";
paths = (
{
closed = 1;
nodes = (
"1078 -400 OFFCURVE",
"1108 -370 OFFCURVE",
"1108 -316 CURVE SMOOTH",
"1108 930 LINE SMOOTH",
"1108 984 OFFCURVE",
"1078 1014 OFFCURVE",
"1024 1014 CURVE SMOOTH",
"970 1014 OFFCURVE",
"940 984 OFFCURVE",
"940 930 CURVE SMOOTH",
"940 902 LINE",
"880 972 OFFCURVE",
"777 1014 OFFCURVE",
"628 1014 CURVE SMOOTH",
"552 1014 LINE SMOOTH",
"286 1014 OFFCURVE",
"160 888 OFFCURVE",
"160 622 CURVE SMOOTH",
"160 392 LINE SMOOTH",
"160 126 OFFCURVE",
"286 0 OFFCURVE",
"552 0 CURVE SMOOTH",
"940 0 LINE",
"940 -316 LINE SMOOTH",
"940 -370 OFFCURVE",
"970 -400 OFFCURVE",
"1024 -400 CURVE SMOOTH"
);
},
{
closed = 1;
nodes = (
"378 168 OFFCURVE",
"328 218 OFFCURVE",
"328 392 CURVE SMOOTH",
"328 622 LINE SMOOTH",
"328 796 OFFCURVE",
"378 846 OFFCURVE",
"552 846 CURVE SMOOTH",
"628 846 LINE SMOOTH",
"804 846 OFFCURVE",
"940 802 OFFCURVE",
"940 706 CURVE SMOOTH",
"940 168 LINE",
"552 168 LINE SMOOTH"
);
}
);
width = 1296;
}
);
leftKerningGroup = o;
leftMetricsKey = o;
rightKerningGroup = q;
rightMetricsKey = n;
unicode = 0071;
},
{
color = 9;
glyphname = r;
lastChange = "2019-09-04 19:35:22 +0000";
layers = (
{
anchors = (
{
name = bottom;
position = "{224, -2}";
},
{
name = top;
position = "{436, 922}";
}
);
layerId = "C9A88445-F9B1-43BF-9834-532EB19954E9";
paths = (
{
closed = 1;
nodes = (
"250 0 OFFCURVE",
"264 14 OFFCURVE",
"264 42 CURVE SMOOTH",
"264 502 LINE",
"280 720 OFFCURVE",
"416 838 OFFCURVE",
"656 838 CURVE SMOOTH",
"684 838 OFFCURVE",
"698 852 OFFCURVE",
"698 880 CURVE SMOOTH",
"698 908 OFFCURVE",
"686 922 OFFCURVE",
"656 922 CURVE SMOOTH",
"468 922 OFFCURVE",
"330 843 OFFCURVE",
"264 701 CURVE",
"264 880 LINE SMOOTH",
"264 908 OFFCURVE",
"250 922 OFFCURVE",
"222 922 CURVE SMOOTH",
"194 922 OFFCURVE",
"180 908 OFFCURVE",
"180 880 CURVE SMOOTH",
"180 42 LINE SMOOTH",
"180 14 OFFCURVE",
"194 0 OFFCURVE",
"222 0 CURVE SMOOTH"
);
}
);
width = 720;
},
{
anchors = (
{
name = bottom;
position = "{292, 0}";
},
{
name = top;
position = "{500, 1014}";
}
);
layerId = "9D2B49D7-8C02-48EB-8D57-D561CCF616AE";
paths = (
{
closed = 1;
nodes = (
"346 0 OFFCURVE",
"376 30 OFFCURVE",
"376 84 CURVE SMOOTH",
"376 613 LINE",
"382 753 OFFCURVE",
"505 846 OFFCURVE",
"736 846 CURVE SMOOTH",
"790 846 OFFCURVE",
"820 876 OFFCURVE",
"820 930 CURVE SMOOTH",
"820 984 OFFCURVE",
"790 1014 OFFCURVE",
"736 1014 CURVE SMOOTH",
"578 1014 OFFCURVE",
"455 958 OFFCURVE",
"376 852 CURVE",
"376 930 LINE SMOOTH",
"376 986 OFFCURVE",
"346 1014 OFFCURVE",
"292 1014 CURVE SMOOTH",
"238 1014 OFFCURVE",
"208 986 OFFCURVE",
"208 930 CURVE SMOOTH",
"208 84 LINE SMOOTH",
"208 30 OFFCURVE",
"238 0 OFFCURVE",
"292 0 CURVE SMOOTH"
);
}
);
width = 854;
}
);
leftKerningGroup = n;
leftMetricsKey = n;
rightKerningGroup = r;
unicode = 0072;
},
{
color = 9;
glyphname = s;
lastChange = "2025-02-05 13:17:52 +0000";
layers = (
{
anchors = (
{
name = bottom;
position = "{532, 0}";
},
{
name = top;
position = "{532, 922}";
}
);
layerId = "C9A88445-F9B1-43BF-9834-532EB19954E9";
paths = (
{
closed = 1;
nodes = (
"704 2 LINE SMOOTH",
"882 2 OFFCURVE",
"962 82 OFFCURVE",
"962 260 CURVE SMOOTH",
"962 438 OFFCURVE",
"882 518 OFFCURVE",
"704 518 CURVE SMOOTH",
"380 518 LINE SMOOTH",
"258 518 OFFCURVE",
"218 558 OFFCURVE",
"218 678 CURVE SMOOTH",
"218 800 OFFCURVE",
"258 840 OFFCURVE",
"380 840 CURVE SMOOTH",
"694 840 LINE SMOOTH",
"800 840 OFFCURVE",
"844 810 OFFCURVE",
"852 722 CURVE SMOOTH",
"856 694 OFFCURVE",
"868 680 OFFCURVE",
"896 680 CURVE SMOOTH",
"924 680 OFFCURVE",
"940 696 OFFCURVE",
"936 724 CURVE SMOOTH",
"924 860 OFFCURVE",
"846 924 OFFCURVE",
"694 924 CURVE SMOOTH",
"380 924 LINE SMOOTH",
"212 924 OFFCURVE",
"134 848 OFFCURVE",
"134 678 CURVE SMOOTH",
"134 510 OFFCURVE",
"212 434 OFFCURVE",
"380 434 CURVE SMOOTH",
"704 434 LINE SMOOTH",
"836 434 OFFCURVE",
"878 390 OFFCURVE",
"878 260 CURVE SMOOTH",
"878 130 OFFCURVE",
"836 86 OFFCURVE",
"704 86 CURVE SMOOTH",
"376 86 LINE SMOOTH",
"262 86 OFFCURVE",
"214 120 OFFCURVE",
"204 218 CURVE SMOOTH",
"202 246 OFFCURVE",
"188 260 OFFCURVE",
"162 260 CURVE SMOOTH",
"134 260 OFFCURVE",
"118 244 OFFCURVE",
"120 216 CURVE SMOOTH",
"134 70 OFFCURVE",
"214 2 OFFCURVE",
"376 2 CURVE SMOOTH"
);
}
);
width = 1082;
},
{
anchors = (
{
name = bottom;
position = "{632, 0}";
},
{
name = top;
position = "{632, 1014}";
}
);
layerId = "9D2B49D7-8C02-48EB-8D57-D561CCF616AE";
paths = (
{
closed = 1;
nodes = (
"774 0 LINE SMOOTH",
"974 0 OFFCURVE",
"1074 98 OFFCURVE",
"1074 300 CURVE SMOOTH",
"1074 500 OFFCURVE",
"974 600 OFFCURVE",
"774 600 CURVE SMOOTH",
"452 600 LINE SMOOTH",
"354 600 OFFCURVE",
"330 626 OFFCURVE",
"330 722 CURVE SMOOTH",
"330 826 OFFCURVE",
"350 846 OFFCURVE",
"452 846 CURVE SMOOTH",
"764 846 LINE SMOOTH",
"826 846 OFFCURVE",
"856 838 OFFCURVE",
"872 806 CURVE SMOOTH",
"886 756 OFFCURVE",
"908 728 OFFCURVE",
"960 728 CURVE SMOOTH",
"1016 728 OFFCURVE",
"1052 760 OFFCURVE",
"1042 816 CURVE SMOOTH",
"1014 946 OFFCURVE",
"922 1014 OFFCURVE",
"764 1014 CURVE SMOOTH",
"452 1014 LINE SMOOTH",
"256 1014 OFFCURVE",
"162 918 OFFCURVE",
"162 722 CURVE SMOOTH",
"162 530 OFFCURVE",
"260 432 OFFCURVE",
"452 432 CURVE SMOOTH",
"774 432 LINE SMOOTH",
"878 432 OFFCURVE",
"906 406 OFFCURVE",
"906 300 CURVE SMOOTH",
"906 192 OFFCURVE",
"878 168 OFFCURVE",
"774 168 CURVE SMOOTH",
"446 168 LINE SMOOTH",
"372 168 OFFCURVE",
"338 178 OFFCURVE",
"322 218 CURVE SMOOTH",
"306 272 OFFCURVE",
"286 300 OFFCURVE",
"232 300 CURVE SMOOTH",
"176 300 OFFCURVE",
"140 266 OFFCURVE",
"150 210 CURVE SMOOTH",
"178 70 OFFCURVE",
"276 0 OFFCURVE",
"446 0 CURVE SMOOTH"
);
}
);
width = 1222;
}
);
leftKerningGroup = s;
rightKerningGroup = s;
unicode = 0073;
},
{
color = 9;
glyphname = germandbls;
lastChange = "2019-09-04 19:35:22 +0000";
layers = (
{
layerId = "C9A88445-F9B1-43BF-9834-532EB19954E9";
paths = (
{
closed = 1;
nodes = (
"250 2 OFFCURVE",
"264 16 OFFCURVE",
"264 44 CURVE SMOOTH",
"264 1052 LINE SMOOTH",
"264 1232 OFFCURVE",
"328 1296 OFFCURVE",
"508 1296 CURVE SMOOTH",
"686 1296 OFFCURVE",
"750 1232 OFFCURVE",
"750 1054 CURVE SMOOTH",
"750 890 OFFCURVE",
"698 824 OFFCURVE",
"550 814 CURVE SMOOTH",
"522 812 OFFCURVE",
"508 798 OFFCURVE",
"508 770 CURVE SMOOTH",
"508 742 OFFCURVE",
"522 728 OFFCURVE",
"550 728 CURVE SMOOTH",
"608 728 LINE SMOOTH",
"802 728 OFFCURVE",
"870 660 OFFCURVE",
"870 466 CURVE SMOOTH",
"870 348 LINE SMOOTH",
"870 154 OFFCURVE",
"802 86 OFFCURVE",
"608 86 CURVE SMOOTH",
"486 86 LINE SMOOTH",
"458 86 OFFCURVE",
"444 72 OFFCURVE",
"444 44 CURVE SMOOTH",
"444 16 OFFCURVE",
"458 2 OFFCURVE",
"486 2 CURVE SMOOTH",
"608 2 LINE SMOOTH",
"850 2 OFFCURVE",
"954 106 OFFCURVE",
"954 348 CURVE SMOOTH",
"954 466 LINE SMOOTH",
"954 656 OFFCURVE",
"878 752 OFFCURVE",
"706 788 CURVE",
"794 842 OFFCURVE",
"834 934 OFFCURVE",
"834 1054 CURVE SMOOTH",
"834 1280 OFFCURVE",
"734 1380 OFFCURVE",
"508 1380 CURVE SMOOTH",
"280 1380 OFFCURVE",
"180 1280 OFFCURVE",
"180 1052 CURVE SMOOTH",
"180 44 LINE SMOOTH",
"180 16 OFFCURVE",
"194 2 OFFCURVE",
"222 2 CURVE SMOOTH"
);
}
);
width = 1034;
},
{
layerId = "9D2B49D7-8C02-48EB-8D57-D561CCF616AE";
paths = (
{
closed = 1;
nodes = (
"348 0 OFFCURVE",
"376 28 OFFCURVE",
"376 84 CURVE SMOOTH",
"376 1038 LINE SMOOTH",
"376 1196 OFFCURVE",
"420 1240 OFFCURVE",
"578 1240 CURVE SMOOTH",
"734 1240 OFFCURVE",
"778 1196 OFFCURVE",
"778 1040 CURVE SMOOTH",
"778 916 OFFCURVE",
"752 860 OFFCURVE",
"660 844 CURVE SMOOTH",
"604 838 OFFCURVE",
"578 810 OFFCURVE",
"578 758 CURVE SMOOTH",
"578 700 OFFCURVE",
"606 672 OFFCURVE",
"662 672 CURVE SMOOTH",
"678 672 LINE SMOOTH",
"850 672 OFFCURVE",
"898 624 OFFCURVE",
"898 452 CURVE SMOOTH",
"898 388 LINE SMOOTH",
"898 216 OFFCURVE",
"850 168 OFFCURVE",
"678 168 CURVE SMOOTH",
"556 168 LINE SMOOTH",
"500 168 OFFCURVE",
"472 140 OFFCURVE",
"472 84 CURVE SMOOTH",
"472 28 OFFCURVE",
"500 0 OFFCURVE",
"556 0 CURVE SMOOTH",
"678 0 LINE SMOOTH",
"942 0 OFFCURVE",
"1066 122 OFFCURVE",
"1066 388 CURVE SMOOTH",
"1066 452 LINE SMOOTH",
"1066 630 OFFCURVE",
"996 744 OFFCURVE",
"796 790 CURVE",
"914 850 OFFCURVE",
"946 942 OFFCURVE",
"946 1040 CURVE SMOOTH",
"946 1288 OFFCURVE",
"826 1408 OFFCURVE",
"578 1408 CURVE SMOOTH",
"328 1408 OFFCURVE",
"208 1288 OFFCURVE",
"208 1038 CURVE SMOOTH",
"208 84 LINE SMOOTH",
"208 28 OFFCURVE",
"236 0 OFFCURVE",
"292 0 CURVE SMOOTH"
);
}
);
width = 1174;
}
);
leftKerningGroup = h;
leftMetricsKey = n;
rightKerningGroup = germandbls;
unicode = 00DF;
},
{
color = 9;
glyphname = t;
lastChange = "2019-09-04 19:35:22 +0000";
layers = (
{
anchors = (
{
name = bottom;
position = "{388, 0}";
},
{
name = center;
position = "{328, 622}";
},
{
name = top;
position = "{250, 1202}";
},
{
name = topright;
position = "{406, 922}";
}
);
layerId = "C9A88445-F9B1-43BF-9834-532EB19954E9";
paths = (
{
closed = 1;
nodes = (
"582 0 OFFCURVE",
"596 14 OFFCURVE",
"596 42 CURVE SMOOTH",
"596 68 OFFCURVE",
"586 84 OFFCURVE",
"552 84 CURVE SMOOTH",
"358 84 OFFCURVE",
"292 150 OFFCURVE",
"292 342 CURVE SMOOTH",
"292 838 LINE",
"550 838 LINE SMOOTH",
"578 838 OFFCURVE",
"592 852 OFFCURVE",
"592 880 CURVE SMOOTH",
"592 908 OFFCURVE",
"578 922 OFFCURVE",
"550 922 CURVE SMOOTH",
"292 922 LINE",
"292 1160 LINE SMOOTH",
"292 1188 OFFCURVE",
"278 1202 OFFCURVE",
"250 1202 CURVE SMOOTH",
"222 1202 OFFCURVE",
"208 1188 OFFCURVE",
"208 1160 CURVE SMOOTH",
"208 922 LINE",
"82 922 LINE SMOOTH",
"54 922 OFFCURVE",
"40 908 OFFCURVE",
"40 880 CURVE SMOOTH",
"40 852 OFFCURVE",
"54 838 OFFCURVE",
"82 838 CURVE SMOOTH",
"208 838 LINE",
"208 342 LINE SMOOTH",
"208 104 OFFCURVE",
"312 0 OFFCURVE",
"552 0 CURVE SMOOTH"
);
}
);
width = 676;
},
{
anchors = (
{
name = bottom;
position = "{374, 0}";
},
{
name = center;
position = "{392, 622}";
},
{
name = top;
position = "{334, 1244}";
},
{
name = topright;
position = "{484, 1014}";
}
);
layerId = "9D2B49D7-8C02-48EB-8D57-D561CCF616AE";
paths = (
{
closed = 1;
nodes = (
"688 0 OFFCURVE",
"720 30 OFFCURVE",
"720 84 CURVE SMOOTH",
"720 142 OFFCURVE",
"688 168 OFFCURVE",
"636 168 CURVE SMOOTH",
"468 168 OFFCURVE",
"418 214 OFFCURVE",
"418 384 CURVE SMOOTH",
"418 846 LINE",
"648 846 LINE SMOOTH",
"702 846 OFFCURVE",
"732 876 OFFCURVE",
"732 930 CURVE SMOOTH",
"732 986 OFFCURVE",
"702 1014 OFFCURVE",
"648 1014 CURVE SMOOTH",
"418 1014 LINE",
"418 1160 LINE SMOOTH",
"418 1214 OFFCURVE",
"388 1244 OFFCURVE",
"334 1244 CURVE SMOOTH",
"280 1244 OFFCURVE",
"250 1214 OFFCURVE",
"250 1160 CURVE SMOOTH",
"250 1014 LINE",
"152 1014 LINE SMOOTH",
"98 1014 OFFCURVE",
"68 986 OFFCURVE",
"68 930 CURVE SMOOTH",
"68 876 OFFCURVE",
"98 846 OFFCURVE",
"152 846 CURVE SMOOTH",
"250 846 LINE",
"250 384 LINE SMOOTH",
"250 122 OFFCURVE",
"372 0 OFFCURVE",
"636 0 CURVE SMOOTH"
);
}
);
width = 838;
}
);
leftKerningGroup = t;
rightKerningGroup = t;
unicode = 0074;
},
{
color = 9;
glyphname = tbar;
lastChange = "2019-09-04 19:35:22 +0000";
layers = (
{
components = (
{
name = t;
}
);
layerId = "C9A88445-F9B1-43BF-9834-532EB19954E9";
paths = (
{
closed = 1;
nodes = (
"550 580 LINE SMOOTH",
"578 580 OFFCURVE",
"592 594 OFFCURVE",
"592 622 CURVE SMOOTH",
"592 650 OFFCURVE",
"578 664 OFFCURVE",
"550 664 CURVE SMOOTH",
"82 664 LINE SMOOTH",
"54 664 OFFCURVE",
"40 650 OFFCURVE",
"40 622 CURVE SMOOTH",
"40 594 OFFCURVE",
"54 580 OFFCURVE",
"82 580 CURVE SMOOTH"
);
}
);
width = 656;
},
{
components = (
{
name = t;
}
);
layerId = "9D2B49D7-8C02-48EB-8D57-D561CCF616AE";
paths = (
{
closed = 1;
nodes = (
"662 552 LINE SMOOTH",
"706 552 OFFCURVE",
"732 578 OFFCURVE",
"732 622 CURVE SMOOTH",
"732 666 OFFCURVE",
"706 692 OFFCURVE",
"662 692 CURVE SMOOTH",
"138 692 LINE SMOOTH",
"94 692 OFFCURVE",
"68 666 OFFCURVE",
"68 622 CURVE SMOOTH",
"68 578 OFFCURVE",
"94 552 OFFCURVE",
"138 552 CURVE SMOOTH"
);
}
);
width = 818;
}
);
leftKerningGroup = t;
rightKerningGroup = t;
unicode = 0167;
},
{
color = 9;
glyphname = v;
lastChange = "2019-09-04 19:35:22 +0000";
layers = (
{
anchors = (
{
name = bottom;
position = "{480, 0}";
},
{
name = top;
position = "{492, 922}";
}
);
layerId = "C9A88445-F9B1-43BF-9834-532EB19954E9";
paths = (
{
closed = 1;
nodes = (
"532 32 CURVE SMOOTH",
"938 862 LINE SMOOTH",
"950 888 OFFCURVE",
"940 908 OFFCURVE",
"916 918 CURVE SMOOTH",
"890 928 OFFCURVE",
"872 922 OFFCURVE",
"860 896 CURVE",
"450 50 LINE",
"510 50 LINE",
"122 896 LINE SMOOTH",
"112 920 OFFCURVE",
"92 928 OFFCURVE",
"68 918 CURVE SMOOTH",
"42 908 OFFCURVE",
"34 888 OFFCURVE",
"44 864 CURVE SMOOTH",
"426 32 LINE SMOOTH",
"436 10 OFFCURVE",
"450 0 OFFCURVE",
"478 0 CURVE SMOOTH",
"500 0 OFFCURVE",
"518 4 OFFCURVE"
);
}
);
width = 984;
},
{
anchors = (
{
name = bottom;
position = "{530, 0}";
},
{
name = top;
position = "{526, 1014}";
}
);
layerId = "9D2B49D7-8C02-48EB-8D57-D561CCF616AE";
paths = (
{
closed = 1;
nodes = (
"604 62 CURVE SMOOTH",
"972 892 LINE SMOOTH",
"994 942 OFFCURVE",
"982 980 OFFCURVE",
"932 1004 CURVE SMOOTH",
"884 1026 OFFCURVE",
"842 1008 OFFCURVE",
"820 964 CURVE SMOOTH",
"472 184 LINE",
"550 184 LINE",
"232 960 LINE SMOOTH",
"210 1010 OFFCURVE",
"170 1026 OFFCURVE",
"122 1004 CURVE SMOOTH",
"70 984 OFFCURVE",
"56 944 OFFCURVE",
"78 894 CURVE SMOOTH",
"418 66 LINE SMOOTH",
"436 22 OFFCURVE",
"464 0 OFFCURVE",
"508 0 CURVE SMOOTH",
"556 0 OFFCURVE",
"586 20 OFFCURVE"
);
}
);
width = 1052;
}
);
leftKerningGroup = v;
rightKerningGroup = v;
unicode = 0076;
},
{
color = 9;
glyphname = w;
lastChange = "2019-09-04 19:35:22 +0000";
layers = (
{
anchors = (
{
name = bottom;
position = "{687, 0}";
},
{
name = top;
position = "{689, 922}";
}
);
layerId = "C9A88445-F9B1-43BF-9834-532EB19954E9";
paths = (
{
closed = 1;
nodes = (
"401 0 OFFCURVE",
"423 4 OFFCURVE",
"433 34 CURVE SMOOTH",
"692 774 LINE",
"673 774 LINE",
"907 34 LINE SMOOTH",
"915 8 OFFCURVE",
"931 0 OFFCURVE",
"961 0 CURVE SMOOTH",
"989 0 OFFCURVE",
"1004 10 OFFCURVE",
"1013 34 CURVE SMOOTH",
"1323 864 LINE SMOOTH",
"1332 889 OFFCURVE",
"1323 908 OFFCURVE",
"1297 918 CURVE SMOOTH",
"1271 928 OFFCURVE",
"1253 918 OFFCURVE",
"1243 892 CURVE SMOOTH",
"935 46 LINE",
"991 46 LINE",
"731 872 LINE SMOOTH",
"724 894 OFFCURVE",
"709 906 OFFCURVE",
"685 906 CURVE SMOOTH",
"661 906 OFFCURVE",
"644 894 OFFCURVE",
"637 872 CURVE SMOOTH",
"359 46 LINE",
"411 46 LINE",
"121 892 LINE SMOOTH",
"112 918 OFFCURVE",
"95 926 OFFCURVE",
"69 918 CURVE SMOOTH",
"43 910 OFFCURVE",
"34 890 OFFCURVE",
"43 864 CURVE SMOOTH",
"327 34 LINE SMOOTH",
"335 10 OFFCURVE",
"349 0 OFFCURVE",
"379 0 CURVE SMOOTH"
);
}
);
width = 1367;
},
{
anchors = (
{
name = bottom;
position = "{740, 0}";
},
{
name = top;
position = "{740, 1014}";
}
);
layerId = "9D2B49D7-8C02-48EB-8D57-D561CCF616AE";
paths = (
{
closed = 1;
nodes = (
"482 0 OFFCURVE",
"514 24 OFFCURVE",
"528 68 CURVE SMOOTH",
"752 758 LINE",
"730 758 LINE",
"936 70 LINE SMOOTH",
"950 24 OFFCURVE",
"978 0 OFFCURVE",
"1028 0 CURVE SMOOTH",
"1076 0 OFFCURVE",
"1105 22 OFFCURVE",
"1122 68 CURVE SMOOTH",
"1426 900 LINE SMOOTH",
"1445 952 OFFCURVE",
"1426 990 OFFCURVE",
"1376 1008 CURVE SMOOTH",
"1324 1027 OFFCURVE",
"1287 1010 OFFCURVE",
"1268 956 CURVE SMOOTH",
"1037 288 LINE",
"1045 288 LINE",
"846 950 LINE SMOOTH",
"832 998 OFFCURVE",
"802 1020 OFFCURVE",
"756 1020 CURVE SMOOTH",
"706 1020 OFFCURVE",
"675 1000 OFFCURVE",
"660 954 CURVE SMOOTH",
"447 281 LINE",
"460 281 LINE",
"234 954 LINE SMOOTH",
"216 1008 OFFCURVE",
"180 1026 OFFCURVE",
"128 1008 CURVE SMOOTH",
"77 990 OFFCURVE",
"57 954 OFFCURVE",
"74 904 CURVE SMOOTH",
"352 68 LINE SMOOTH",
"367 22 OFFCURVE",
"396 0 OFFCURVE",
"440 0 CURVE SMOOTH"
);
}
);
width = 1502;
}
);
leftKerningGroup = v;
leftMetricsKey = v;
rightKerningGroup = v;
rightMetricsKey = v;
unicode = 0077;
},
{
color = 9;
glyphname = x;
lastChange = "2025-02-11 16:57:34 +0000";
layers = (
{
anchors = (
{
name = bottom;
position = "{478, 0}";
},
{
name = top;
position = "{478, 922}";
}
);
layerId = "C9A88445-F9B1-43BF-9834-532EB19954E9";
paths = (
{
closed = 1;
nodes = (
"128 -6 OFFCURVE",
"150 -2 OFFCURVE",
"166 18 CURVE SMOOTH",
"476 396 LINE",
"772 18 LINE SMOOTH",
"790 -4 OFFCURVE",
"810 -6 OFFCURVE",
"832 12 CURVE SMOOTH",
"854 28 OFFCURVE",
"856 48 OFFCURVE",
"838 70 CURVE SMOOTH",
"535 457 LINE",
"862 852 LINE SMOOTH",
"879 873 OFFCURVE",
"878 892 OFFCURVE",
"856 910 CURVE SMOOTH",
"836 928 OFFCURVE",
"814 926 OFFCURVE",
"796 904 CURVE SMOOTH",
"483 524 LINE",
"186 904 LINE SMOOTH",
"168 926 OFFCURVE",
"148 928 OFFCURVE",
"126 912 CURVE",
"106 894 OFFCURVE",
"102 874 OFFCURVE",
"120 852 CURVE SMOOTH",
"423 464 LINE",
"102 72 LINE SMOOTH",
"84 50 OFFCURVE",
"86 30 OFFCURVE",
"108 12 CURVE SMOOTH"
);
}
);
width = 964;
},
{
anchors = (
{
name = bottom;
position = "{538, 0}";
},
{
name = top;
position = "{548, 1014}";
}
);
layerId = "9D2B49D7-8C02-48EB-8D57-D561CCF616AE";
paths = (
{
closed = 1;
nodes = (
"190 -12 OFFCURVE",
"232 -4 OFFCURVE",
"264 40 CURVE SMOOTH",
"531 415 LINE",
"820 38 LINE SMOOTH",
"852 -6 OFFCURVE",
"894 -12 OFFCURVE",
"938 22 CURVE SMOOTH",
"980 56 OFFCURVE",
"984 96 OFFCURVE",
"952 140 CURVE SMOOTH",
"647 538 LINE",
"904 876 LINE SMOOTH",
"936 920 OFFCURVE",
"930 962 OFFCURVE",
"888 994 CURVE SMOOTH",
"844 1028 OFFCURVE",
"802 1022 OFFCURVE",
"770 978 CURVE SMOOTH",
"542 676 LINE",
"310 978 LINE SMOOTH",
"278 1020 OFFCURVE",
"236 1026 OFFCURVE",
"194 992 CURVE SMOOTH",
"150 960 OFFCURVE",
"144 918 OFFCURVE",
"178 876 CURVE SMOOTH",
"424 555 LINE",
"128 138 LINE SMOOTH",
"96 94 OFFCURVE",
"102 54 OFFCURVE",
"146 20 CURVE SMOOTH"
);
}
);
width = 1066;
}
);
leftKerningGroup = x;
rightKerningGroup = x;
unicode = 0078;
},
{
color = 9;
glyphname = y;
lastChange = "2019-09-04 19:35:22 +0000";
layers = (
{
anchors = (
{
name = bottom;
position = "{1172, 0}";
},
{
name = top;
position = "{574, 922}";
}
);
layerId = "C9A88445-F9B1-43BF-9834-532EB19954E9";
paths = (
{
closed = 1;
nodes = (
"740 -400 LINE SMOOTH",
"910 -400 OFFCURVE",
"986 -324 OFFCURVE",
"986 -152 CURVE SMOOTH",
"986 882 LINE SMOOTH",
"986 910 OFFCURVE",
"972 924 OFFCURVE",
"944 924 CURVE SMOOTH",
"916 924 OFFCURVE",
"902 910 OFFCURVE",
"902 882 CURVE SMOOTH",
"902 340 LINE SMOOTH",
"902 168 OFFCURVE",
"786 82 OFFCURVE",
"548 82 CURVE SMOOTH",
"506 82 LINE SMOOTH",
"312 82 OFFCURVE",
"246 148 OFFCURVE",
"246 340 CURVE SMOOTH",
"246 882 LINE SMOOTH",
"246 910 OFFCURVE",
"232 924 OFFCURVE",
"204 924 CURVE SMOOTH",
"176 924 OFFCURVE",
"162 910 OFFCURVE",
"162 882 CURVE SMOOTH",
"162 340 LINE SMOOTH",
"162 102 OFFCURVE",
"266 -2 OFFCURVE",
"506 -2 CURVE SMOOTH",
"548 -2 LINE SMOOTH",
"710 -2 OFFCURVE",
"828 36 OFFCURVE",
"902 130 CURVE",
"902 -152 LINE SMOOTH",
"902 -278 OFFCURVE",
"862 -316 OFFCURVE",
"740 -316 CURVE SMOOTH",
"408 -316 LINE SMOOTH",
"286 -316 OFFCURVE",
"246 -278 OFFCURVE",
"246 -152 CURVE SMOOTH",
"246 -124 OFFCURVE",
"232 -110 OFFCURVE",
"204 -110 CURVE SMOOTH",
"176 -110 OFFCURVE",
"162 -124 OFFCURVE",
"162 -152 CURVE SMOOTH",
"162 -324 OFFCURVE",
"238 -400 OFFCURVE",
"408 -400 CURVE SMOOTH"
);
}
);
width = 1166;
},
{
anchors = (
{
name = bottom;
position = "{1310, 0}";
},
{
name = top;
position = "{670, 1014}";
}
);
layerId = "9D2B49D7-8C02-48EB-8D57-D561CCF616AE";
paths = (
{
closed = 1;
nodes = (
"864 -400 LINE SMOOTH",
"1056 -400 OFFCURVE",
"1152 -304 OFFCURVE",
"1152 -110 CURVE SMOOTH",
"1152 930 LINE SMOOTH",
"1152 986 OFFCURVE",
"1124 1014 OFFCURVE",
"1068 1014 CURVE SMOOTH",
"1012 1014 OFFCURVE",
"984 986 OFFCURVE",
"984 930 CURVE SMOOTH",
"984 384 LINE SMOOTH",
"984 238 OFFCURVE",
"890 168 OFFCURVE",
"672 168 CURVE SMOOTH",
"574 168 LINE SMOOTH",
"404 168 OFFCURVE",
"356 216 OFFCURVE",
"356 384 CURVE SMOOTH",
"356 930 LINE SMOOTH",
"356 986 OFFCURVE",
"328 1014 OFFCURVE",
"272 1014 CURVE SMOOTH",
"216 1014 OFFCURVE",
"188 986 OFFCURVE",
"188 930 CURVE SMOOTH",
"188 384 LINE SMOOTH",
"188 122 OFFCURVE",
"310 0 OFFCURVE",
"574 0 CURVE SMOOTH",
"672 0 LINE SMOOTH",
"796 0 OFFCURVE",
"904 24 OFFCURVE",
"984 144 CURVE",
"984 -110 LINE SMOOTH",
"984 -210 OFFCURVE",
"962 -232 OFFCURVE",
"864 -232 CURVE SMOOTH",
"476 -232 LINE SMOOTH",
"376 -232 OFFCURVE",
"356 -210 OFFCURVE",
"356 -110 CURVE SMOOTH",
"356 -54 OFFCURVE",
"328 -26 OFFCURVE",
"272 -26 CURVE SMOOTH",
"216 -26 OFFCURVE",
"188 -54 OFFCURVE",
"188 -110 CURVE SMOOTH",
"188 -304 OFFCURVE",
"282 -400 OFFCURVE",
"476 -400 CURVE SMOOTH"
);
}
);
width = 1360;
}
);
leftKerningGroup = u;
leftMetricsKey = u;
rightKerningGroup = u;
rightMetricsKey = u;
unicode = 0079;
},
{
color = 9;
glyphname = z;
lastChange = "2019-09-04 19:35:22 +0000";
layers = (
{
anchors = (
{
name = bottom;
position = "{518, 0}";
},
{
name = top;
position = "{518, 922}";
}
);
layerId = "C9A88445-F9B1-43BF-9834-532EB19954E9";
paths = (
{
closed = 1;
nodes = (
"698 0 LINE SMOOTH",
"846 0 OFFCURVE",
"928 68 OFFCURVE",
"942 202 CURVE SMOOTH",
"946 230 OFFCURVE",
"930 246 OFFCURVE",
"902 246 CURVE SMOOTH",
"874 246 OFFCURVE",
"862 232 OFFCURVE",
"858 204 CURVE SMOOTH",
"848 118 OFFCURVE",
"800 84 OFFCURVE",
"698 84 CURVE SMOOTH",
"192 84 LINE",
"234 74 LINE",
"848 832 LINE SMOOTH",
"862 850 OFFCURVE",
"866 862 OFFCURVE",
"866 880 CURVE SMOOTH",
"866 908 OFFCURVE",
"852 922 OFFCURVE",
"824 922 CURVE SMOOTH",
"334 922 LINE SMOOTH",
"180 922 OFFCURVE",
"102 860 OFFCURVE",
"90 720 CURVE SMOOTH",
"88 692 OFFCURVE",
"104 676 OFFCURVE",
"132 676 CURVE SMOOTH",
"158 676 OFFCURVE",
"172 690 OFFCURVE",
"174 718 CURVE SMOOTH",
"184 810 OFFCURVE",
"226 838 OFFCURVE",
"334 838 CURVE SMOOTH",
"812 838 LINE",
"760 856 LINE",
"136 88 LINE SMOOTH",
"124 72 OFFCURVE",
"118 58 OFFCURVE",
"118 42 CURVE SMOOTH",
"118 14 OFFCURVE",
"134 0 OFFCURVE",
"160 0 CURVE SMOOTH"
);
}
);
width = 1012;
},
{
anchors = (
{
name = bottom;
position = "{544, 0}";
},
{
name = top;
position = "{568, 1014}";
}
);
layerId = "9D2B49D7-8C02-48EB-8D57-D561CCF616AE";
paths = (
{
closed = 1;
nodes = (
"736 0 LINE SMOOTH",
"892 0 OFFCURVE",
"988 70 OFFCURVE",
"1016 200 CURVE SMOOTH",
"1028 256 OFFCURVE",
"992 288 OFFCURVE",
"934 288 CURVE SMOOTH",
"882 288 OFFCURVE",
"864 260 OFFCURVE",
"846 210 CURVE SMOOTH",
"830 178 OFFCURVE",
"798 168 OFFCURVE",
"736 168 CURVE SMOOTH",
"322 170 LINE",
"344 136 LINE",
"910 846 LINE SMOOTH",
"936 878 OFFCURVE",
"946 902 OFFCURVE",
"946 930 CURVE SMOOTH",
"946 986 OFFCURVE",
"916 1014 OFFCURVE",
"862 1014 CURVE SMOOTH",
"372 1014 LINE SMOOTH",
"210 1014 OFFCURVE",
"118 948 OFFCURVE",
"92 814 CURVE SMOOTH",
"82 758 OFFCURVE",
"116 726 OFFCURVE",
"174 726 CURVE SMOOTH",
"226 726 OFFCURVE",
"246 754 OFFCURVE",
"260 806 CURVE SMOOTH",
"276 838 OFFCURVE",
"306 846 OFFCURVE",
"372 846 CURVE SMOOTH",
"750 846 LINE",
"746 886 LINE",
"170 166 LINE SMOOTH",
"144 134 OFFCURVE",
"134 110 OFFCURVE",
"134 84 CURVE SMOOTH",
"134 30 OFFCURVE",
"166 0 OFFCURVE",
"218 0 CURVE SMOOTH"
);
}
);
width = 1090;
}
);
leftKerningGroup = z;
rightKerningGroup = z;
unicode = 007A;
},
{
color = 9;
glyphname = a.ss01;
lastChange = "2019-09-04 19:35:22 +0000";
layers = (
{
layerId = "C9A88445-F9B1-43BF-9834-532EB19954E9";
paths = (
{
closed = 1;
nodes = (
"586 0 LINE SMOOTH",
"760 0 OFFCURVE",
"882 52 OFFCURVE",
"947 149 CURVE",
"966 60 OFFCURVE",
"1022 12 OFFCURVE",
"1120 2 CURVE SMOOTH",
"1148 -1 OFFCURVE",
"1164 16 OFFCURVE",
"1164 44 CURVE SMOOTH",
"1164 70 OFFCURVE",
"1150 82 OFFCURVE",
"1122 86 CURVE SMOOTH",
"1048 97 OFFCURVE",
"1024 132 OFFCURVE",
"1024 224 CURVE SMOOTH",
"1024 878 LINE SMOOTH",
"1024 906 OFFCURVE",
"1010 920 OFFCURVE",
"982 920 CURVE SMOOTH",
"954 920 OFFCURVE",
"940 906 OFFCURVE",
"940 878 CURVE SMOOTH",
"940 801 LINE",
"895 885 OFFCURVE",
"811 922 OFFCURVE",
"682 922 CURVE SMOOTH",
"502 922 LINE SMOOTH",
"258 922 OFFCURVE",
"160 824 OFFCURVE",
"160 572 CURVE SMOOTH",
"160 342 LINE SMOOTH",
"160 104 OFFCURVE",
"264 0 OFFCURVE",
"504 0 CURVE SMOOTH"
);
},
{
closed = 1;
nodes = (
"310 84 OFFCURVE",
"244 150 OFFCURVE",
"244 342 CURVE SMOOTH",
"244 572 LINE SMOOTH",
"244 778 OFFCURVE",
"306 838 OFFCURVE",
"502 838 CURVE SMOOTH",
"682 838 LINE SMOOTH",
"864 838 OFFCURVE",
"940 784 OFFCURVE",
"940 612 CURVE SMOOTH",
"940 302 LINE SMOOTH",
"940 156 OFFCURVE",
"804 84 OFFCURVE",
"586 84 CURVE SMOOTH",
"504 84 LINE SMOOTH"
);
}
);
width = 1224;
},
{
layerId = "9D2B49D7-8C02-48EB-8D57-D561CCF616AE";
paths = (
{
closed = 1;
nodes = (
"628 0 LINE SMOOTH",
"779 0 OFFCURVE",
"893 46 OFFCURVE",
"960 140 CURVE",
"987 71 OFFCURVE",
"1040 26 OFFCURVE",
"1118 8 CURVE SMOOTH",
"1173 -5 OFFCURVE",
"1206 30 OFFCURVE",
"1206 88 CURVE SMOOTH",
"1206 142 OFFCURVE",
"1178 158 OFFCURVE",
"1145 171 CURVE SMOOTH",
"1115 183 OFFCURVE",
"1108 194 OFFCURVE",
"1108 266 CURVE SMOOTH",
"1108 932 LINE SMOOTH",
"1108 984 OFFCURVE",
"1078 1016 OFFCURVE",
"1024 1016 CURVE SMOOTH",
"975 1016 OFFCURVE",
"946 990 OFFCURVE",
"941 947 CURVE",
"941 946 LINE",
"890 993 OFFCURVE",
"819 1014 OFFCURVE",
"724 1014 CURVE SMOOTH",
"544 1014 LINE SMOOTH",
"278 1014 OFFCURVE",
"160 896 OFFCURVE",
"160 622 CURVE SMOOTH",
"160 384 LINE SMOOTH",
"160 120 OFFCURVE",
"284 0 OFFCURVE",
"546 0 CURVE SMOOTH"
);
},
{
closed = 1;
nodes = (
"378 168 OFFCURVE",
"328 214 OFFCURVE",
"328 384 CURVE SMOOTH",
"328 622 LINE SMOOTH",
"328 804 OFFCURVE",
"370 846 OFFCURVE",
"544 846 CURVE SMOOTH",
"724 846 LINE SMOOTH",
"859 846 OFFCURVE",
"940 821 OFFCURVE",
"940 720 CURVE SMOOTH",
"940 308 LINE SMOOTH",
"940 210 OFFCURVE",
"804 168 OFFCURVE",
"628 168 CURVE SMOOTH",
"546 168 LINE SMOOTH"
);
}
);
width = 1296;
}
);
leftKerningGroup = o;
leftMetricsKey = o;
rightKerningGroup = l;
rightMetricsKey = l;
},
{
color = 9;
glyphname = f_f;
lastChange = "2019-09-04 19:35:22 +0000";
layers = (
{
components = (
{
name = f;
transform = "{1, 0, 0, 1, 584, 0}";
}
);
layerId = "C9A88445-F9B1-43BF-9834-532EB19954E9";
paths = (
{
closed = 1;
nodes = (
"260 0 OFFCURVE",
"274 14 OFFCURVE",
"274 42 CURVE SMOOTH",
"274 1036 LINE SMOOTH",
"274 1228 OFFCURVE",
"342 1296 OFFCURVE",
"534 1296 CURVE SMOOTH",
"562 1296 OFFCURVE",
"578 1310 OFFCURVE",
"578 1338 CURVE SMOOTH",
"578 1366 OFFCURVE",
"562 1380 OFFCURVE",
"534 1380 CURVE SMOOTH",
"294 1380 OFFCURVE",
"190 1276 OFFCURVE",
"190 1036 CURVE SMOOTH",
"190 42 LINE SMOOTH",
"190 14 OFFCURVE",
"204 0 OFFCURVE",
"232 0 CURVE SMOOTH"
);
},
{
closed = 1;
nodes = (
"758 838 LINE SMOOTH",
"786 838 OFFCURVE",
"800 852 OFFCURVE",
"800 880 CURVE SMOOTH",
"800 908 OFFCURVE",
"786 922 OFFCURVE",
"758 922 CURVE SMOOTH",
"102 922 LINE SMOOTH",
"74 922 OFFCURVE",
"60 908 OFFCURVE",
"60 880 CURVE SMOOTH",
"60 852 OFFCURVE",
"74 838 OFFCURVE",
"102 838 CURVE SMOOTH"
);
}
);
width = 1202;
},
{
components = (
{
name = f;
transform = "{1, 0, 0, 1, 640, 0}";
}
);
layerId = "9D2B49D7-8C02-48EB-8D57-D561CCF616AE";
paths = (
{
closed = 1;
nodes = (
"384 0 OFFCURVE",
"414 30 OFFCURVE",
"414 84 CURVE SMOOTH",
"414 1022 LINE SMOOTH",
"414 1192 OFFCURVE",
"466 1240 OFFCURVE",
"632 1240 CURVE SMOOTH",
"676 1240 OFFCURVE",
"704 1270 OFFCURVE",
"704 1324 CURVE SMOOTH",
"704 1380 OFFCURVE",
"676 1408 OFFCURVE",
"632 1408 CURVE SMOOTH",
"370 1408 OFFCURVE",
"246 1284 OFFCURVE",
"246 1022 CURVE SMOOTH",
"246 84 LINE SMOOTH",
"246 30 OFFCURVE",
"276 0 OFFCURVE",
"330 0 CURVE SMOOTH"
);
},
{
closed = 1;
nodes = (
"946 846 LINE SMOOTH",
"998 846 OFFCURVE",
"1030 878 OFFCURVE",
"1030 930 CURVE SMOOTH",
"1030 984 OFFCURVE",
"998 1014 OFFCURVE",
"946 1014 CURVE SMOOTH",
"172 1014 LINE SMOOTH",
"118 1014 OFFCURVE",
"88 984 OFFCURVE",
"88 930 CURVE SMOOTH",
"88 878 OFFCURVE",
"118 846 OFFCURVE",
"172 846 CURVE SMOOTH"
);
}
);
width = 1412;
}
);
leftKerningGroup = f;
leftMetricsKey = f;
rightKerningGroup = f;
rightMetricsKey = f;
},
{
color = 9;
glyphname = f_f_i;
lastChange = "2019-09-04 19:35:22 +0000";
layers = (
{
components = (
{
name = fi;
transform = "{1, 0, 0, 1, 584, 0}";
}
);
layerId = "C9A88445-F9B1-43BF-9834-532EB19954E9";
paths = (
{
closed = 1;
nodes = (
"260 0 OFFCURVE",
"274 14 OFFCURVE",
"274 42 CURVE SMOOTH",
"274 1036 LINE SMOOTH",
"274 1228 OFFCURVE",
"342 1296 OFFCURVE",
"534 1296 CURVE SMOOTH",
"562 1296 OFFCURVE",
"578 1310 OFFCURVE",
"578 1338 CURVE SMOOTH",
"578 1366 OFFCURVE",
"562 1380 OFFCURVE",
"534 1380 CURVE SMOOTH",
"294 1380 OFFCURVE",
"190 1276 OFFCURVE",
"190 1036 CURVE SMOOTH",
"190 42 LINE SMOOTH",
"190 14 OFFCURVE",
"204 0 OFFCURVE",
"232 0 CURVE SMOOTH"
);
},
{
closed = 1;
nodes = (
"758 838 LINE SMOOTH",
"786 838 OFFCURVE",
"800 852 OFFCURVE",
"800 880 CURVE SMOOTH",
"800 908 OFFCURVE",
"786 922 OFFCURVE",
"758 922 CURVE SMOOTH",
"102 922 LINE SMOOTH",
"74 922 OFFCURVE",
"60 908 OFFCURVE",
"60 880 CURVE SMOOTH",
"60 852 OFFCURVE",
"74 838 OFFCURVE",
"102 838 CURVE SMOOTH"
);
}
);
width = 1616;
},
{
components = (
{
name = fi;
transform = "{1, 0, 0, 1, 638, 0}";
}
);
layerId = "9D2B49D7-8C02-48EB-8D57-D561CCF616AE";
paths = (
{
closed = 1;
nodes = (
"384 0 OFFCURVE",
"414 30 OFFCURVE",
"414 84 CURVE SMOOTH",
"414 1022 LINE SMOOTH",
"414 1192 OFFCURVE",
"466 1240 OFFCURVE",
"632 1240 CURVE SMOOTH",
"676 1240 OFFCURVE",
"704 1270 OFFCURVE",
"704 1324 CURVE SMOOTH",
"704 1380 OFFCURVE",
"676 1408 OFFCURVE",
"632 1408 CURVE SMOOTH",
"370 1408 OFFCURVE",
"246 1284 OFFCURVE",
"246 1022 CURVE SMOOTH",
"246 84 LINE SMOOTH",
"246 30 OFFCURVE",
"276 0 OFFCURVE",
"330 0 CURVE SMOOTH"
);
},
{
closed = 1;
nodes = (
"942 846 LINE SMOOTH",
"996 846 OFFCURVE",
"1026 878 OFFCURVE",
"1026 930 CURVE SMOOTH",
"1026 984 OFFCURVE",
"996 1014 OFFCURVE",
"942 1014 CURVE SMOOTH",
"172 1014 LINE SMOOTH",
"118 1014 OFFCURVE",
"88 984 OFFCURVE",
"88 930 CURVE SMOOTH",
"88 878 OFFCURVE",
"118 846 OFFCURVE",
"172 846 CURVE SMOOTH"
);
}
);
width = 1899;
}
);
leftKerningGroup = f;
leftMetricsKey = f;
rightKerningGroup = dotless;
rightMetricsKey = i;
},
{
color = 9;
glyphname = f_f_l;
lastChange = "2019-09-04 19:35:22 +0000";
layers = (
{
components = (
{
name = fl;
transform = "{1, 0, 0, 1, 584, 0}";
}
);
layerId = "C9A88445-F9B1-43BF-9834-532EB19954E9";
paths = (
{
closed = 1;
nodes = (
"260 0 OFFCURVE",
"274 14 OFFCURVE",
"274 42 CURVE SMOOTH",
"274 1036 LINE SMOOTH",
"274 1228 OFFCURVE",
"342 1296 OFFCURVE",
"534 1296 CURVE SMOOTH",
"562 1296 OFFCURVE",
"578 1310 OFFCURVE",
"578 1338 CURVE SMOOTH",
"578 1366 OFFCURVE",
"562 1380 OFFCURVE",
"534 1380 CURVE SMOOTH",
"294 1380 OFFCURVE",
"190 1276 OFFCURVE",
"190 1036 CURVE SMOOTH",
"190 42 LINE SMOOTH",
"190 14 OFFCURVE",
"204 0 OFFCURVE",
"232 0 CURVE SMOOTH"
);
},
{
closed = 1;
nodes = (
"758 838 LINE SMOOTH",
"786 838 OFFCURVE",
"800 852 OFFCURVE",
"800 880 CURVE SMOOTH",
"800 908 OFFCURVE",
"786 922 OFFCURVE",
"758 922 CURVE SMOOTH",
"102 922 LINE SMOOTH",
"74 922 OFFCURVE",
"60 908 OFFCURVE",
"60 880 CURVE SMOOTH",
"60 852 OFFCURVE",
"74 838 OFFCURVE",
"102 838 CURVE SMOOTH"
);
}
);
width = 1680;
},
{
components = (
{
name = fl;
transform = "{1, 0, 0, 1, 612, 0}";
}
);
layerId = "9D2B49D7-8C02-48EB-8D57-D561CCF616AE";
paths = (
{
closed = 1;
nodes = (
"384 0 OFFCURVE",
"414 30 OFFCURVE",
"414 84 CURVE SMOOTH",
"414 1022 LINE SMOOTH",
"414 1192 OFFCURVE",
"466 1240 OFFCURVE",
"632 1240 CURVE SMOOTH",
"676 1240 OFFCURVE",
"704 1270 OFFCURVE",
"704 1324 CURVE SMOOTH",
"704 1380 OFFCURVE",
"676 1408 OFFCURVE",
"632 1408 CURVE SMOOTH",
"370 1408 OFFCURVE",
"246 1284 OFFCURVE",
"246 1022 CURVE SMOOTH",
"246 84 LINE SMOOTH",
"246 30 OFFCURVE",
"276 0 OFFCURVE",
"330 0 CURVE SMOOTH"
);
},
{
closed = 1;
nodes = (
"858 846 LINE SMOOTH",
"912 846 OFFCURVE",
"942 878 OFFCURVE",
"942 930 CURVE SMOOTH",
"942 984 OFFCURVE",
"912 1014 OFFCURVE",
"858 1014 CURVE SMOOTH",
"172 1014 LINE SMOOTH",
"118 1014 OFFCURVE",
"88 984 OFFCURVE",
"88 930 CURVE SMOOTH",
"88 878 OFFCURVE",
"118 846 OFFCURVE",
"172 846 CURVE SMOOTH"
);
}
);
width = 1992;
}
);
leftKerningGroup = f;
leftMetricsKey = f;
rightKerningGroup = l;
rightMetricsKey = l;
},
{
color = 9;
glyphname = fi;
lastChange = "2019-09-04 19:35:22 +0000";
layers = (
{
components = (
{
alignment = -1;
name = idotless;
transform = "{1, 0, 0, 1, 594, 0}";
},
{
alignment = -1;
name = dotaccentcomb;
transform = "{0.9259, 0, 0, 0.9259, 604, 202}";
}
);
layerId = "C9A88445-F9B1-43BF-9834-532EB19954E9";
paths = (
{
closed = 1;
nodes = (
"260 0 OFFCURVE",
"274 14 OFFCURVE",
"274 42 CURVE SMOOTH",
"274 838 LINE",
"816 838 LINE SMOOTH",
"844 838 OFFCURVE",
"858 852 OFFCURVE",
"858 880 CURVE SMOOTH",
"858 908 OFFCURVE",
"844 922 OFFCURVE",
"816 922 CURVE SMOOTH",
"274 922 LINE",
"274 1038 LINE SMOOTH",
"274 1230 OFFCURVE",
"340 1296 OFFCURVE",
"534 1296 CURVE",
"778 1232 LINE",
"794 1380 LINE",
"534 1380 LINE SMOOTH",
"294 1380 OFFCURVE",
"190 1276 OFFCURVE",
"190 1038 CURVE SMOOTH",
"190 922 LINE",
"102 922 LINE SMOOTH",
"74 922 OFFCURVE",
"60 908 OFFCURVE",
"60 880 CURVE SMOOTH",
"60 852 OFFCURVE",
"74 838 OFFCURVE",
"102 838 CURVE SMOOTH",
"190 838 LINE",
"190 42 LINE SMOOTH",
"190 14 OFFCURVE",
"204 0 OFFCURVE",
"232 0 CURVE SMOOTH"
);
}
);
width = 1032;
},
{
components = (
{
alignment = -1;
name = idotless;
transform = "{1, 0, 0, 1, 678, 0}";
},
{
alignment = -1;
name = dotaccentcomb;
transform = "{1.0296, 0, 0, 1.0296, 758, -56}";
}
);
layerId = "9D2B49D7-8C02-48EB-8D57-D561CCF616AE";
paths = (
{
closed = 1;
nodes = (
"384 0 OFFCURVE",
"414 30 OFFCURVE",
"414 84 CURVE SMOOTH",
"414 846 LINE",
"972 846 LINE SMOOTH",
"1026 846 OFFCURVE",
"1056 878 OFFCURVE",
"1056 930 CURVE SMOOTH",
"1056 984 OFFCURVE",
"1026 1014 OFFCURVE",
"972 1014 CURVE SMOOTH",
"414 1014 LINE",
"414 1022 LINE SMOOTH",
"414 1190 OFFCURVE",
"466 1240 OFFCURVE",
"632 1240 CURVE",
"904 1162 LINE",
"956 1408 LINE",
"632 1408 LINE SMOOTH",
"370 1408 OFFCURVE",
"246 1284 OFFCURVE",
"246 1022 CURVE SMOOTH",
"246 1014 LINE",
"172 1014 LINE SMOOTH",
"118 1014 OFFCURVE",
"88 984 OFFCURVE",
"88 930 CURVE SMOOTH",
"88 878 OFFCURVE",
"118 846 OFFCURVE",
"172 846 CURVE SMOOTH",
"246 846 LINE",
"246 84 LINE SMOOTH",
"246 30 OFFCURVE",
"276 0 OFFCURVE",
"330 0 CURVE SMOOTH"
);
}
);
width = 1261;
}
);
leftKerningGroup = f;
leftMetricsKey = f;
rightMetricsKey = i;
unicode = FB01;
},
{
color = 9;
glyphname = fl;
lastChange = "2019-09-04 19:35:22 +0000";
layers = (
{
layerId = "C9A88445-F9B1-43BF-9834-532EB19954E9";
paths = (
{
closed = 1;
nodes = (
"1020 -2 OFFCURVE",
"1036 14 OFFCURVE",
"1036 40 CURVE SMOOTH",
"1036 68 OFFCURVE",
"1022 82 OFFCURVE",
"994 84 CURVE SMOOTH",
"890 90 OFFCURVE",
"858 130 OFFCURVE",
"858 222 CURVE SMOOTH",
"858 1338 LINE SMOOTH",
"858 1366 OFFCURVE",
"844 1380 OFFCURVE",
"816 1380 CURVE SMOOTH",
"534 1380 LINE SMOOTH",
"294 1380 OFFCURVE",
"190 1276 OFFCURVE",
"190 1036 CURVE SMOOTH",
"190 42 LINE SMOOTH",
"190 14 OFFCURVE",
"204 0 OFFCURVE",
"232 0 CURVE SMOOTH",
"260 0 OFFCURVE",
"274 14 OFFCURVE",
"274 42 CURVE SMOOTH",
"274 1036 LINE SMOOTH",
"274 1228 OFFCURVE",
"342 1296 OFFCURVE",
"534 1296 CURVE SMOOTH",
"774 1296 LINE",
"774 222 LINE SMOOTH",
"774 80 OFFCURVE",
"842 10 OFFCURVE",
"992 0 CURVE SMOOTH"
);
},
{
closed = 1;
nodes = (
"534 838 LINE SMOOTH",
"562 838 OFFCURVE",
"576 852 OFFCURVE",
"576 880 CURVE SMOOTH",
"576 908 OFFCURVE",
"562 922 OFFCURVE",
"534 922 CURVE SMOOTH",
"102 922 LINE SMOOTH",
"74 922 OFFCURVE",
"60 908 OFFCURVE",
"60 880 CURVE SMOOTH",
"60 852 OFFCURVE",
"74 838 OFFCURVE",
"102 838 CURVE SMOOTH"
);
}
);
width = 1096;
},
{
layerId = "9D2B49D7-8C02-48EB-8D57-D561CCF616AE";
paths = (
{
closed = 1;
nodes = (
"1260 0 OFFCURVE",
"1290 30 OFFCURVE",
"1290 84 CURVE SMOOTH",
"1290 146 OFFCURVE",
"1266 168 OFFCURVE",
"1206 168 CURVE SMOOTH",
"1084 166 OFFCURVE",
"1054 192 OFFCURVE",
"1054 320 CURVE SMOOTH",
"1054 1324 LINE SMOOTH",
"1054 1378 OFFCURVE",
"1024 1408 OFFCURVE",
"970 1408 CURVE SMOOTH",
"632 1408 LINE SMOOTH",
"370 1408 OFFCURVE",
"246 1284 OFFCURVE",
"246 1022 CURVE SMOOTH",
"246 84 LINE SMOOTH",
"246 30 OFFCURVE",
"276 0 OFFCURVE",
"330 0 CURVE SMOOTH",
"384 0 OFFCURVE",
"414 30 OFFCURVE",
"414 84 CURVE SMOOTH",
"414 1022 LINE SMOOTH",
"414 1192 OFFCURVE",
"462 1240 OFFCURVE",
"632 1240 CURVE SMOOTH",
"886 1240 LINE",
"886 320 LINE SMOOTH",
"886 100 OFFCURVE",
"990 -4 OFFCURVE",
"1208 0 CURVE SMOOTH"
);
},
{
closed = 1;
nodes = (
"618 846 LINE SMOOTH",
"672 846 OFFCURVE",
"702 878 OFFCURVE",
"702 930 CURVE SMOOTH",
"702 984 OFFCURVE",
"672 1014 OFFCURVE",
"618 1014 CURVE SMOOTH",
"172 1014 LINE SMOOTH",
"118 1014 OFFCURVE",
"88 984 OFFCURVE",
"88 930 CURVE SMOOTH",
"88 878 OFFCURVE",
"118 846 OFFCURVE",
"172 846 CURVE SMOOTH"
);
}
);
width = 1380;
}
);
leftKerningGroup = f;
leftMetricsKey = f;
rightKerningGroup = l;
rightMetricsKey = l;
unicode = FB02;
},
{
color = 9;
glyphname = a.sc;
lastChange = "2019-09-04 19:35:22 +0000";
layers = (
{
anchors = (
{
name = bottom;
position = "{490, 0}";
},
{
name = ogonek;
position = "{890, 0}";
},
{
name = top;
position = "{492, 1030}";
}
);
layerId = "C9A88445-F9B1-43BF-9834-532EB19954E9";
paths = (
{
closed = 1;
nodes = (
"92 -6 OFFCURVE",
"114 2 OFFCURVE",
"124 26 CURVE SMOOTH",
"230 278 LINE",
"754 278 LINE",
"860 26 LINE SMOOTH",
"870 2 OFFCURVE",
"890 -6 OFFCURVE",
"914 4 CURVE SMOOTH",
"940 14 OFFCURVE",
"948 34 OFFCURVE",
"938 60 CURVE SMOOTH",
"540 1000 LINE SMOOTH",
"532 1022 OFFCURVE",
"516 1030 OFFCURVE",
"492 1030 CURVE SMOOTH",
"466 1030 OFFCURVE",
"452 1020 OFFCURVE",
"442 998 CURVE SMOOTH",
"46 58 LINE SMOOTH",
"36 34 OFFCURVE",
"44 14 OFFCURVE",
"68 4 CURVE SMOOTH"
);
},
{
closed = 1;
nodes = (
"492 898 LINE",
"718 362 LINE",
"266 362 LINE"
);
}
);
width = 982;
},
{
anchors = (
{
name = bottom;
position = "{560, 0}";
},
{
name = ogonek;
position = "{906, 0}";
},
{
name = top;
position = "{564, 1120}";
}
);
layerId = "9D2B49D7-8C02-48EB-8D57-D561CCF616AE";
paths = (
{
closed = 1;
nodes = (
"194 -10 OFFCURVE",
"236 4 OFFCURVE",
"254 54 CURVE SMOOTH",
"322 236 LINE",
"801 236 LINE",
"874 54 LINE SMOOTH",
"894 4 OFFCURVE",
"932 -12 OFFCURVE",
"984 8 CURVE SMOOTH",
"1034 28 OFFCURVE",
"1050 68 OFFCURVE",
"1030 118 CURVE SMOOTH",
"652 1054 LINE SMOOTH",
"634 1098 OFFCURVE",
"604 1120 OFFCURVE",
"564 1120 CURVE SMOOTH",
"518 1120 OFFCURVE",
"488 1098 OFFCURVE",
"470 1054 CURVE SMOOTH",
"98 116 LINE SMOOTH",
"78 68 OFFCURVE",
"94 28 OFFCURVE",
"146 8 CURVE SMOOTH"
);
},
{
closed = 1;
nodes = (
"552 854 LINE",
"733 404 LINE",
"384 404 LINE"
);
}
);
width = 1120;
}
);
leftKerningGroup = a.sc;
rightKerningGroup = a.sc;
userData = {
RMXScaler = {
source = A;
};
};
},
{
color = 9;
glyphname = e.sc;
lastChange = "2019-09-04 19:35:22 +0000";
layers = (
{
anchors = (
{
name = bottom;
position = "{498, 0}";
},
{
name = ogonek;
position = "{788, 16}";
},
{
name = top;
position = "{520, 1030}";
},
{
name = topleft;
position = "{152, 1030}";
}
);
layerId = "C9A88445-F9B1-43BF-9834-532EB19954E9";
paths = (
{
closed = 1;
nodes = (
"792 0 LINE SMOOTH",
"820 0 OFFCURVE",
"834 14 OFFCURVE",
"834 42 CURVE SMOOTH",
"834 70 OFFCURVE",
"820 84 OFFCURVE",
"792 84 CURVE SMOOTH",
"234 84 LINE",
"234 480 LINE",
"602 480 LINE SMOOTH",
"630 480 OFFCURVE",
"644 494 OFFCURVE",
"644 522 CURVE SMOOTH",
"644 550 OFFCURVE",
"630 564 OFFCURVE",
"602 564 CURVE SMOOTH",
"234 564 LINE",
"234 946 LINE",
"792 946 LINE SMOOTH",
"820 946 OFFCURVE",
"834 962 OFFCURVE",
"834 988 CURVE SMOOTH",
"834 1016 OFFCURVE",
"820 1030 OFFCURVE",
"792 1030 CURVE SMOOTH",
"192 1030 LINE SMOOTH",
"164 1030 OFFCURVE",
"150 1016 OFFCURVE",
"150 988 CURVE SMOOTH",
"150 42 LINE SMOOTH",
"150 14 OFFCURVE",
"164 0 OFFCURVE",
"192 0 CURVE SMOOTH"
);
}
);
width = 898;
},
{
anchors = (
{
name = bottom;
position = "{596, 0}";
},
{
name = ogonek;
position = "{824, 98}";
},
{
name = top;
position = "{562, 1120}";
},
{
name = topleft;
position = "{194, 1120}";
}
);
layerId = "9D2B49D7-8C02-48EB-8D57-D561CCF616AE";
paths = (
{
closed = 1;
nodes = (
"820 0 LINE SMOOTH",
"874 0 OFFCURVE",
"904 30 OFFCURVE",
"904 84 CURVE SMOOTH",
"904 138 OFFCURVE",
"874 168 OFFCURVE",
"820 168 CURVE SMOOTH",
"346 168 LINE",
"346 480 LINE",
"630 480 LINE SMOOTH",
"684 480 OFFCURVE",
"714 510 OFFCURVE",
"714 564 CURVE SMOOTH",
"714 618 OFFCURVE",
"684 648 OFFCURVE",
"630 648 CURVE SMOOTH",
"346 648 LINE",
"346 952 LINE",
"820 952 LINE SMOOTH",
"874 952 OFFCURVE",
"904 984 OFFCURVE",
"904 1036 CURVE SMOOTH",
"904 1088 OFFCURVE",
"874 1120 OFFCURVE",
"820 1120 CURVE SMOOTH",
"262 1120 LINE SMOOTH",
"208 1120 OFFCURVE",
"178 1088 OFFCURVE",
"178 1036 CURVE SMOOTH",
"178 84 LINE SMOOTH",
"178 30 OFFCURVE",
"208 0 OFFCURVE",
"262 0 CURVE SMOOTH"
);
}
);
width = 1010;
}
);
leftKerningGroup = h.sc;
rightKerningGroup = e.sc;
userData = {
RMXScaler = {
source = E;
};
};
},
{
color = 9;
glyphname = i.sc;
lastChange = "2019-09-04 19:35:22 +0000";
layers = (
{
anchors = (
{
name = bottom;
position = "{192, 0}";
},
{
name = ogonek;
position = "{180, 2}";
},
{
name = top;
position = "{192, 1030}";
},
{
name = topleft;
position = "{150, 1030}";
}
);
layerId = "C9A88445-F9B1-43BF-9834-532EB19954E9";
paths = (
{
closed = 1;
nodes = (
"218 0 OFFCURVE",
"234 16 OFFCURVE",
"234 42 CURVE SMOOTH",
"234 990 LINE SMOOTH",
"234 1016 OFFCURVE",
"218 1032 OFFCURVE",
"192 1032 CURVE SMOOTH",
"166 1032 OFFCURVE",
"150 1016 OFFCURVE",
"150 990 CURVE SMOOTH",
"150 42 LINE SMOOTH",
"150 16 OFFCURVE",
"166 0 OFFCURVE",
"192 0 CURVE SMOOTH"
);
}
);
width = 384;
},
{
anchors = (
{
name = bottom;
position = "{262, 0}";
},
{
name = ogonek;
position = "{194, 16}";
},
{
name = top;
position = "{262, 1120}";
},
{
name = topleft;
position = "{178, 1120}";
}
);
layerId = "9D2B49D7-8C02-48EB-8D57-D561CCF616AE";
paths = (
{
closed = 1;
nodes = (
"322 0 OFFCURVE",
"346 24 OFFCURVE",
"346 84 CURVE SMOOTH",
"346 1034 LINE SMOOTH",
"346 1094 OFFCURVE",
"322 1118 OFFCURVE",
"262 1118 CURVE SMOOTH",
"202 1118 OFFCURVE",
"178 1094 OFFCURVE",
"178 1034 CURVE SMOOTH",
"178 84 LINE SMOOTH",
"178 24 OFFCURVE",
"202 0 OFFCURVE",
"262 0 CURVE SMOOTH"
);
}
);
width = 524;
}
);
leftKerningGroup = h.sc;
rightKerningGroup = h.sc;
userData = {
RMXScaler = {
source = I;
};
};
},
{
color = 9;
glyphname = o.sc;
lastChange = "2019-09-04 19:35:22 +0000";
layers = (
{
anchors = (
{
name = bottom;
position = "{552, 0}";
},
{
name = center;
position = "{552, 516}";
},
{
name = ogonek;
position = "{798, 32}";
},
{
name = top;
position = "{558, 1030}";
},
{
name = topleft;
position = "{128, 1030}";
},
{
name = topright;
position = "{870, 970}";
}
);
layerId = "C9A88445-F9B1-43BF-9834-532EB19954E9";
paths = (
{
closed = 1;
nodes = (
"654 0 LINE SMOOTH",
"884 0 OFFCURVE",
"986 102 OFFCURVE",
"986 334 CURVE SMOOTH",
"986 698 LINE SMOOTH",
"986 930 OFFCURVE",
"884 1030 OFFCURVE",
"654 1030 CURVE SMOOTH",
"460 1030 LINE SMOOTH",
"230 1030 OFFCURVE",
"128 932 OFFCURVE",
"128 698 CURVE SMOOTH",
"128 334 LINE SMOOTH",
"128 102 OFFCURVE",
"230 0 OFFCURVE",
"462 0 CURVE SMOOTH"
);
},
{
closed = 1;
nodes = (
"276 84 OFFCURVE",
"212 148 OFFCURVE",
"212 334 CURVE SMOOTH",
"212 698 LINE SMOOTH",
"212 884 OFFCURVE",
"276 946 OFFCURVE",
"460 946 CURVE SMOOTH",
"654 946 LINE SMOOTH",
"838 946 OFFCURVE",
"902 882 OFFCURVE",
"902 698 CURVE SMOOTH",
"902 334 LINE SMOOTH",
"902 148 OFFCURVE",
"838 84 OFFCURVE",
"654 84 CURVE SMOOTH",
"462 84 LINE SMOOTH"
);
}
);
width = 1114;
},
{
anchors = (
{
name = bottom;
position = "{572, 0}";
},
{
name = center;
position = "{572, 560}";
},
{
name = ogonek;
position = "{726, 32}";
},
{
name = top;
position = "{600, 1120}";
},
{
name = topleft;
position = "{128, 1120}";
},
{
name = topright;
position = "{954, 984}";
}
);
layerId = "9D2B49D7-8C02-48EB-8D57-D561CCF616AE";
paths = (
{
closed = 1;
nodes = (
"696 0 LINE SMOOTH",
"948 0 OFFCURVE",
"1070 122 OFFCURVE",
"1070 376 CURVE SMOOTH",
"1070 746 LINE SMOOTH",
"1070 1000 OFFCURVE",
"948 1120 OFFCURVE",
"696 1120 CURVE SMOOTH",
"504 1120 LINE SMOOTH",
"252 1120 OFFCURVE",
"128 1004 OFFCURVE",
"128 748 CURVE SMOOTH",
"128 376 LINE SMOOTH",
"128 122 OFFCURVE",
"250 0 OFFCURVE",
"504 0 CURVE SMOOTH"
);
},
{
closed = 1;
nodes = (
"340 168 OFFCURVE",
"296 212 OFFCURVE",
"296 376 CURVE SMOOTH",
"296 748 LINE SMOOTH",
"296 910 OFFCURVE",
"344 952 OFFCURVE",
"504 952 CURVE SMOOTH",
"696 952 LINE SMOOTH",
"858 952 OFFCURVE",
"902 906 OFFCURVE",
"902 746 CURVE SMOOTH",
"902 376 LINE SMOOTH",
"902 212 OFFCURVE",
"858 168 OFFCURVE",
"696 168 CURVE SMOOTH",
"504 168 LINE SMOOTH"
);
}
);
width = 1198;
}
);
leftKerningGroup = o.sc;
rightKerningGroup = o.sc;
userData = {
RMXScaler = {
source = O;
};
};
},
{
color = 9;
glyphname = ordfeminine;
lastChange = "2019-09-04 19:35:22 +0000";
layers = (
{
layerId = "C9A88445-F9B1-43BF-9834-532EB19954E9";
paths = (
{
closed = 1;
nodes = (
"420 638 LINE SMOOTH",
"526 638 OFFCURVE",
"602 669 OFFCURVE",
"646 729 CURVE",
"646 680 LINE SMOOTH",
"646 652 OFFCURVE",
"660 638 OFFCURVE",
"688 638 CURVE SMOOTH",
"716 638 OFFCURVE",
"730 652 OFFCURVE",
"730 680 CURVE SMOOTH",
"730 1038 LINE SMOOTH",
"730 1210 OFFCURVE",
"652 1288 OFFCURVE",
"480 1288 CURVE SMOOTH",
"368 1288 LINE SMOOTH",
"212 1288 OFFCURVE",
"131 1242 OFFCURVE",
"116 1140 CURVE SMOOTH",
"112 1112 OFFCURVE",
"128 1096 OFFCURVE",
"156 1096 CURVE SMOOTH",
"182 1096 OFFCURVE",
"194 1110 OFFCURVE",
"200 1136 CURVE SMOOTH",
"212 1187 OFFCURVE",
"258 1204 OFFCURVE",
"368 1204 CURVE SMOOTH",
"480 1204 LINE SMOOTH",
"597 1204 OFFCURVE",
"641 1167 OFFCURVE",
"646 1058 CURVE",
"310 1058 LINE SMOOTH",
"166 1058 OFFCURVE",
"100 992 OFFCURVE",
"100 848 CURVE SMOOTH",
"100 704 OFFCURVE",
"166 638 OFFCURVE",
"310 638 CURVE SMOOTH"
);
},
{
closed = 1;
nodes = (
"212 722 OFFCURVE",
"184 752 OFFCURVE",
"184 848 CURVE SMOOTH",
"184 946 OFFCURVE",
"214 974 OFFCURVE",
"310 974 CURVE SMOOTH",
"646 974 LINE",
"646 844 LINE SMOOTH",
"646 760 OFFCURVE",
"554 722 OFFCURVE",
"420 722 CURVE SMOOTH",
"310 722 LINE SMOOTH"
);
}
);
width = 830;
},
{
layerId = "9D2B49D7-8C02-48EB-8D57-D561CCF616AE";
paths = (
{
closed = 1;
nodes = (
"478 596 LINE SMOOTH",
"567 596 OFFCURVE",
"635 629 OFFCURVE",
"674 691 CURVE",
"674 668 LINE SMOOTH",
"674 622 OFFCURVE",
"700 596 OFFCURVE",
"746 596 CURVE SMOOTH",
"794 596 OFFCURVE",
"820 622 OFFCURVE",
"820 668 CURVE SMOOTH",
"820 1054 LINE SMOOTH",
"820 1244 OFFCURVE",
"728 1336 OFFCURVE",
"538 1336 CURVE SMOOTH",
"426 1336 LINE SMOOTH",
"270 1336 OFFCURVE",
"181 1290 OFFCURVE",
"150 1190 CURVE SMOOTH",
"135 1141 OFFCURVE",
"168 1112 OFFCURVE",
"218 1112 CURVE SMOOTH",
"254 1112 OFFCURVE",
"258 1116 OFFCURVE",
"300 1170 CURVE SMOOTH",
"315 1189 OFFCURVE",
"356 1190 OFFCURVE",
"426 1190 CURVE SMOOTH",
"538 1190 LINE SMOOTH",
"638 1190 OFFCURVE",
"669 1166 OFFCURVE",
"673 1078 CURVE",
"368 1078 LINE SMOOTH",
"210 1078 OFFCURVE",
"128 998 OFFCURVE",
"128 836 CURVE SMOOTH",
"128 678 OFFCURVE",
"208 596 OFFCURVE",
"368 596 CURVE SMOOTH"
);
},
{
closed = 1;
nodes = (
"290 742 OFFCURVE",
"274 758 OFFCURVE",
"274 836 CURVE SMOOTH",
"274 916 OFFCURVE",
"290 932 OFFCURVE",
"368 932 CURVE SMOOTH",
"674 932 LINE",
"674 808 LINE SMOOTH",
"674 758 OFFCURVE",
"590 742 OFFCURVE",
"478 742 CURVE SMOOTH",
"368 742 LINE SMOOTH"
);
}
);
width = 948;
}
);
leftKerningGroup = ordfeminine;
rightKerningGroup = ordfemnne;
unicode = 00AA;
},
{
color = 9;
glyphname = ordmasculine;
lastChange = "2019-09-04 19:35:22 +0000";
layers = (
{
layerId = "C9A88445-F9B1-43BF-9834-532EB19954E9";
paths = (
{
closed = 1;
nodes = (
"482 638 LINE SMOOTH",
"654 638 OFFCURVE",
"732 716 OFFCURVE",
"732 890 CURVE SMOOTH",
"732 1038 LINE SMOOTH",
"732 1210 OFFCURVE",
"654 1288 OFFCURVE",
"482 1288 CURVE SMOOTH",
"350 1288 LINE SMOOTH",
"178 1290 OFFCURVE",
"100 1212 OFFCURVE",
"100 1038 CURVE SMOOTH",
"100 888 LINE SMOOTH",
"100 716 OFFCURVE",
"178 638 OFFCURVE",
"350 638 CURVE SMOOTH"
);
},
{
closed = 1;
nodes = (
"226 722 OFFCURVE",
"184 764 OFFCURVE",
"184 888 CURVE SMOOTH",
"184 1038 LINE SMOOTH",
"184 1166 OFFCURVE",
"226 1206 OFFCURVE",
"350 1204 CURVE SMOOTH",
"482 1204 LINE SMOOTH",
"606 1204 OFFCURVE",
"648 1162 OFFCURVE",
"648 1038 CURVE SMOOTH",
"648 890 LINE SMOOTH",
"648 764 OFFCURVE",
"606 722 OFFCURVE",
"482 722 CURVE SMOOTH",
"350 722 LINE SMOOTH"
);
}
);
width = 832;
},
{
layerId = "9D2B49D7-8C02-48EB-8D57-D561CCF616AE";
paths = (
{
closed = 1;
nodes = (
"496 596 LINE SMOOTH",
"690 596 OFFCURVE",
"788 694 OFFCURVE",
"788 890 CURVE SMOOTH",
"788 1008 LINE SMOOTH",
"788 1202 OFFCURVE",
"690 1300 OFFCURVE",
"496 1300 CURVE SMOOTH",
"364 1300 LINE SMOOTH",
"170 1298 OFFCURVE",
"72 1204 OFFCURVE",
"72 1008 CURVE SMOOTH",
"72 888 LINE SMOOTH",
"72 694 OFFCURVE",
"170 596 OFFCURVE",
"364 596 CURVE SMOOTH"
);
},
{
closed = 1;
nodes = (
"262 764 OFFCURVE",
"240 786 OFFCURVE",
"240 888 CURVE SMOOTH",
"240 1008 LINE SMOOTH",
"240 1110 OFFCURVE",
"262 1130 OFFCURVE",
"364 1132 CURVE SMOOTH",
"496 1132 LINE SMOOTH",
"598 1132 OFFCURVE",
"620 1108 OFFCURVE",
"620 1008 CURVE SMOOTH",
"620 890 LINE SMOOTH",
"620 786 OFFCURVE",
"598 764 OFFCURVE",
"496 764 CURVE SMOOTH",
"364 764 LINE SMOOTH"
);
}
);
width = 860;
}
);
leftKerningGroup = ordfeminine;
rightKerningGroup = ordfemnne;
unicode = 00BA;
},
{
color = 5;
glyphname = "Be-cy";
lastChange = "2025-02-11 13:49:21 +0000";
layers = (
{
layerId = "C9A88445-F9B1-43BF-9834-532EB19954E9";
paths = (
{
closed = 1;
nodes = (
"770 0 LINE SMOOTH",
"992 0 OFFCURVE",
"1106 114 OFFCURVE",
"1106 334 CURVE SMOOTH",
"1106 396 LINE SMOOTH",
"1106 558 OFFCURVE",
"1046 660 OFFCURVE",
"926 704 CURVE SMOOTH",
"860 728 OFFCURVE",
"752 728 OFFCURVE",
"752 728 CURVE",
"264 728 LINE",
"264 1182 LINE",
"1012 1182 LINE SMOOTH",
"1040 1182 OFFCURVE",
"1054 1196 OFFCURVE",
"1054 1224 CURVE SMOOTH",
"1054 1252 OFFCURVE",
"1040 1266 OFFCURVE",
"1012 1266 CURVE SMOOTH",
"222 1266 LINE SMOOTH",
"194 1266 OFFCURVE",
"180 1252 OFFCURVE",
"180 1224 CURVE SMOOTH",
"180 42 LINE SMOOTH",
"180 14 OFFCURVE",
"194 0 OFFCURVE",
"222 0 CURVE SMOOTH"
);
},
{
closed = 1;
nodes = (
"264 644 LINE",
"770 644 LINE SMOOTH",
"946 644 OFFCURVE",
"1022 570 OFFCURVE",
"1022 396 CURVE SMOOTH",
"1022 334 LINE SMOOTH",
"1022 160 OFFCURVE",
"946 84 OFFCURVE",
"770 84 CURVE SMOOTH",
"264 84 LINE"
);
}
);
width = 1196;
},
{
layerId = "9D2B49D7-8C02-48EB-8D57-D561CCF616AE";
paths = (
{
closed = 1;
nodes = (
"840 0 LINE SMOOTH",
"1084 0 OFFCURVE",
"1218 130 OFFCURVE",
"1218 376 CURVE SMOOTH",
"1218 444 LINE SMOOTH",
"1218 600 OFFCURVE",
"1182 710 OFFCURVE",
"1078 770 CURVE SMOOTH",
"1014 808 OFFCURVE",
"954 818 OFFCURVE",
"850 818 CURVE SMOOTH",
"376 818 LINE",
"376 1188 LINE",
"1082 1188 LINE SMOOTH",
"1134 1188 OFFCURVE",
"1166 1218 OFFCURVE",
"1166 1272 CURVE SMOOTH",
"1166 1324 OFFCURVE",
"1134 1356 OFFCURVE",
"1082 1356 CURVE SMOOTH",
"292 1356 LINE SMOOTH",
"238 1356 OFFCURVE",
"208 1326 OFFCURVE",
"208 1272 CURVE SMOOTH",
"208 84 LINE SMOOTH",
"208 30 OFFCURVE",
"238 0 OFFCURVE",
"292 0 CURVE SMOOTH"
);
},
{
closed = 1;
nodes = (
"376 650 LINE",
"840 650 LINE SMOOTH",
"994 650 OFFCURVE",
"1050 592 OFFCURVE",
"1050 444 CURVE SMOOTH",
"1050 376 LINE SMOOTH",
"1050 228 OFFCURVE",
"990 168 OFFCURVE",
"840 168 CURVE SMOOTH",
"376 168 LINE"
);
}
);
width = 1318;
}
);
leftKerningGroup = H;
leftMetricsKey = H;
rightKerningGroup = "Be-cy";
unicode = 0411;
},
{
color = 5;
glyphname = "Gestroke-cy";
lastChange = "2025-02-11 20:28:37 +0000";
layers = (
{
layerId = "C9A88445-F9B1-43BF-9834-532EB19954E9";
paths = (
{
closed = 1;
nodes = (
"250 0 OFFCURVE",
"264 14 OFFCURVE",
"264 42 CURVE SMOOTH",
"264 602 LINE",
"626 602 LINE SMOOTH",
"654 602 OFFCURVE",
"668 616 OFFCURVE",
"668 644 CURVE SMOOTH",
"668 672 OFFCURVE",
"654 686 OFFCURVE",
"626 686 CURVE SMOOTH",
"264 686 LINE",
"264 1182 LINE",
"938 1182 LINE SMOOTH",
"966 1182 OFFCURVE",
"980 1196 OFFCURVE",
"980 1224 CURVE SMOOTH",
"980 1252 OFFCURVE",
"966 1266 OFFCURVE",
"938 1266 CURVE SMOOTH",
"222 1266 LINE SMOOTH",
"194 1266 OFFCURVE",
"180 1252 OFFCURVE",
"180 1224 CURVE SMOOTH",
"180 686 LINE",
"60 686 LINE SMOOTH",
"32 686 OFFCURVE",
"18 672 OFFCURVE",
"18 644 CURVE SMOOTH",
"18 616 OFFCURVE",
"32 602 OFFCURVE",
"60 602 CURVE SMOOTH",
"180 602 LINE",
"180 42 LINE SMOOTH",
"180 14 OFFCURVE",
"194 0 OFFCURVE",
"222 0 CURVE SMOOTH"
);
}
);
width = 1000;
},
{
layerId = "9D2B49D7-8C02-48EB-8D57-D561CCF616AE";
paths = (
{
closed = 1;
nodes = (
"346 0 OFFCURVE",
"376 30 OFFCURVE",
"376 84 CURVE SMOOTH",
"376 576 LINE",
"730 576 LINE SMOOTH",
"776 576 OFFCURVE",
"800 604 OFFCURVE",
"800 660 CURVE SMOOTH",
"800 716 OFFCURVE",
"776 744 OFFCURVE",
"730 744 CURVE SMOOTH",
"376 744 LINE",
"376 1188 LINE",
"1028 1188 LINE SMOOTH",
"1080 1188 OFFCURVE",
"1112 1218 OFFCURVE",
"1112 1272 CURVE SMOOTH",
"1112 1324 OFFCURVE",
"1080 1356 OFFCURVE",
"1028 1356 CURVE SMOOTH",
"292 1356 LINE SMOOTH",
"238 1356 OFFCURVE",
"208 1324 OFFCURVE",
"208 1272 CURVE SMOOTH",
"208 744 LINE",
"98 744 LINE SMOOTH",
"52 744 OFFCURVE",
"28 716 OFFCURVE",
"28 660 CURVE SMOOTH",
"28 604 OFFCURVE",
"52 576 OFFCURVE",
"98 576 CURVE SMOOTH",
"208 576 LINE",
"208 84 LINE SMOOTH",
"208 30 OFFCURVE",
"238 0 OFFCURVE",
"292 0 CURVE SMOOTH"
);
}
);
width = 1112;
}
);
leftKerningGroup = "Gestroke-cy";
widthMetricsKey = Gamma;
rightKerningGroup = GRK_Gamma;
rightMetricsKey = Gamma;
unicode = 0492;
},
